FrauncesLightOpMin.ufo
<glyph name="exclam" format="2">
  <advance width="515"/>
  <unicode hex="0021"/>
  <outline>
    <contour>
      <point x="263" y="1425" type="curve" smooth="yes"/>
      <point x="292" y="1425"/>
      <point x="317" y="1392"/>
      <point x="317" y="1349" type="curve" smooth="yes"/>
      <point x="317" y="1356"/>
      <point x="317" y="1365"/>
      <point x="321" y="1376" type="curve" smooth="yes"/>
      <point x="278" y="410" type="line" smooth="yes"/>
      <point x="277" y="385"/>
      <point x="271" y="372"/>
      <point x="262" y="372" type="curve" smooth="yes"/>
      <point x="252" y="372"/>
      <point x="243" y="386"/>
      <point x="244" y="414" type="curve" smooth="yes"/>
      <point x="200" y="1348" type="line" smooth="yes"/>
      <point x="204" y="1342"/>
      <point x="206" y="1347"/>
      <point x="206" y="1345" type="curve" smooth="yes"/>
      <point x="206" y="1406"/>
      <point x="212" y="1425"/>
    </contour>
    <contour>
      <point x="263" y="-30" type="curve" smooth="yes"/>
      <point x="299" y="-30"/>
      <point x="329" y="7"/>
      <point x="329" y="53" type="curve" smooth="yes"/>
      <point x="329" y="99"/>
      <point x="299" y="134"/>
      <point x="263" y="134" type="curve" smooth="yes"/>
      <point x="223" y="134"/>
      <point x="193" y="99"/>
      <point x="193" y="53" type="curve" smooth="yes"/>
      <point x="193" y="7"/>
      <point x="223" y="-30"/>
    </contour>
  </outline>
</glyph>
<glyph name="quotedbl" format="2">
  <advance width="819"/>
  <unicode hex="0022"/>
  <outline>
    <contour>
      <point x="560" y="1222" type="curve" smooth="yes"/>
      <point x="573" y="1235" type="line" smooth="yes"/>
      <point x="585" y="1243"/>
      <point x="593" y="1239"/>
      <point x="593" y="1230" type="curve" smooth="yes"/>
      <point x="593" y="1062"/>
      <point x="560" y="974"/>
      <point x="495" y="952" type="curve" smooth="yes"/>
      <point x="472" y="942"/>
      <point x="464" y="934"/>
      <point x="464" y="917" type="curve" smooth="yes"/>
      <point x="464" y="897"/>
      <point x="481" y="881"/>
      <point x="505" y="881" type="curve" smooth="yes"/>
      <point x="564" y="881"/>
      <point x="649" y="1003"/>
      <point x="649" y="1264" type="curve" smooth="yes"/>
      <point x="649" y="1376"/>
      <point x="608" y="1418"/>
      <point x="534" y="1418" type="curve" smooth="yes"/>
      <point x="489" y="1418"/>
      <point x="447" y="1373"/>
      <point x="447" y="1323" type="curve" smooth="yes"/>
      <point x="447" y="1249"/>
      <point x="505" y="1204"/>
    </contour>
    <contour>
      <point x="248" y="1222" type="curve" smooth="yes"/>
      <point x="262" y="1235" type="line" smooth="yes"/>
      <point x="273" y="1243"/>
      <point x="281" y="1239"/>
      <point x="281" y="1230" type="curve" smooth="yes"/>
      <point x="281" y="1062"/>
      <point x="248" y="974"/>
      <point x="183" y="952" type="curve" smooth="yes"/>
      <point x="161" y="942"/>
      <point x="152" y="934"/>
      <point x="152" y="917" type="curve" smooth="yes"/>
      <point x="152" y="897"/>
      <point x="170" y="881"/>
      <point x="193" y="881" type="curve" smooth="yes"/>
      <point x="252" y="881"/>
      <point x="337" y="1003"/>
      <point x="337" y="1264" type="curve" smooth="yes"/>
      <point x="337" y="1376"/>
      <point x="296" y="1418"/>
      <point x="222" y="1418" type="curve" smooth="yes"/>
      <point x="177" y="1418"/>
      <point x="135" y="1373"/>
      <point x="135" y="1323" type="curve" smooth="yes"/>
      <point x="135" y="1249"/>
      <point x="193" y="1204"/>
    </contour>
  </outline>
</glyph>
<glyph name="numbersign" format="2">
  <advance width="1128"/>
  <unicode hex="0023"/>
  <outline>
    <contour>
      <point x="375" y="590" type="curve" smooth="yes"/>
      <point x="339" y="149"/>
      <point x="293" y="79"/>
      <point x="297" y="35" type="curve" smooth="yes"/>
      <point x="299" y="-4"/>
      <point x="317" y="-32"/>
      <point x="335" y="-32" type="curve" smooth="yes"/>
      <point x="354" y="-32"/>
      <point x="374" y="-17"/>
      <point x="378" y="31" type="curve" smooth="yes"/>
      <point x="388" y="70"/>
      <point x="391" y="143"/>
      <point x="432" y="590" type="curve" smooth="yes"/>
      <point x="466" y="1025"/>
      <point x="510" y="1097"/>
      <point x="506" y="1144" type="curve" smooth="yes"/>
      <point x="504" y="1183"/>
      <point x="493" y="1210"/>
      <point x="474" y="1210" type="curve" smooth="yes"/>
      <point x="445" y="1210"/>
      <point x="432" y="1190"/>
      <point x="421" y="1140" type="curve" smooth="yes"/>
      <point x="410" y="1087"/>
      <point x="420" y="1117"/>
    </contour>
    <contour>
      <point x="710" y="590" type="curve" smooth="yes"/>
      <point x="670" y="151"/>
      <point x="625" y="79"/>
      <point x="629" y="35" type="curve" smooth="yes"/>
      <point x="631" y="-4"/>
      <point x="644" y="-32"/>
      <point x="667" y="-32" type="curve" smooth="yes"/>
      <point x="685" y="-32"/>
      <point x="705" y="-17"/>
      <point x="712" y="31" type="curve" smooth="yes"/>
      <point x="722" y="70"/>
      <point x="725" y="146"/>
      <point x="764" y="590" type="curve" smooth="yes"/>
      <point x="801" y="1025"/>
      <point x="841" y="1097"/>
      <point x="837" y="1144" type="curve" smooth="yes"/>
      <point x="835" y="1183"/>
      <point x="823" y="1210"/>
      <point x="804" y="1210" type="curve" smooth="yes"/>
      <point x="776" y="1210"/>
      <point x="760" y="1190"/>
      <point x="754" y="1140" type="curve" smooth="yes"/>
      <point x="742" y="1087"/>
      <point x="759" y="1061"/>
    </contour>
    <contour>
      <point x="574" y="718" type="curve" smooth="yes"/>
      <point x="903" y="718"/>
      <point x="933" y="701"/>
      <point x="949" y="701" type="curve" smooth="yes"/>
      <point x="983" y="701"/>
      <point x="1001" y="727"/>
      <point x="1001" y="754" type="curve" smooth="yes"/>
      <point x="1001" y="773"/>
      <point x="985" y="795"/>
      <point x="955" y="795" type="curve" smooth="yes"/>
      <point x="945" y="795"/>
      <point x="908" y="774"/>
      <point x="574" y="777" type="curve" smooth="yes"/>
      <point x="250" y="777"/>
      <point x="215" y="797"/>
      <point x="203" y="797" type="curve" smooth="yes"/>
      <point x="169" y="797"/>
      <point x="151" y="777"/>
      <point x="151" y="756" type="curve" smooth="yes"/>
      <point x="151" y="725"/>
      <point x="171" y="707"/>
      <point x="205" y="705" type="curve" smooth="yes"/>
      <point x="215" y="703"/>
      <point x="250" y="718"/>
    </contour>
    <contour>
      <point x="551" y="398" type="curve" smooth="yes"/>
      <point x="879" y="398"/>
      <point x="911" y="381"/>
      <point x="925" y="381" type="curve" smooth="yes"/>
      <point x="959" y="381"/>
      <point x="978" y="409"/>
      <point x="978" y="434" type="curve" smooth="yes"/>
      <point x="978" y="455"/>
      <point x="961" y="474"/>
      <point x="931" y="474" type="curve" smooth="yes"/>
      <point x="921" y="474"/>
      <point x="887" y="455"/>
      <point x="551" y="458" type="curve" smooth="yes"/>
      <point x="226" y="458"/>
      <point x="193" y="476"/>
      <point x="177" y="476" type="curve" smooth="yes"/>
      <point x="145" y="476"/>
      <point x="127" y="459"/>
      <point x="127" y="436" type="curve" smooth="yes"/>
      <point x="127" y="408"/>
      <point x="147" y="387"/>
      <point x="179" y="385" type="curve" smooth="yes"/>
      <point x="193" y="383"/>
      <point x="224" y="398"/>
    </contour>
  </outline>
</glyph>
<glyph name="parenleft" format="2">
  <advance width="739"/>
  <unicode hex="0028"/>
  <outline>
    <contour>
      <point x="214" y="570" type="curve" smooth="yes"/>
      <point x="214" y="115"/>
      <point x="466" y="-247"/>
      <point x="757" y="-358" type="curve" smooth="yes"/>
      <point x="736" y="-353"/>
      <point x="712" y="-350"/>
      <point x="706" y="-350" type="curve" smooth="yes"/>
      <point x="712" y="-350"/>
      <point x="717" y="-340"/>
      <point x="717" y="-328" type="curve" smooth="yes"/>
      <point x="717" y="-322"/>
      <point x="715" y="-307"/>
      <point x="711" y="-308" type="curve" smooth="yes"/>
      <point x="445" y="-184"/>
      <point x="280" y="129"/>
      <point x="280" y="570" type="curve" smooth="yes"/>
      <point x="280" y="1016"/>
      <point x="443" y="1327"/>
      <point x="711" y="1448" type="curve" smooth="yes"/>
      <point x="715" y="1450"/>
      <point x="717" y="1460"/>
      <point x="717" y="1467" type="curve" smooth="yes"/>
      <point x="717" y="1479"/>
      <point x="712" y="1492"/>
      <point x="704" y="1492" type="curve" smooth="yes"/>
      <point x="711" y="1492"/>
      <point x="724" y="1499"/>
      <point x="752" y="1507" type="curve" smooth="yes"/>
      <point x="483" y="1407"/>
      <point x="214" y="1062"/>
    </contour>
  </outline>
</glyph>
<glyph name="parenright" format="2">
  <advance width="739"/>
  <unicode hex="0029"/>
  <outline>
    <contour>
      <point x="525" y="594" type="curve" smooth="yes"/>
      <point x="525" y="1049"/>
      <point x="272" y="1411"/>
      <point x="-18" y="1522" type="curve" smooth="yes"/>
      <point x="3" y="1517"/>
      <point x="26" y="1514"/>
      <point x="33" y="1514" type="curve" smooth="yes"/>
      <point x="26" y="1514"/>
      <point x="22" y="1504"/>
      <point x="22" y="1492" type="curve" smooth="yes"/>
      <point x="22" y="1486"/>
      <point x="24" y="1471"/>
      <point x="27" y="1472" type="curve" smooth="yes"/>
      <point x="294" y="1348"/>
      <point x="459" y="1035"/>
      <point x="459" y="594" type="curve" smooth="yes"/>
      <point x="459" y="148"/>
      <point x="296" y="-163"/>
      <point x="27" y="-284" type="curve" smooth="yes"/>
      <point x="24" y="-286"/>
      <point x="22" y="-296"/>
      <point x="22" y="-303" type="curve" smooth="yes"/>
      <point x="22" y="-315"/>
      <point x="26" y="-328"/>
      <point x="35" y="-328" type="curve" smooth="yes"/>
      <point x="28" y="-328"/>
      <point x="15" y="-335"/>
      <point x="-13" y="-343" type="curve" smooth="yes"/>
      <point x="256" y="-243"/>
      <point x="525" y="102"/>
    </contour>
  </outline>
</glyph>
<glyph name="asterisk" format="2">
  <advance width="992"/>
  <unicode hex="002A"/>
  <outline>
    <contour>
      <point x="515" y="1022" type="line"/>
      <point x="515" y="1175"/>
      <point x="559" y="1220"/>
      <point x="559" y="1335" type="curve" smooth="yes"/>
      <point x="559" y="1397"/>
      <point x="521" y="1426"/>
      <point x="487" y="1426" type="curve" smooth="yes"/>
      <point x="461" y="1426"/>
      <point x="439" y="1397"/>
      <point x="437" y="1342" type="curve" smooth="yes"/>
      <point x="435" y="1228"/>
      <point x="483" y="1184"/>
      <point x="483" y="1022" type="curve"/>
    </contour>
    <contour>
      <point x="500" y="1041" type="line"/>
      <point x="356" y="1089"/>
      <point x="325" y="1152"/>
      <point x="217" y="1188" type="curve" smooth="yes"/>
      <point x="163" y="1206"/>
      <point x="126" y="1176"/>
      <point x="116" y="1139" type="curve" smooth="yes"/>
      <point x="110" y="1110"/>
      <point x="125" y="1076"/>
      <point x="172" y="1058" type="curve" smooth="yes"/>
      <point x="281" y="1021"/>
      <point x="337" y="1057"/>
      <point x="492" y="1010" type="curve"/>
    </contour>
    <contour>
      <point x="476" y="1037" type="line"/>
      <point x="388" y="909"/>
      <point x="326" y="903"/>
      <point x="259" y="812" type="curve" smooth="yes"/>
      <point x="224" y="760"/>
      <point x="240" y="712"/>
      <point x="270" y="691" type="curve" smooth="yes"/>
      <point x="287" y="675"/>
      <point x="322" y="679"/>
      <point x="353" y="724" type="curve" smooth="yes"/>
      <point x="423" y="816"/>
      <point x="409" y="882"/>
      <point x="503" y="1016" type="curve"/>
    </contour>
    <contour>
      <point x="476" y="1007" type="line"/>
      <point x="568" y="884"/>
      <point x="558" y="817"/>
      <point x="625" y="725" type="curve" smooth="yes"/>
      <point x="659" y="674"/>
      <point x="706" y="675"/>
      <point x="734" y="698" type="curve" smooth="yes"/>
      <point x="754" y="717"/>
      <point x="755" y="753"/>
      <point x="730" y="799" type="curve" smooth="yes"/>
      <point x="663" y="894"/>
      <point x="599" y="899"/>
      <point x="503" y="1028" type="curve"/>
    </contour>
    <contour>
      <point x="500" y="1002" type="line"/>
      <point x="645" y="1047"/>
      <point x="703" y="1015"/>
      <point x="811" y="1049" type="curve" smooth="yes"/>
      <point x="864" y="1067"/>
      <point x="879" y="1115"/>
      <point x="868" y="1153" type="curve" smooth="yes"/>
      <point x="860" y="1181"/>
      <point x="829" y="1197"/>
      <point x="780" y="1181" type="curve" smooth="yes"/>
      <point x="670" y="1149"/>
      <point x="646" y="1084"/>
      <point x="492" y="1034" type="curve"/>
    </contour>
  </outline>
</glyph>
<glyph name="plus" format="2">
  <advance width="976"/>
  <unicode hex="002B"/>
  <outline>
    <contour>
      <point x="133" y="600" type="curve" smooth="yes"/>
      <point x="133" y="579"/>
      <point x="151" y="564"/>
      <point x="169" y="564" type="curve" smooth="yes"/>
      <point x="280" y="564"/>
      <point x="412" y="592"/>
      <point x="494" y="592" type="curve" smooth="yes"/>
      <point x="578" y="592"/>
      <point x="704" y="564"/>
      <point x="808" y="564" type="curve" smooth="yes"/>
      <point x="829" y="564"/>
      <point x="843" y="579"/>
      <point x="843" y="600" type="curve" smooth="yes"/>
      <point x="843" y="623"/>
      <point x="827" y="640"/>
      <point x="808" y="640" type="curve" smooth="yes"/>
      <point x="704" y="640"/>
      <point x="578" y="612"/>
      <point x="494" y="612" type="curve" smooth="yes"/>
      <point x="398" y="612"/>
      <point x="280" y="640"/>
      <point x="171" y="640" type="curve" smooth="yes"/>
      <point x="153" y="640"/>
      <point x="133" y="623"/>
    </contour>
    <contour>
      <point x="496" y="232" type="curve" smooth="yes"/>
      <point x="512" y="232"/>
      <point x="523" y="252"/>
      <point x="523" y="275" type="curve" smooth="yes"/>
      <point x="523" y="388"/>
      <point x="496" y="521"/>
      <point x="496" y="604" type="curve" smooth="yes"/>
      <point x="496" y="689"/>
      <point x="523" y="816"/>
      <point x="523" y="921" type="curve" smooth="yes"/>
      <point x="523" y="947"/>
      <point x="512" y="964"/>
      <point x="496" y="964" type="curve" smooth="yes"/>
      <point x="478" y="964"/>
      <point x="465" y="945"/>
      <point x="465" y="921" type="curve" smooth="yes"/>
      <point x="465" y="816"/>
      <point x="492" y="689"/>
      <point x="492" y="604" type="curve" smooth="yes"/>
      <point x="492" y="507"/>
      <point x="465" y="388"/>
      <point x="465" y="277" type="curve" smooth="yes"/>
      <point x="465" y="255"/>
      <point x="478" y="232"/>
    </contour>
  </outline>
</glyph>
<glyph name="comma" format="2">
  <advance width="532"/>
  <unicode hex="002C"/>
  <outline>
    <contour>
      <point x="277" y="-49" type="curve" smooth="yes"/>
      <point x="291" y="-37" type="line" smooth="yes"/>
      <point x="303" y="-28"/>
      <point x="311" y="-32"/>
      <point x="311" y="-42" type="curve" smooth="yes"/>
      <point x="311" y="-209"/>
      <point x="277" y="-297"/>
      <point x="213" y="-319" type="curve" smooth="yes"/>
      <point x="190" y="-329"/>
      <point x="181" y="-338"/>
      <point x="181" y="-354" type="curve" smooth="yes"/>
      <point x="181" y="-374"/>
      <point x="199" y="-390"/>
      <point x="222" y="-390" type="curve" smooth="yes"/>
      <point x="281" y="-390"/>
      <point x="367" y="-268"/>
      <point x="367" y="-7" type="curve" smooth="yes"/>
      <point x="367" y="105"/>
      <point x="325" y="147"/>
      <point x="252" y="147" type="curve" smooth="yes"/>
      <point x="207" y="147"/>
      <point x="165" y="102"/>
      <point x="165" y="51" type="curve" smooth="yes"/>
      <point x="165" y="-22"/>
      <point x="222" y="-67"/>
    </contour>
  </outline>
</glyph>
<glyph name="hyphen" format="2">
  <advance width="742"/>
  <unicode hex="002D"/>
  <outline>
    <contour>
      <point x="579" y="525" type="curve" smooth="yes"/>
      <point x="181" y="525" type="line" smooth="yes"/>
      <point x="151" y="525"/>
      <point x="142" y="511"/>
      <point x="137" y="492" type="curve" smooth="yes"/>
      <point x="132" y="478" type="line" smooth="yes"/>
      <point x="131" y="471"/>
      <point x="133" y="474"/>
      <point x="133" y="471" type="curve" smooth="yes"/>
      <point x="133" y="450"/>
      <point x="160" y="438"/>
      <point x="170" y="438" type="curve" smooth="yes"/>
      <point x="568" y="438" type="line" smooth="yes"/>
      <point x="586" y="438"/>
      <point x="593" y="446"/>
      <point x="604" y="472" type="curve" smooth="yes"/>
      <point x="607" y="480" type="line" smooth="yes"/>
      <point x="609" y="487"/>
      <point x="609" y="488"/>
      <point x="609" y="490" type="curve" smooth="yes"/>
      <point x="609" y="510"/>
      <point x="598" y="525"/>
    </contour>
  </outline>
</glyph>
<glyph name="period" format="2">
  <advance width="512"/>
  <unicode hex="002E"/>
  <outline>
    <contour>
      <point x="262" y="-30" type="curve" smooth="yes"/>
      <point x="308" y="-30"/>
      <point x="345" y="14"/>
      <point x="345" y="68" type="curve" smooth="yes"/>
      <point x="345" y="123"/>
      <point x="308" y="164"/>
      <point x="262" y="164" type="curve" smooth="yes"/>
      <point x="214" y="164"/>
      <point x="175" y="123"/>
      <point x="175" y="68" type="curve" smooth="yes"/>
      <point x="175" y="14"/>
      <point x="214" y="-30"/>
    </contour>
  </outline>
</glyph>
<glyph name="slash" format="2">
  <advance width="823"/>
  <unicode hex="002F"/>
  <outline>
    <contour>
      <point x="686" y="1432" type="curve" smooth="yes"/>
      <point x="722" y="1515"/>
      <point x="677" y="1526"/>
      <point x="678" y="1527" type="curve" smooth="yes"/>
      <point x="645" y="1538"/>
      <point x="642" y="1518"/>
      <point x="635" y="1492" type="curve" smooth="yes"/>
      <point x="609" y="1393"/>
      <point x="327" y="590"/>
      <point x="381" y="683" type="curve" smooth="yes"/>
      <point x="454" y="817"/>
      <point x="157" y="-27"/>
      <point x="137" y="-104" type="curve" smooth="yes"/>
      <point x="116" y="-176"/>
      <point x="111" y="-191"/>
      <point x="133" y="-204" type="curve" smooth="yes"/>
      <point x="172" y="-218"/>
      <point x="192" y="-186"/>
      <point x="198" y="-152" type="curve" smooth="yes"/>
      <point x="222" y="-41"/>
      <point x="479" y="729"/>
      <point x="447" y="661" type="curve" smooth="yes"/>
      <point x="410" y="598"/>
      <point x="654" y="1357"/>
    </contour>
  </outline>
</glyph>
<glyph name="one" format="2">
  <advance width="831"/>
  <unicode hex="0031"/>
  <outline>
    <contour>
      <point x="200" y="1111" type="line" smooth="yes"/>
      <point x="175" y="1111"/>
      <point x="163" y="1125"/>
      <point x="163" y="1145" type="curve" smooth="yes"/>
      <point x="163" y="1165"/>
      <point x="179" y="1181"/>
      <point x="208" y="1181" type="curve" smooth="yes"/>
      <point x="310" y="1181" type="line" smooth="yes"/>
      <point x="352" y="1181"/>
      <point x="377" y="1195"/>
      <point x="414" y="1241" type="curve" smooth="yes"/>
      <point x="428" y="1267"/>
      <point x="446" y="1279"/>
      <point x="470" y="1279" type="curve" smooth="yes"/>
      <point x="493" y="1279"/>
      <point x="506" y="1265"/>
      <point x="506" y="1229" type="curve" smooth="yes"/>
      <point x="506" y="150" type="line" smooth="yes"/>
      <point x="506" y="109"/>
      <point x="548" y="77"/>
      <point x="602" y="76" type="curve" smooth="yes"/>
      <point x="770" y="68" type="line" smooth="yes"/>
      <point x="794" y="69"/>
      <point x="809" y="56"/>
      <point x="809" y="38" type="curve" smooth="yes"/>
      <point x="809" y="12"/>
      <point x="796" y="0"/>
      <point x="770" y="0" type="curve" smooth="yes"/>
      <point x="137" y="0" type="line" smooth="yes"/>
      <point x="111" y="0"/>
      <point x="96" y="12"/>
      <point x="96" y="38" type="curve" smooth="yes"/>
      <point x="96" y="60"/>
      <point x="111" y="76"/>
      <point x="139" y="74" type="curve" smooth="yes"/>
      <point x="302" y="82" type="line" smooth="yes"/>
      <point x="364" y="82"/>
      <point x="417" y="107"/>
      <point x="417" y="150" type="curve" smooth="yes"/>
      <point x="417" y="1025" type="line" smooth="yes"/>
      <point x="417" y="1085"/>
      <point x="385" y="1111"/>
      <point x="331" y="1111" type="curve" smooth="yes"/>
    </contour>
  </outline>
</glyph>
<glyph name="two" format="2">
  <advance width="1012"/>
  <unicode hex="0032"/>
  <outline>
    <contour>
      <point x="525" y="588" type="curve" smooth="yes"/>
      <point x="219" y="431"/>
      <point x="139" y="225"/>
      <point x="139" y="60" type="curve" smooth="yes"/>
      <point x="139" y="3"/>
      <point x="165" y="-30"/>
      <point x="201" y="-30" type="curve" smooth="yes"/>
      <point x="244" y="-30"/>
      <point x="296" y="117"/>
      <point x="400" y="117" type="curve" smooth="yes"/>
      <point x="517" y="117"/>
      <point x="606" y="-30"/>
      <point x="679" y="-30" type="curve" smooth="yes"/>
      <point x="832" y="-30"/>
      <point x="905" y="70"/>
      <point x="905" y="207" type="curve" smooth="yes"/>
      <point x="905" y="211"/>
      <point x="904" y="215"/>
      <point x="894" y="215" type="curve" smooth="yes"/>
      <point x="882" y="215"/>
      <point x="872" y="212"/>
      <point x="858" y="180" type="curve" smooth="yes"/>
      <point x="844" y="147"/>
      <point x="817" y="125"/>
      <point x="750" y="125" type="curve" smooth="yes"/>
      <point x="644" y="125"/>
      <point x="564" y="230"/>
      <point x="394" y="230" type="curve" smooth="yes"/>
      <point x="250" y="230"/>
      <point x="175" y="119"/>
      <point x="175" y="1" type="curve"/>
      <point x="182" y="3" type="line"/>
      <point x="182" y="185"/>
      <point x="211" y="337"/>
      <point x="493" y="513" type="curve" smooth="yes"/>
      <point x="782" y="688"/>
      <point x="862" y="784"/>
      <point x="862" y="966" type="curve" smooth="yes"/>
      <point x="862" y="1143"/>
      <point x="745" y="1280"/>
      <point x="550" y="1280" type="curve" smooth="yes"/>
      <point x="328" y="1280"/>
      <point x="171" y="1072"/>
      <point x="171" y="964" type="curve" smooth="yes"/>
      <point x="171" y="899"/>
      <point x="201" y="867"/>
      <point x="247" y="867" type="curve" smooth="yes"/>
      <point x="261" y="867"/>
      <point x="301" y="909"/>
      <point x="301" y="960" type="curve" smooth="yes"/>
      <point x="301" y="1054" type="line" smooth="yes"/>
      <point x="301" y="1147"/>
      <point x="368" y="1212"/>
      <point x="524" y="1212" type="curve" smooth="yes"/>
      <point x="659" y="1212"/>
      <point x="779" y="1119"/>
      <point x="779" y="940" type="curve" smooth="yes"/>
      <point x="779" y="762"/>
      <point x="696" y="681"/>
    </contour>
  </outline>
</glyph>
<glyph name="three" format="2">
  <advance width="979"/>
  <unicode hex="0033"/>
  <outline>
    <contour>
      <point x="436" y="636" type="line"/>
      <point x="842" y="1158" type="line" smooth="yes"/>
      <point x="867" y="1193"/>
      <point x="872" y="1199"/>
      <point x="872" y="1213" type="curve" smooth="yes"/>
      <point x="872" y="1235"/>
      <point x="844" y="1250"/>
      <point x="848" y="1250" type="curve" smooth="yes"/>
      <point x="201" y="1250" type="line" smooth="yes"/>
      <point x="187" y="1250"/>
      <point x="186" y="1218"/>
      <point x="180" y="1174" type="curve" smooth="yes"/>
      <point x="161" y="1018" type="line" smooth="yes"/>
      <point x="157" y="984"/>
      <point x="168" y="965"/>
      <point x="177" y="965" type="curve" smooth="yes"/>
      <point x="200" y="965"/>
      <point x="218" y="988"/>
      <point x="228" y="1014" type="curve" smooth="yes"/>
      <point x="256" y="1072" type="line" smooth="yes"/>
      <point x="279" y="1120"/>
      <point x="308" y="1138"/>
      <point x="352" y="1138" type="curve" smooth="yes"/>
      <point x="706" y="1138" type="line"/>
      <point x="711" y="1126" type="line"/>
      <point x="358" y="660" type="line" smooth="yes"/>
      <point x="358" y="654"/>
      <point x="361" y="648"/>
      <point x="361" y="641" type="curve" smooth="yes"/>
      <point x="361" y="620"/>
      <point x="371" y="604"/>
      <point x="389" y="604" type="curve" smooth="yes"/>
      <point x="456" y="604" type="line" smooth="yes"/>
      <point x="659" y="604"/>
      <point x="796" y="497"/>
      <point x="796" y="286" type="curve" smooth="yes"/>
      <point x="796" y="144"/>
      <point x="693" y="53"/>
      <point x="542" y="50" type="curve" smooth="yes"/>
      <point x="384" y="48"/>
      <point x="276" y="115"/>
      <point x="276" y="198" type="curve" smooth="yes"/>
      <point x="276" y="233" type="line" smooth="yes"/>
      <point x="276" y="289"/>
      <point x="238" y="329"/>
      <point x="190" y="329" type="curve" smooth="yes"/>
      <point x="160" y="329"/>
      <point x="131" y="294"/>
      <point x="131" y="247" type="curve" smooth="yes"/>
      <point x="131" y="95"/>
      <point x="244" y="-30"/>
      <point x="442" y="-30" type="curve" smooth="yes"/>
      <point x="667" y="-30"/>
      <point x="868" y="125"/>
      <point x="868" y="370" type="curve" smooth="yes"/>
      <point x="868" y="579"/>
      <point x="723" y="679"/>
      <point x="495" y="679" type="curve" smooth="yes"/>
      <point x="489" y="679"/>
      <point x="458" y="679"/>
      <point x="450" y="679" type="curve"/>
    </contour>
  </outline>
</glyph>
<glyph name="four" format="2">
  <advance width="946"/>
  <unicode hex="0034"/>
  <outline>
    <contour>
      <point x="539" y="687" type="curve" smooth="yes"/>
      <point x="541" y="153" type="line" smooth="yes"/>
      <point x="541" y="99"/>
      <point x="519" y="64"/>
      <point x="468" y="59" type="curve" smooth="yes"/>
      <point x="345" y="46" type="line" smooth="yes"/>
      <point x="328" y="48"/>
      <point x="325" y="35"/>
      <point x="325" y="19" type="curve" smooth="yes"/>
      <point x="325" y="6"/>
      <point x="335" y="0"/>
      <point x="368" y="0" type="curve" smooth="yes"/>
      <point x="805" y="0" type="line" smooth="yes"/>
      <point x="835" y="0"/>
      <point x="848" y="6"/>
      <point x="848" y="19" type="curve" smooth="yes"/>
      <point x="848" y="35"/>
      <point x="835" y="37"/>
      <point x="809" y="42" type="curve" smooth="yes"/>
      <point x="732" y="55" type="line" smooth="yes"/>
      <point x="685" y="59"/>
      <point x="660" y="93"/>
      <point x="660" y="147" type="curve" smooth="yes"/>
      <point x="658" y="873" type="line" smooth="yes"/>
      <point x="658" y="870"/>
      <point x="656" y="869"/>
      <point x="653" y="869" type="curve" smooth="yes"/>
      <point x="644" y="869"/>
      <point x="635" y="863"/>
      <point x="629" y="841" type="curve" smooth="yes"/>
      <point x="571" y="742" type="line" smooth="yes"/>
      <point x="561" y="714"/>
      <point x="539" y="699"/>
    </contour>
    <contour>
      <point x="332" y="849" type="curve" smooth="yes"/>
      <point x="40" y="425" type="line" smooth="yes"/>
      <point x="18" y="381"/>
      <point x="57" y="372"/>
      <point x="57" y="369" type="curve" smooth="yes"/>
      <point x="57" y="348"/>
      <point x="69" y="336"/>
      <point x="90" y="336" type="curve" smooth="yes"/>
      <point x="838" y="336" type="line" smooth="yes"/>
      <point x="849" y="336"/>
      <point x="859" y="348"/>
      <point x="856" y="373" type="curve" smooth="yes"/>
      <point x="852" y="395"/>
      <point x="850" y="403"/>
      <point x="838" y="403" type="curve" smooth="yes"/>
      <point x="44" y="403" type="line"/>
      <point x="100" y="339" type="line"/>
      <point x="492" y="963" type="line" smooth="yes"/>
      <point x="512" y="1034"/>
      <point x="512" y="1082"/>
      <point x="512" y="1163" type="curve" smooth="yes"/>
      <point x="512" y="1234"/>
      <point x="478" y="1279"/>
      <point x="434" y="1279" type="curve" smooth="yes"/>
      <point x="381" y="1279"/>
      <point x="349" y="1245"/>
      <point x="349" y="1205" type="curve" smooth="yes"/>
      <point x="349" y="1132"/>
      <point x="368" y="1108"/>
      <point x="368" y="1038" type="curve" smooth="yes"/>
      <point x="368" y="935"/>
      <point x="347" y="890"/>
    </contour>
  </outline>
</glyph>
<glyph name="five" format="2">
  <advance width="980"/>
  <unicode hex="0035"/>
  <outline>
    <contour>
      <point x="141" y="248" type="curve" smooth="yes"/>
      <point x="141" y="101"/>
      <point x="289" y="-30"/>
      <point x="442" y="-30" type="curve" smooth="yes"/>
      <point x="680" y="-30"/>
      <point x="863" y="148"/>
      <point x="863" y="415" type="curve" smooth="yes"/>
      <point x="863" y="628"/>
      <point x="720" y="778"/>
      <point x="504" y="778" type="curve" smooth="yes"/>
      <point x="392" y="778"/>
      <point x="308" y="717"/>
      <point x="231" y="595" type="curve"/>
      <point x="252" y="547" type="line"/>
      <point x="252" y="1167" type="line"/>
      <point x="231" y="1199" type="line"/>
      <point x="287" y="1084"/>
      <point x="408" y="1024"/>
      <point x="544" y="1024" type="curve" smooth="yes"/>
      <point x="673" y="1024"/>
      <point x="828" y="1140"/>
      <point x="828" y="1275" type="curve" smooth="yes"/>
      <point x="828" y="1284"/>
      <point x="827" y="1284"/>
      <point x="817" y="1284" type="curve" smooth="yes"/>
      <point x="805" y="1284"/>
      <point x="798" y="1275"/>
      <point x="776" y="1245" type="curve" smooth="yes"/>
      <point x="717" y="1160"/>
      <point x="654" y="1126"/>
      <point x="562" y="1126" type="curve" smooth="yes"/>
      <point x="377" y="1126"/>
      <point x="302" y="1282"/>
      <point x="236" y="1282" type="curve" smooth="yes"/>
      <point x="194" y="1282"/>
      <point x="176" y="1253"/>
      <point x="176" y="1207" type="curve" smooth="yes"/>
      <point x="176" y="549" type="line" smooth="yes"/>
      <point x="176" y="527"/>
      <point x="190" y="511"/>
      <point x="203" y="511" type="curve" smooth="yes"/>
      <point x="218" y="511"/>
      <point x="245" y="524"/>
      <point x="257" y="551" type="curve" smooth="yes"/>
      <point x="328" y="646"/>
      <point x="404" y="689"/>
      <point x="494" y="689" type="curve" smooth="yes"/>
      <point x="671" y="689"/>
      <point x="772" y="568"/>
      <point x="772" y="358" type="curve" smooth="yes"/>
      <point x="772" y="156"/>
      <point x="661" y="43"/>
      <point x="507" y="43" type="curve" smooth="yes"/>
      <point x="363" y="43"/>
      <point x="275" y="104"/>
      <point x="275" y="171" type="curve" smooth="yes"/>
      <point x="275" y="244" type="line" smooth="yes"/>
      <point x="275" y="296"/>
      <point x="240" y="329"/>
      <point x="191" y="329" type="curve" smooth="yes"/>
      <point x="170" y="329"/>
      <point x="141" y="292"/>
    </contour>
  </outline>
</glyph>
<glyph name="seven" format="2">
  <advance width="841"/>
  <unicode hex="0037"/>
  <outline>
    <contour>
      <point x="664" y="1067" type="curve" smooth="yes"/>
      <point x="562" y="890" type="line" smooth="yes"/>
      <point x="374" y="552"/>
      <point x="304" y="384"/>
      <point x="304" y="172" type="curve" smooth="yes"/>
      <point x="304" y="46"/>
      <point x="351" y="-30"/>
      <point x="419" y="-30" type="curve" smooth="yes"/>
      <point x="463" y="-30"/>
      <point x="479" y="15"/>
      <point x="483" y="67" type="curve" smooth="yes"/>
      <point x="483" y="138"/>
      <point x="409" y="223"/>
      <point x="409" y="336" type="curve" smooth="yes"/>
      <point x="409" y="492"/>
      <point x="466" y="645"/>
      <point x="633" y="893" type="curve" smooth="yes"/>
      <point x="765" y="1113" type="line" smooth="yes"/>
      <point x="769" y="1143"/>
      <point x="781" y="1177"/>
      <point x="781" y="1219" type="curve" smooth="yes"/>
      <point x="781" y="1237"/>
      <point x="782" y="1250"/>
      <point x="784" y="1250" type="curve" smooth="yes"/>
      <point x="133" y="1250" type="line" smooth="yes"/>
      <point x="112" y="1250"/>
      <point x="102" y="1218"/>
      <point x="96" y="1174" type="curve" smooth="yes"/>
      <point x="78" y="1034" type="line" smooth="yes"/>
      <point x="74" y="1009"/>
      <point x="83" y="996"/>
      <point x="93" y="996" type="curve" smooth="yes"/>
      <point x="108" y="996"/>
      <point x="121" y="1018"/>
      <point x="131" y="1036" type="curve" smooth="yes"/>
      <point x="157" y="1079" type="line" smooth="yes"/>
      <point x="186" y="1127"/>
      <point x="218" y="1145"/>
      <point x="270" y="1145" type="curve" smooth="yes"/>
      <point x="721" y="1145" type="line"/>
      <point x="704" y="1186" type="line"/>
      <point x="704" y="1150"/>
      <point x="690" y="1113"/>
    </contour>
  </outline>
</glyph>
<glyph name="eight" format="2">
  <advance width="1000"/>
  <unicode hex="0038"/>
  <outline>
    <contour>
      <point x="500" y="-30" type="curve" smooth="yes"/>
      <point x="670" y="-30"/>
      <point x="822" y="106"/>
      <point x="822" y="294" type="curve" smooth="yes"/>
      <point x="822" y="428"/>
      <point x="744" y="547"/>
      <point x="526" y="633" type="curve" smooth="yes"/>
      <point x="289" y="718"/>
      <point x="229" y="846"/>
      <point x="229" y="990" type="curve" smooth="yes"/>
      <point x="229" y="1111"/>
      <point x="335" y="1197"/>
      <point x="512" y="1197" type="curve" smooth="yes"/>
      <point x="666" y="1197"/>
      <point x="771" y="1097"/>
      <point x="771" y="936" type="curve" smooth="yes"/>
      <point x="771" y="818"/>
      <point x="689" y="693"/>
      <point x="568" y="624" type="curve"/>
      <point x="552" y="582" type="line"/>
      <point x="720" y="623"/>
      <point x="838" y="799"/>
      <point x="838" y="964" type="curve" smooth="yes"/>
      <point x="838" y="1137"/>
      <point x="735" y="1284"/>
      <point x="558" y="1284" type="curve" smooth="yes"/>
      <point x="372" y="1284"/>
      <point x="171" y="1129"/>
      <point x="171" y="927" type="curve" smooth="yes"/>
      <point x="171" y="753"/>
      <point x="257" y="632"/>
      <point x="459" y="550" type="curve" smooth="yes"/>
      <point x="694" y="464"/>
      <point x="755" y="369"/>
      <point x="755" y="241" type="curve" smooth="yes"/>
      <point x="755" y="115"/>
      <point x="683" y="47"/>
      <point x="534" y="47" type="curve" smooth="yes"/>
      <point x="364" y="47"/>
      <point x="266" y="161"/>
      <point x="266" y="330" type="curve" smooth="yes"/>
      <point x="266" y="425"/>
      <point x="320" y="517"/>
      <point x="429" y="598" type="curve"/>
      <point x="455" y="626" type="line"/>
      <point x="286" y="593"/>
      <point x="180" y="467"/>
      <point x="180" y="292" type="curve" smooth="yes"/>
      <point x="180" y="102"/>
      <point x="288" y="-30"/>
    </contour>
  </outline>
</glyph>
<glyph name="nine" format="2">
  <advance width="1021"/>
  <unicode hex="0039"/>
  <outline>
    <contour>
      <point x="444" y="-29" type="curve" smooth="yes"/>
      <point x="676" y="-29"/>
      <point x="853" y="167"/>
      <point x="853" y="648" type="curve" smooth="yes"/>
      <point x="853" y="1085"/>
      <point x="700" y="1282"/>
      <point x="495" y="1282" type="curve" smooth="yes"/>
      <point x="289" y="1282"/>
      <point x="113" y="1074"/>
      <point x="113" y="849" type="curve" smooth="yes"/>
      <point x="113" y="595"/>
      <point x="235" y="454"/>
      <point x="409" y="454" type="curve" smooth="yes"/>
      <point x="608" y="454"/>
      <point x="769" y="618"/>
      <point x="769" y="815" type="curve"/>
      <point x="748" y="842" type="line"/>
      <point x="748" y="674"/>
      <point x="612" y="554"/>
      <point x="446" y="554" type="curve" smooth="yes"/>
      <point x="315" y="554"/>
      <point x="206" y="674"/>
      <point x="206" y="914" type="curve" smooth="yes"/>
      <point x="206" y="1094"/>
      <point x="301" y="1195"/>
      <point x="450" y="1195" type="curve" smooth="yes"/>
      <point x="623" y="1195"/>
      <point x="768" y="1060"/>
      <point x="768" y="613" type="curve" smooth="yes"/>
      <point x="768" y="177"/>
      <point x="608" y="39"/>
      <point x="438" y="39" type="curve" smooth="yes"/>
      <point x="346" y="39"/>
      <point x="292" y="90"/>
      <point x="292" y="144" type="curve" smooth="yes"/>
      <point x="292" y="173" type="line" smooth="yes"/>
      <point x="292" y="230"/>
      <point x="260" y="261"/>
      <point x="222" y="261" type="curve" smooth="yes"/>
      <point x="185" y="261"/>
      <point x="160" y="228"/>
      <point x="160" y="176" type="curve" smooth="yes"/>
      <point x="160" y="68"/>
      <point x="260" y="-29"/>
    </contour>
  </outline>
</glyph>
<glyph name="semicolon" format="2">
  <advance width="604"/>
  <unicode hex="003B"/>
  <outline>
    <contour>
      <point x="327" y="-89" type="curve" smooth="yes"/>
      <point x="337" y="-76" type="line" smooth="yes"/>
      <point x="345" y="-67"/>
      <point x="352" y="-70"/>
      <point x="352" y="-76" type="curve" smooth="yes"/>
      <point x="352" y="-230"/>
      <point x="325" y="-309"/>
      <point x="270" y="-328" type="curve" smooth="yes"/>
      <point x="253" y="-337"/>
      <point x="246" y="-345"/>
      <point x="246" y="-358" type="curve" smooth="yes"/>
      <point x="246" y="-375"/>
      <point x="260" y="-388"/>
      <point x="279" y="-388" type="curve" smooth="yes"/>
      <point x="324" y="-388"/>
      <point x="393" y="-281"/>
      <point x="393" y="-49" type="curve" smooth="yes"/>
      <point x="393" y="45"/>
      <point x="362" y="77"/>
      <point x="301" y="77" type="curve" smooth="yes"/>
      <point x="265" y="77"/>
      <point x="230" y="39"/>
      <point x="230" y="-4" type="curve" smooth="yes"/>
      <point x="230" y="-67"/>
      <point x="282" y="-107"/>
    </contour>
    <contour>
      <point x="322" y="486" type="curve" smooth="yes"/>
      <point x="368" y="486"/>
      <point x="406" y="530"/>
      <point x="406" y="584" type="curve" smooth="yes"/>
      <point x="406" y="639"/>
      <point x="368" y="679"/>
      <point x="322" y="679" type="curve" smooth="yes"/>
      <point x="274" y="679"/>
      <point x="236" y="639"/>
      <point x="236" y="584" type="curve" smooth="yes"/>
      <point x="236" y="530"/>
      <point x="274" y="486"/>
    </contour>
  </outline>
</glyph>
<glyph name="less" format="2">
  <advance width="998"/>
  <unicode hex="003C"/>
  <outline>
    <contour>
      <point x="875" y="260" type="curve" smooth="yes"/>
      <point x="881" y="282"/>
      <point x="856" y="321"/>
      <point x="855" y="329" type="curve" smooth="yes"/>
      <point x="685" y="419"/>
      <point x="436" y="540"/>
      <point x="163" y="616" type="curve"/>
      <point x="163" y="584" type="line"/>
      <point x="436" y="661"/>
      <point x="683" y="783"/>
      <point x="860" y="873" type="curve" smooth="yes"/>
      <point x="892" y="894"/>
      <point x="911" y="931"/>
      <point x="878" y="970" type="curve" smooth="yes"/>
      <point x="866" y="972"/>
      <point x="851" y="970"/>
      <point x="800" y="946" type="curve" smooth="yes"/>
      <point x="650" y="866"/>
      <point x="368" y="712"/>
      <point x="110" y="618" type="curve" smooth="yes"/>
      <point x="111" y="616"/>
      <point x="114" y="606"/>
      <point x="114" y="600" type="curve" smooth="yes"/>
      <point x="114" y="594"/>
      <point x="110" y="584"/>
      <point x="110" y="582" type="curve" smooth="yes"/>
      <point x="367" y="488"/>
      <point x="664" y="352"/>
      <point x="800" y="253" type="curve" smooth="yes"/>
      <point x="835" y="219"/>
      <point x="868" y="235"/>
    </contour>
  </outline>
</glyph>
<glyph name="equal" format="2">
  <advance width="978"/>
  <unicode hex="003D"/>
  <outline>
    <contour>
      <point x="135" y="754" type="curve" smooth="yes"/>
      <point x="135" y="734"/>
      <point x="152" y="719"/>
      <point x="171" y="719" type="curve" smooth="yes"/>
      <point x="282" y="719"/>
      <point x="414" y="737"/>
      <point x="496" y="737" type="curve" smooth="yes"/>
      <point x="580" y="737"/>
      <point x="706" y="719"/>
      <point x="809" y="719" type="curve" smooth="yes"/>
      <point x="831" y="719"/>
      <point x="845" y="734"/>
      <point x="845" y="754" type="curve" smooth="yes"/>
      <point x="845" y="777"/>
      <point x="830" y="794"/>
      <point x="809" y="794" type="curve" smooth="yes"/>
      <point x="706" y="794"/>
      <point x="580" y="776"/>
      <point x="496" y="776" type="curve" smooth="yes"/>
      <point x="400" y="776"/>
      <point x="282" y="794"/>
      <point x="172" y="794" type="curve" smooth="yes"/>
      <point x="155" y="794"/>
      <point x="135" y="777"/>
    </contour>
    <contour>
      <point x="133" y="465" type="curve" smooth="yes"/>
      <point x="133" y="445"/>
      <point x="150" y="430"/>
      <point x="169" y="430" type="curve" smooth="yes"/>
      <point x="280" y="430"/>
      <point x="412" y="447"/>
      <point x="494" y="447" type="curve" smooth="yes"/>
      <point x="578" y="447"/>
      <point x="704" y="430"/>
      <point x="808" y="430" type="curve" smooth="yes"/>
      <point x="829" y="430"/>
      <point x="843" y="445"/>
      <point x="843" y="465" type="curve" smooth="yes"/>
      <point x="843" y="488"/>
      <point x="828" y="505"/>
      <point x="808" y="505" type="curve" smooth="yes"/>
      <point x="704" y="505"/>
      <point x="578" y="487"/>
      <point x="494" y="487" type="curve" smooth="yes"/>
      <point x="398" y="487"/>
      <point x="280" y="505"/>
      <point x="171" y="505" type="curve" smooth="yes"/>
      <point x="153" y="505"/>
      <point x="133" y="488"/>
    </contour>
  </outline>
</glyph>
<glyph name="greater" format="2">
  <advance width="853"/>
  <unicode hex="003E"/>
  <outline>
    <contour>
      <point x="-23" y="260" type="curve" smooth="yes"/>
      <point x="-28" y="282"/>
      <point x="-3" y="321"/>
      <point x="-2" y="329" type="curve" smooth="yes"/>
      <point x="168" y="419"/>
      <point x="416" y="540"/>
      <point x="690" y="616" type="curve"/>
      <point x="690" y="584" type="line"/>
      <point x="417" y="661"/>
      <point x="170" y="783"/>
      <point x="-8" y="873" type="curve" smooth="yes"/>
      <point x="-39" y="894"/>
      <point x="-59" y="931"/>
      <point x="-26" y="970" type="curve" smooth="yes"/>
      <point x="-14" y="972"/>
      <point x="2" y="970"/>
      <point x="53" y="946" type="curve" smooth="yes"/>
      <point x="203" y="866"/>
      <point x="485" y="712"/>
      <point x="743" y="618" type="curve" smooth="yes"/>
      <point x="742" y="616"/>
      <point x="739" y="606"/>
      <point x="739" y="600" type="curve" smooth="yes"/>
      <point x="739" y="594"/>
      <point x="743" y="584"/>
      <point x="743" y="582" type="curve" smooth="yes"/>
      <point x="485" y="488"/>
      <point x="188" y="352"/>
      <point x="53" y="253" type="curve" smooth="yes"/>
      <point x="18" y="219"/>
      <point x="-16" y="235"/>
    </contour>
  </outline>
</glyph>
<glyph name="at" format="2">
  <advance width="1525"/>
  <unicode hex="0040"/>
  <outline>
    <contour>
      <point x="963" y="484" type="curve"/>
      <point x="936" y="528" type="line"/>
      <point x="889" y="542"/>
      <point x="830" y="556"/>
      <point x="759" y="556" type="curve" smooth="yes"/>
      <point x="572" y="556"/>
      <point x="487" y="465"/>
      <point x="487" y="354" type="curve" smooth="yes"/>
      <point x="487" y="241"/>
      <point x="565" y="176"/>
      <point x="682" y="176" type="curve" smooth="yes"/>
      <point x="788" y="176"/>
      <point x="887" y="234"/>
      <point x="962" y="333" type="curve"/>
      <point x="919" y="374" type="line"/>
      <point x="873" y="287"/>
      <point x="795" y="250"/>
      <point x="721" y="250" type="curve" smooth="yes"/>
      <point x="649" y="250"/>
      <point x="597" y="288"/>
      <point x="597" y="365" type="curve" smooth="yes"/>
      <point x="597" y="437"/>
      <point x="641" y="501"/>
      <point x="757" y="501" type="curve" smooth="yes"/>
      <point x="835" y="501"/>
      <point x="905" y="493"/>
    </contour>
    <contour>
      <point x="557" y="729" type="curve" smooth="yes"/>
      <point x="557" y="690"/>
      <point x="578" y="664"/>
      <point x="604" y="664" type="curve" smooth="yes"/>
      <point x="648" y="664"/>
      <point x="674" y="701"/>
      <point x="674" y="752" type="curve" smooth="yes"/>
      <point x="674" y="781" type="line" smooth="yes"/>
      <point x="674" y="839"/>
      <point x="720" y="862"/>
      <point x="786" y="862" type="curve" smooth="yes"/>
      <point x="862" y="862"/>
      <point x="914" y="815"/>
      <point x="914" y="691" type="curve" smooth="yes"/>
      <point x="914" y="398" type="line" smooth="yes"/>
      <point x="914" y="239"/>
      <point x="1013" y="176"/>
      <point x="1124" y="176" type="curve" smooth="yes"/>
      <point x="1283" y="176"/>
      <point x="1405" y="330"/>
      <point x="1405" y="596" type="curve" smooth="yes"/>
      <point x="1405" y="964"/>
      <point x="1165" y="1216"/>
      <point x="832" y="1216" type="curve" smooth="yes"/>
      <point x="413" y="1216"/>
      <point x="105" y="927"/>
      <point x="105" y="529" type="curve" smooth="yes"/>
      <point x="105" y="111"/>
      <point x="377" y="-164"/>
      <point x="789" y="-164" type="curve" smooth="yes"/>
      <point x="1023" y="-164"/>
      <point x="1218" y="-55"/>
      <point x="1346" y="80" type="curve" smooth="yes"/>
      <point x="1352" y="92"/>
      <point x="1360" y="108"/>
      <point x="1360" y="120" type="curve" smooth="yes"/>
      <point x="1360" y="125"/>
      <point x="1358" y="127"/>
      <point x="1357" y="127" type="curve" smooth="yes"/>
      <point x="1357" y="127"/>
      <point x="1347" y="123"/>
      <point x="1353" y="124" type="curve" smooth="yes"/>
      <point x="1250" y="26"/>
      <point x="1052" y="-89"/>
      <point x="791" y="-89" type="curve" smooth="yes"/>
      <point x="431" y="-89"/>
      <point x="175" y="167"/>
      <point x="175" y="529" type="curve" smooth="yes"/>
      <point x="175" y="888"/>
      <point x="450" y="1150"/>
      <point x="820" y="1150" type="curve" smooth="yes"/>
      <point x="1117" y="1150"/>
      <point x="1339" y="924"/>
      <point x="1339" y="594" type="curve" smooth="yes"/>
      <point x="1339" y="377"/>
      <point x="1262" y="247"/>
      <point x="1146" y="247" type="curve" smooth="yes"/>
      <point x="1050" y="247"/>
      <point x="998" y="303"/>
      <point x="998" y="398" type="curve" smooth="yes"/>
      <point x="998" y="725" type="line" smooth="yes"/>
      <point x="998" y="850"/>
      <point x="930" y="909"/>
      <point x="840" y="909" type="curve" smooth="yes"/>
      <point x="670" y="909"/>
      <point x="557" y="812"/>
    </contour>
  </outline>
</glyph>
<glyph name="A" format="2">
  <advance width="1306"/>
  <unicode hex="0041"/>
  <anchor x="640" y="1462" name="center"/>
  <outline>
    <contour>
      <point x="280" y="564" type="line"/>
      <point x="286" y="504" type="line"/>
      <point x="909" y="504" type="line"/>
      <point x="898" y="564" type="line"/>
    </contour>
    <contour>
      <point x="393" y="21" type="curve" smooth="yes"/>
      <point x="393" y="36"/>
      <point x="371" y="44"/>
      <point x="306" y="64" type="curve" smooth="yes"/>
      <point x="250" y="83" type="line" smooth="yes"/>
      <point x="228" y="83"/>
      <point x="182" y="80"/>
      <point x="214" y="164" type="curve" smooth="yes"/>
      <point x="637" y="1258" type="line" smooth="yes"/>
      <point x="642" y="1270"/>
      <point x="638" y="1269"/>
      <point x="636" y="1269" type="curve" smooth="yes"/>
      <point x="633" y="1269"/>
      <point x="632" y="1263"/>
      <point x="633" y="1258" type="curve" smooth="yes"/>
      <point x="1031" y="184" type="line" smooth="yes"/>
      <point x="1056" y="116"/>
      <point x="1023" y="67"/>
      <point x="971" y="58" type="curve" smooth="yes"/>
      <point x="911" y="50" type="line" smooth="yes"/>
      <point x="889" y="48"/>
      <point x="878" y="36"/>
      <point x="878" y="21" type="curve" smooth="yes"/>
      <point x="878" y="7"/>
      <point x="893" y="0"/>
      <point x="913" y="0" type="curve" smooth="yes"/>
      <point x="1286" y="0" type="line" smooth="yes"/>
      <point x="1303" y="0"/>
      <point x="1316" y="7"/>
      <point x="1316" y="19" type="curve" smooth="yes"/>
      <point x="1316" y="35"/>
      <point x="1296" y="44"/>
      <point x="1247" y="56" type="curve" smooth="yes"/>
      <point x="1201" y="63"/>
      <point x="1190" y="67"/>
      <point x="1157" y="147" type="curve" smooth="yes"/>
      <point x="728" y="1285" type="line" smooth="yes"/>
      <point x="722" y="1301"/>
      <point x="751" y="1309"/>
      <point x="752" y="1331" type="curve" smooth="yes"/>
      <point x="746" y="1343"/>
      <point x="756" y="1357"/>
      <point x="756" y="1369" type="curve" smooth="yes"/>
      <point x="756" y="1387"/>
      <point x="739" y="1400"/>
      <point x="720" y="1400" type="curve" smooth="yes"/>
      <point x="580" y="1400" type="line" smooth="yes"/>
      <point x="554" y="1400"/>
      <point x="533" y="1388"/>
      <point x="533" y="1372" type="curve" smooth="yes"/>
      <point x="533" y="1354"/>
      <point x="547" y="1347"/>
      <point x="547" y="1338" type="curve" smooth="yes"/>
      <point x="558" y="1319"/>
      <point x="595" y="1307"/>
      <point x="584" y="1282" type="curve" smooth="yes"/>
      <point x="154" y="164" type="line" smooth="yes"/>
      <point x="108" y="51"/>
      <point x="69" y="60"/>
      <point x="47" y="58" type="curve" smooth="yes"/>
      <point x="-2" y="43"/>
      <point x="-14" y="35"/>
      <point x="-14" y="9" type="curve" smooth="yes"/>
      <point x="-14" y="3"/>
      <point x="0" y="0"/>
      <point x="35" y="0" type="curve" smooth="yes"/>
      <point x="349" y="0" type="line" smooth="yes"/>
      <point x="376" y="0"/>
      <point x="393" y="8"/>
    </contour>
  </outline>
</glyph>
<glyph name="B" format="2">
  <advance width="1204"/>
  <unicode hex="0042"/>
  <outline>
    <contour>
      <point x="1135" y="344" type="curve" smooth="yes"/>
      <point x="1135" y="549"/>
      <point x="952" y="684"/>
      <point x="678" y="684" type="curve" smooth="yes"/>
      <point x="657" y="684"/>
      <point x="628" y="711"/>
      <point x="621" y="707" type="curve"/>
      <point x="533" y="684" type="line"/>
      <point x="847" y="684"/>
      <point x="1056" y="826"/>
      <point x="1056" y="1038" type="curve" smooth="yes"/>
      <point x="1056" y="1259"/>
      <point x="850" y="1400"/>
      <point x="521" y="1400" type="curve" smooth="yes"/>
      <point x="143" y="1400" type="line" smooth="yes"/>
      <point x="115" y="1400"/>
      <point x="100" y="1394"/>
      <point x="100" y="1383" type="curve" smooth="yes"/>
      <point x="100" y="1371"/>
      <point x="118" y="1358"/>
      <point x="155" y="1358" type="curve" smooth="yes"/>
      <point x="224" y="1345" type="line" smooth="yes"/>
      <point x="260" y="1343"/>
      <point x="276" y="1315"/>
      <point x="276" y="1284" type="curve" smooth="yes"/>
      <point x="276" y="128" type="line" smooth="yes"/>
      <point x="276" y="91"/>
      <point x="258" y="52"/>
      <point x="220" y="54" type="curve" smooth="yes"/>
      <point x="153" y="42" type="line" smooth="yes"/>
      <point x="118" y="38"/>
      <point x="98" y="29"/>
      <point x="98" y="17" type="curve" smooth="yes"/>
      <point x="98" y="6"/>
      <point x="113" y="0"/>
      <point x="141" y="0" type="curve" smooth="yes"/>
      <point x="633" y="0" type="line" smooth="yes"/>
      <point x="938" y="0"/>
      <point x="1135" y="134"/>
    </contour>
    <contour>
      <point x="590" y="640" type="line" smooth="yes"/>
      <point x="857" y="640"/>
      <point x="1033" y="530"/>
      <point x="1033" y="360" type="curve" smooth="yes"/>
      <point x="1033" y="189"/>
      <point x="879" y="70"/>
      <point x="668" y="70" type="curve" smooth="yes"/>
      <point x="449" y="70" type="line" smooth="yes"/>
      <point x="405" y="70"/>
      <point x="374" y="95"/>
      <point x="374" y="136" type="curve" smooth="yes"/>
      <point x="374" y="1320" type="line"/>
      <point x="512" y="1320" type="line" smooth="yes"/>
      <point x="782" y="1320"/>
      <point x="956" y="1214"/>
      <point x="956" y="1054" type="curve" smooth="yes"/>
      <point x="956" y="866"/>
      <point x="816" y="708"/>
      <point x="666" y="708" type="curve" smooth="yes"/>
      <point x="423" y="708" type="line"/>
      <point x="402" y="640" type="line"/>
    </contour>
  </outline>
</glyph>
<glyph name="E" format="2">
  <advance width="1152"/>
  <unicode hex="0045"/>
  <anchor x="613" y="-154" name="right"/>
  <outline>
    <contour>
      <point x="355" y="695" type="line"/>
      <point x="361" y="638" type="line"/>
      <point x="674" y="638" type="line" smooth="yes"/>
      <point x="775" y="638"/>
      <point x="828" y="597"/>
      <point x="874" y="538" type="curve" smooth="yes"/>
      <point x="880" y="524"/>
      <point x="895" y="513"/>
      <point x="907" y="513" type="curve" smooth="yes"/>
      <point x="908" y="513"/>
      <point x="909" y="518"/>
      <point x="909" y="526" type="curve" smooth="yes"/>
      <point x="909" y="523"/>
      <point x="915" y="519"/>
      <point x="909" y="538" type="curve" smooth="yes"/>
      <point x="837" y="814" type="line" smooth="yes"/>
      <point x="838" y="816"/>
      <point x="834" y="820"/>
      <point x="828" y="820" type="curve" smooth="yes"/>
      <point x="829" y="820"/>
      <point x="824" y="814"/>
      <point x="829" y="815" type="curve" smooth="yes"/>
      <point x="785" y="722"/>
      <point x="729" y="695"/>
      <point x="670" y="695" type="curve" smooth="yes"/>
    </contour>
    <contour>
      <point x="96" y="1379" type="curve" smooth="yes"/>
      <point x="96" y="1366"/>
      <point x="103" y="1367"/>
      <point x="136" y="1359" type="curve" smooth="yes"/>
      <point x="218" y="1341" type="line" smooth="yes"/>
      <point x="251" y="1333"/>
      <point x="272" y="1307"/>
      <point x="272" y="1269" type="curve" smooth="yes"/>
      <point x="272" y="166" type="line" smooth="yes"/>
      <point x="272" y="106"/>
      <point x="249" y="78"/>
      <point x="198" y="62" type="curve" smooth="yes"/>
      <point x="135" y="44" type="line" smooth="yes"/>
      <point x="110" y="33"/>
      <point x="96" y="32"/>
      <point x="96" y="17" type="curve" smooth="yes"/>
      <point x="96" y="5"/>
      <point x="113" y="0"/>
      <point x="140" y="0" type="curve" smooth="yes"/>
      <point x="855" y="0" type="line" smooth="yes"/>
      <point x="896" y="0"/>
      <point x="923" y="-56"/>
      <point x="962" y="-56" type="curve" smooth="yes"/>
      <point x="980" y="-56"/>
      <point x="993" y="-45"/>
      <point x="988" y="-44" type="curve" smooth="yes"/>
      <point x="1047" y="264" type="line" smooth="yes"/>
      <point x="1050" y="282"/>
      <point x="1052" y="294"/>
      <point x="1052" y="302" type="curve" smooth="yes"/>
      <point x="1052" y="304"/>
      <point x="1052" y="306"/>
      <point x="1056" y="306" type="curve" smooth="yes"/>
      <point x="1047" y="306"/>
      <point x="1034" y="294"/>
      <point x="1037" y="290" type="curve" smooth="yes"/>
      <point x="934" y="127"/>
      <point x="905" y="65"/>
      <point x="823" y="65" type="curve" smooth="yes"/>
      <point x="472" y="65" type="line" smooth="yes"/>
      <point x="407" y="65"/>
      <point x="370" y="93"/>
      <point x="370" y="136" type="curve" smooth="yes"/>
      <point x="370" y="1328" type="line"/>
      <point x="792" y="1328" type="line" smooth="yes"/>
      <point x="849" y="1328"/>
      <point x="892" y="1290"/>
      <point x="988" y="1158" type="curve" smooth="yes"/>
      <point x="1005" y="1134"/>
      <point x="1016" y="1116"/>
      <point x="1029" y="1116" type="curve" smooth="yes"/>
      <point x="1030" y="1116"/>
      <point x="1033" y="1123"/>
      <point x="1033" y="1136" type="curve" smooth="yes"/>
      <point x="1033" y="1146"/>
      <point x="1031" y="1164"/>
      <point x="1025" y="1186" type="curve" smooth="yes"/>
      <point x="956" y="1438" type="line" smooth="yes"/>
      <point x="951" y="1457"/>
      <point x="952" y="1460"/>
      <point x="927" y="1460" type="curve" smooth="yes"/>
      <point x="916" y="1460"/>
      <point x="905" y="1449"/>
      <point x="896" y="1429" type="curve" smooth="yes"/>
      <point x="897" y="1414"/>
      <point x="877" y="1400"/>
      <point x="870" y="1400" type="curve" smooth="yes"/>
      <point x="131" y="1400" type="line" smooth="yes"/>
      <point x="109" y="1400"/>
      <point x="96" y="1392"/>
    </contour>
  </outline>
</glyph>
<glyph name="G" format="2">
  <advance width="1418"/>
  <unicode hex="0047"/>
  <outline>
    <contour>
      <point x="1219" y="36" type="curve" smooth="yes"/>
      <point x="1219" y="405" type="line" smooth="yes"/>
      <point x="1219" y="440"/>
      <point x="1229" y="470"/>
      <point x="1257" y="472" type="curve" smooth="yes"/>
      <point x="1299" y="484" type="line" smooth="yes"/>
      <point x="1343" y="489"/>
      <point x="1354" y="492"/>
      <point x="1354" y="502" type="curve" smooth="yes"/>
      <point x="1354" y="512"/>
      <point x="1338" y="517"/>
      <point x="1311" y="517" type="curve" smooth="yes"/>
      <point x="932" y="517" type="line" smooth="yes"/>
      <point x="904" y="517"/>
      <point x="889" y="513"/>
      <point x="889" y="505" type="curve" smooth="yes"/>
      <point x="889" y="495"/>
      <point x="898" y="485"/>
      <point x="914" y="487" type="curve" smooth="yes"/>
      <point x="997" y="473" type="line" smooth="yes"/>
      <point x="1058" y="463"/>
      <point x="1101" y="455"/>
      <point x="1101" y="436" type="curve" smooth="yes"/>
      <point x="1101" y="156" type="line" smooth="yes"/>
      <point x="1101" y="76"/>
      <point x="998" y="34"/>
      <point x="750" y="34" type="curve" smooth="yes"/>
      <point x="432" y="34"/>
      <point x="219" y="306"/>
      <point x="219" y="730" type="curve" smooth="yes"/>
      <point x="219" y="1097"/>
      <point x="417" y="1345"/>
      <point x="744" y="1345" type="curve" smooth="yes"/>
      <point x="893" y="1345"/>
      <point x="1008" y="1293"/>
      <point x="1201" y="1097" type="curve" smooth="yes"/>
      <point x="1214" y="1085"/>
      <point x="1212" y="1089"/>
      <point x="1218" y="1089" type="curve" smooth="yes"/>
      <point x="1224" y="1089"/>
      <point x="1224" y="1091"/>
      <point x="1224" y="1092" type="curve" smooth="yes"/>
      <point x="1224" y="1113"/>
      <point x="1224" y="1136"/>
      <point x="1210" y="1164" type="curve" smooth="yes"/>
      <point x="1103" y="1387" type="line" smooth="yes"/>
      <point x="1090" y="1413"/>
      <point x="1094" y="1425"/>
      <point x="1088" y="1425" type="curve" smooth="yes"/>
      <point x="1074" y="1425"/>
      <point x="1063" y="1371"/>
      <point x="1045" y="1371" type="curve" smooth="yes"/>
      <point x="1005" y="1371"/>
      <point x="930" y="1425"/>
      <point x="769" y="1425" type="curve" smooth="yes"/>
      <point x="353" y="1425"/>
      <point x="85" y="1101"/>
      <point x="85" y="660" type="curve" smooth="yes"/>
      <point x="85" y="244"/>
      <point x="377" y="-30"/>
      <point x="789" y="-30" type="curve" smooth="yes"/>
      <point x="965" y="-30"/>
      <point x="1052" y="35"/>
      <point x="1118" y="35" type="curve" smooth="yes"/>
      <point x="1144" y="35"/>
      <point x="1164" y="-30"/>
      <point x="1195" y="-30" type="curve" smooth="yes"/>
      <point x="1213" y="-30"/>
      <point x="1219" y="-4"/>
    </contour>
  </outline>
</glyph>
<glyph name="J" format="2">
  <advance width="775"/>
  <unicode hex="004A"/>
  <anchor x="513" y="1464" name="center"/>
  <outline>
    <contour>
      <point x="519" y="270" type="curve" smooth="yes"/>
      <point x="519" y="320"/>
      <point x="522" y="347"/>
      <point x="515" y="414" type="curve" smooth="yes"/>
      <point x="506" y="489"/>
      <point x="508" y="507"/>
      <point x="507" y="534" type="curve" smooth="yes"/>
      <point x="505" y="1219" type="line" smooth="yes"/>
      <point x="505" y="1292"/>
      <point x="517" y="1337"/>
      <point x="546" y="1344" type="curve" smooth="yes"/>
      <point x="615" y="1359" type="line" smooth="yes"/>
      <point x="646" y="1359"/>
      <point x="662" y="1367"/>
      <point x="662" y="1381" type="curve" smooth="yes"/>
      <point x="662" y="1392"/>
      <point x="650" y="1397"/>
      <point x="620" y="1397" type="curve" smooth="yes"/>
      <point x="265" y="1397" type="line" smooth="yes"/>
      <point x="220" y="1397"/>
      <point x="213" y="1392"/>
      <point x="213" y="1381" type="curve" smooth="yes"/>
      <point x="213" y="1366"/>
      <point x="227" y="1362"/>
      <point x="254" y="1359" type="curve" smooth="yes"/>
      <point x="322" y="1343" type="line" smooth="yes"/>
      <point x="375" y="1332"/>
      <point x="407" y="1318"/>
      <point x="407" y="1282" type="curve" smooth="yes"/>
      <point x="407" y="474" type="line" smooth="yes"/>
      <point x="407" y="464"/>
      <point x="417" y="425"/>
      <point x="436" y="367" type="curve" smooth="yes"/>
      <point x="466" y="295"/>
      <point x="475" y="222"/>
      <point x="475" y="164" type="curve" smooth="yes"/>
      <point x="475" y="81"/>
      <point x="415" y="34"/>
      <point x="319" y="34" type="curve" smooth="yes"/>
      <point x="259" y="34"/>
      <point x="238" y="63"/>
      <point x="238" y="107" type="curve" smooth="yes"/>
      <point x="238" y="184" type="line" smooth="yes"/>
      <point x="238" y="226"/>
      <point x="230" y="267"/>
      <point x="181" y="267" type="curve" smooth="yes"/>
      <point x="128" y="267"/>
      <point x="104" y="236"/>
      <point x="104" y="190" type="curve" smooth="yes"/>
      <point x="104" y="66"/>
      <point x="175" y="-24"/>
      <point x="309" y="-24" type="curve" smooth="yes"/>
      <point x="438" y="-24"/>
      <point x="519" y="91"/>
    </contour>
  </outline>
</glyph>
<glyph name="K" format="2">
  <advance width="1266"/>
  <unicode hex="004B"/>
  <outline>
    <contour>
      <point x="305" y="360" type="line"/>
      <point x="397" y="381" type="line"/>
      <point x="1129" y="1286" type="line" smooth="yes"/>
      <point x="1112" y="1298"/>
      <point x="1129" y="1308"/>
      <point x="1201" y="1347" type="curve" smooth="yes"/>
      <point x="1230" y="1367"/>
      <point x="1265" y="1367"/>
      <point x="1263" y="1389" type="curve" smooth="yes"/>
      <point x="1261" y="1396"/>
      <point x="1263" y="1400"/>
      <point x="1242" y="1400" type="curve" smooth="yes"/>
      <point x="975" y="1400" type="line" smooth="yes"/>
      <point x="956" y="1400"/>
      <point x="943" y="1395"/>
      <point x="943" y="1386" type="curve" smooth="yes"/>
      <point x="943" y="1362"/>
      <point x="967" y="1360"/>
      <point x="969" y="1353" type="curve" smooth="yes"/>
      <point x="1042" y="1310" type="line" smooth="yes"/>
      <point x="1062" y="1293"/>
      <point x="1074" y="1301"/>
      <point x="1074" y="1290" type="curve" smooth="yes"/>
      <point x="1074" y="1301"/>
      <point x="1092" y="1315"/>
      <point x="1107" y="1320" type="curve" smooth="yes"/>
    </contour>
    <contour>
      <point x="623" y="661" type="line"/>
      <point x="969" y="177" type="line" smooth="yes"/>
      <point x="991" y="147"/>
      <point x="999" y="131"/>
      <point x="999" y="99" type="curve" smooth="yes"/>
      <point x="999" y="73"/>
      <point x="991" y="54"/>
      <point x="956" y="37" type="curve" smooth="yes"/>
      <point x="933" y="27"/>
      <point x="908" y="26"/>
      <point x="908" y="14" type="curve" smooth="yes"/>
      <point x="908" y="5"/>
      <point x="923" y="0"/>
      <point x="948" y="0" type="curve" smooth="yes"/>
      <point x="1269" y="0" type="line" smooth="yes"/>
      <point x="1286" y="0"/>
      <point x="1293" y="5"/>
      <point x="1293" y="13" type="curve" smooth="yes"/>
      <point x="1293" y="17"/>
      <point x="1282" y="18"/>
      <point x="1272" y="20" type="curve" smooth="yes"/>
      <point x="1215" y="44"/>
      <point x="1162" y="64"/>
      <point x="1114" y="131" type="curve" smooth="yes"/>
      <point x="658" y="752" type="line"/>
    </contour>
    <contour>
      <point x="374" y="136" type="curve" smooth="yes"/>
      <point x="374" y="1262" type="line" smooth="yes"/>
      <point x="374" y="1316"/>
      <point x="398" y="1343"/>
      <point x="447" y="1352" type="curve" smooth="yes"/>
      <point x="501" y="1365" type="line" smooth="yes"/>
      <point x="522" y="1368"/>
      <point x="542" y="1372"/>
      <point x="542" y="1386" type="curve" smooth="yes"/>
      <point x="542" y="1395"/>
      <point x="527" y="1400"/>
      <point x="497" y="1400" type="curve" smooth="yes"/>
      <point x="152" y="1400" type="line" smooth="yes"/>
      <point x="123" y="1400"/>
      <point x="111" y="1395"/>
      <point x="111" y="1386" type="curve" smooth="yes"/>
      <point x="111" y="1372"/>
      <point x="128" y="1365"/>
      <point x="155" y="1364" type="curve" smooth="yes"/>
      <point x="204" y="1352" type="line" smooth="yes"/>
      <point x="251" y="1343"/>
      <point x="276" y="1316"/>
      <point x="276" y="1262" type="curve" smooth="yes"/>
      <point x="276" y="136" type="line" smooth="yes"/>
      <point x="276" y="84"/>
      <point x="251" y="57"/>
      <point x="204" y="48" type="curve" smooth="yes"/>
      <point x="144" y="35" type="line" smooth="yes"/>
      <point x="123" y="31"/>
      <point x="109" y="30"/>
      <point x="109" y="14" type="curve" smooth="yes"/>
      <point x="109" y="5"/>
      <point x="123" y="0"/>
      <point x="152" y="0" type="curve" smooth="yes"/>
      <point x="499" y="0" type="line" smooth="yes"/>
      <point x="527" y="0"/>
      <point x="540" y="5"/>
      <point x="540" y="14" type="curve" smooth="yes"/>
      <point x="540" y="28"/>
      <point x="520" y="28"/>
      <point x="499" y="35" type="curve" smooth="yes"/>
      <point x="447" y="48" type="line" smooth="yes"/>
      <point x="398" y="58"/>
      <point x="374" y="84"/>
    </contour>
  </outline>
</glyph>
<glyph name="M" format="2">
  <advance width="1606"/>
  <unicode hex="004D"/>
  <outline>
    <contour>
      <point x="841" y="376" type="line"/>
      <point x="359" y="1377" type="line" smooth="yes"/>
      <point x="351" y="1393"/>
      <point x="358" y="1400"/>
      <point x="334" y="1400" type="curve" smooth="yes"/>
      <point x="195" y="1400" type="line" smooth="yes"/>
      <point x="168" y="1400"/>
      <point x="152" y="1395"/>
      <point x="152" y="1383" type="curve" smooth="yes"/>
      <point x="152" y="1367"/>
      <point x="172" y="1361"/>
      <point x="207" y="1347" type="curve" smooth="yes"/>
      <point x="244" y="1333" type="line" smooth="yes"/>
      <point x="281" y="1319"/>
      <point x="307" y="1295"/>
      <point x="307" y="1255" type="curve" smooth="yes"/>
      <point x="236" y="197" type="line" smooth="yes"/>
      <point x="232" y="143"/>
      <point x="203" y="117"/>
      <point x="156" y="95" type="curve" smooth="yes"/>
      <point x="121" y="79" type="line" smooth="yes"/>
      <point x="76" y="57"/>
      <point x="56" y="49"/>
      <point x="56" y="27" type="curve" smooth="yes"/>
      <point x="56" y="7"/>
      <point x="74" y="0"/>
      <point x="99" y="0" type="curve" smooth="yes"/>
      <point x="426" y="0" type="line" smooth="yes"/>
      <point x="457" y="0"/>
      <point x="477" y="10"/>
      <point x="477" y="29" type="curve" smooth="yes"/>
      <point x="477" y="52"/>
      <point x="462" y="59"/>
      <point x="432" y="71" type="curve" smooth="yes"/>
      <point x="360" y="99" type="line" smooth="yes"/>
      <point x="305" y="121"/>
      <point x="279" y="153"/>
      <point x="283" y="197" type="curve" smooth="yes"/>
      <point x="354" y="1184" type="line"/>
      <point x="336" y="1170" type="line"/>
      <point x="794" y="208" type="line" smooth="yes"/>
      <point x="788" y="215"/>
      <point x="798" y="186"/>
      <point x="801" y="186" type="curve" smooth="yes"/>
      <point x="813" y="186"/>
      <point x="825" y="198"/>
      <point x="837" y="224" type="curve" smooth="yes"/>
      <point x="1281" y="1216" type="line"/>
      <point x="1250" y="1214" type="line"/>
      <point x="1339" y="142" type="line" smooth="yes"/>
      <point x="1343" y="90"/>
      <point x="1321" y="62"/>
      <point x="1286" y="54" type="curve" smooth="yes"/>
      <point x="1237" y="42" type="line" smooth="yes"/>
      <point x="1201" y="34"/>
      <point x="1182" y="32"/>
      <point x="1182" y="17" type="curve" smooth="yes"/>
      <point x="1182" y="5"/>
      <point x="1200" y="0"/>
      <point x="1243" y="0" type="curve" smooth="yes"/>
      <point x="1552" y="0" type="line" smooth="yes"/>
      <point x="1583" y="0"/>
      <point x="1595" y="5"/>
      <point x="1595" y="17" type="curve" smooth="yes"/>
      <point x="1595" y="32"/>
      <point x="1572" y="31"/>
      <point x="1541" y="42" type="curve" smooth="yes"/>
      <point x="1509" y="54" type="line" smooth="yes"/>
      <point x="1462" y="72"/>
      <point x="1443" y="90"/>
      <point x="1439" y="142" type="curve" smooth="yes"/>
      <point x="1344" y="1266" type="line" smooth="yes"/>
      <point x="1340" y="1318"/>
      <point x="1359" y="1353"/>
      <point x="1397" y="1356" type="curve" smooth="yes"/>
      <point x="1447" y="1358" type="line" smooth="yes"/>
      <point x="1487" y="1360"/>
      <point x="1508" y="1366"/>
      <point x="1508" y="1379" type="curve" smooth="yes"/>
      <point x="1508" y="1394"/>
      <point x="1500" y="1400"/>
      <point x="1483" y="1400" type="curve" smooth="yes"/>
      <point x="1483" y="1400"/>
      <point x="1336" y="1400"/>
      <point x="1310" y="1400" type="curve" smooth="yes"/>
      <point x="1279" y="1400"/>
      <point x="1280" y="1380"/>
      <point x="1276" y="1370" type="curve" smooth="yes"/>
      <point x="817" y="368" type="line"/>
    </contour>
  </outline>
</glyph>
<glyph name="N" format="2">
  <advance width="1552"/>
  <unicode hex="004E"/>
  <anchor x="825" y="1549" name="center"/>
  <outline>
    <contour>
      <point x="537" y="23" type="curve" smooth="yes"/>
      <point x="537" y="42"/>
      <point x="526" y="48"/>
      <point x="501" y="57" type="curve" smooth="yes"/>
      <point x="439" y="83" type="line" smooth="yes"/>
      <point x="382" y="103"/>
      <point x="345" y="98"/>
      <point x="345" y="125" type="curve" smooth="yes"/>
      <point x="345" y="1090" type="line"/>
      <point x="355" y="1120" type="line"/>
      <point x="1176" y="103" type="line" smooth="yes"/>
      <point x="1184" y="86"/>
      <point x="1216" y="49"/>
      <point x="1216" y="14" type="curve" smooth="yes"/>
      <point x="1216" y="-2"/>
      <point x="1216" y="0"/>
      <point x="1214" y="0" type="curve" smooth="yes"/>
      <point x="1373" y="0" type="line" smooth="yes"/>
      <point x="1398" y="0"/>
      <point x="1412" y="7"/>
      <point x="1412" y="18" type="curve" smooth="yes"/>
      <point x="1412" y="31"/>
      <point x="1396" y="39"/>
      <point x="1381" y="57" type="curve" smooth="yes"/>
      <point x="1336" y="109" type="line" smooth="yes"/>
      <point x="1310" y="139"/>
      <point x="1287" y="177"/>
      <point x="1287" y="227" type="curve" smooth="yes"/>
      <point x="1287" y="1265" type="line" smooth="yes"/>
      <point x="1287" y="1268"/>
      <point x="1312" y="1276"/>
      <point x="1326" y="1286" type="curve" smooth="yes"/>
      <point x="1442" y="1345" type="line" smooth="yes"/>
      <point x="1459" y="1353"/>
      <point x="1469" y="1362"/>
      <point x="1469" y="1375" type="curve" smooth="yes"/>
      <point x="1469" y="1388"/>
      <point x="1454" y="1400"/>
      <point x="1432" y="1400" type="curve" smooth="yes"/>
      <point x="1054" y="1400" type="line" smooth="yes"/>
      <point x="1035" y="1400"/>
      <point x="1024" y="1392"/>
      <point x="1024" y="1379" type="curve" smooth="yes"/>
      <point x="1024" y="1364"/>
      <point x="1041" y="1353"/>
      <point x="1065" y="1342" type="curve" smooth="yes"/>
      <point x="1150" y="1306" type="line" smooth="yes"/>
      <point x="1215" y="1279"/>
      <point x="1226" y="1273"/>
      <point x="1226" y="1275" type="curve" smooth="yes"/>
      <point x="1226" y="298" type="line"/>
      <point x="1216" y="214" type="line"/>
      <point x="349" y="1320" type="line" smooth="yes"/>
      <point x="294" y="1387"/>
      <point x="270" y="1400"/>
      <point x="227" y="1400" type="curve" smooth="yes"/>
      <point x="181" y="1400" type="line" smooth="yes"/>
      <point x="150" y="1400"/>
      <point x="129" y="1390"/>
      <point x="129" y="1371" type="curve" smooth="yes"/>
      <point x="129" y="1355"/>
      <point x="135" y="1352"/>
      <point x="155" y="1333" type="curve" smooth="yes"/>
      <point x="227" y="1266" type="line" smooth="yes"/>
      <point x="257" y="1239"/>
      <point x="284" y="1214"/>
      <point x="284" y="1176" type="curve" smooth="yes"/>
      <point x="284" y="132" type="line" smooth="yes"/>
      <point x="284" y="113"/>
      <point x="251" y="101"/>
      <point x="208" y="83" type="curve" smooth="yes"/>
      <point x="148" y="59" type="line" smooth="yes"/>
      <point x="112" y="46"/>
      <point x="90" y="38"/>
      <point x="90" y="17" type="curve" smooth="yes"/>
      <point x="90" y="4"/>
      <point x="109" y="0"/>
      <point x="133" y="0" type="curve" smooth="yes"/>
      <point x="486" y="0" type="line" smooth="yes"/>
      <point x="516" y="0"/>
      <point x="537" y="9"/>
    </contour>
  </outline>
</glyph>
<glyph name="Q" format="2">
  <advance width="1527"/>
  <unicode hex="0051"/>
  <outline>
    <contour>
      <point x="812" y="306" type="curve" smooth="yes"/>
      <point x="945" y="-54"/>
      <point x="1146" y="-281"/>
      <point x="1465" y="-281" type="curve" smooth="yes"/>
      <point x="1465" y="-281"/>
      <point x="1448" y="-262"/>
      <point x="1445" y="-234" type="curve" smooth="yes"/>
      <point x="1480" y="-92" type="line" smooth="yes"/>
      <point x="1469" y="-84"/>
      <point x="1466" y="-88"/>
      <point x="1466" y="-97" type="curve" smooth="yes"/>
      <point x="1466" y="-94"/>
      <point x="1466" y="-92"/>
      <point x="1467" y="-92" type="curve" smooth="yes"/>
      <point x="1443" y="-92"/>
      <point x="1417" y="-125"/>
      <point x="1306" y="-125" type="curve" smooth="yes"/>
      <point x="1125" y="-125"/>
      <point x="991" y="3"/>
      <point x="863" y="332" type="curve" smooth="yes"/>
      <point x="855" y="354"/>
      <point x="843" y="366"/>
      <point x="826" y="366" type="curve" smooth="yes"/>
      <point x="815" y="366"/>
      <point x="807" y="350"/>
      <point x="807" y="330" type="curve" smooth="yes"/>
      <point x="807" y="322"/>
      <point x="809" y="314"/>
    </contour>
    <contour>
      <point x="767" y="1426" type="curve" smooth="yes"/>
      <point x="393" y="1426"/>
      <point x="85" y="1144"/>
      <point x="85" y="708" type="curve" smooth="yes"/>
      <point x="85" y="294"/>
      <point x="397" y="-30"/>
      <point x="767" y="-30" type="curve" smooth="yes"/>
      <point x="1157" y="-30"/>
      <point x="1447" y="277"/>
      <point x="1447" y="710" type="curve" smooth="yes"/>
      <point x="1447" y="1112"/>
      <point x="1155" y="1426"/>
    </contour>
    <contour>
      <point x="1322" y="612" type="curve" smooth="yes"/>
      <point x="1322" y="273"/>
      <point x="1107" y="45"/>
      <point x="839" y="45" type="curve" smooth="yes"/>
      <point x="451" y="45"/>
      <point x="206" y="358"/>
      <point x="206" y="796" type="curve" smooth="yes"/>
      <point x="206" y="1128"/>
      <point x="422" y="1348"/>
      <point x="697" y="1348" type="curve" smooth="yes"/>
      <point x="1079" y="1348"/>
      <point x="1322" y="1040"/>
    </contour>
  </outline>
</glyph>
<glyph name="S" format="2">
  <advance width="1073"/>
  <unicode hex="0053"/>
  <outline>
    <contour>
      <point x="599" y="-30" type="curve" smooth="yes"/>
      <point x="816" y="-30"/>
      <point x="943" y="134"/>
      <point x="943" y="340" type="curve" smooth="yes"/>
      <point x="943" y="503"/>
      <point x="829" y="606"/>
      <point x="624" y="699" type="curve" smooth="yes"/>
      <point x="291" y="823"/>
      <point x="192" y="917"/>
      <point x="192" y="1078" type="curve" smooth="yes"/>
      <point x="192" y="1229"/>
      <point x="319" y="1341"/>
      <point x="494" y="1341" type="curve" smooth="yes"/>
      <point x="618" y="1341"/>
      <point x="699" y="1299"/>
      <point x="878" y="1087" type="curve" smooth="yes"/>
      <point x="906" y="1054"/>
      <point x="907" y="1041"/>
      <point x="927" y="1041" type="curve" smooth="yes"/>
      <point x="942" y="1041"/>
      <point x="946" y="1053"/>
      <point x="946" y="1069" type="curve" smooth="yes"/>
      <point x="946" y="1086"/>
      <point x="942" y="1101"/>
      <point x="937" y="1114" type="curve" smooth="yes"/>
      <point x="835" y="1391" type="line" smooth="yes"/>
      <point x="826" y="1417"/>
      <point x="824" y="1412"/>
      <point x="828" y="1412" type="curve" smooth="yes"/>
      <point x="805" y="1412"/>
      <point x="797" y="1362"/>
      <point x="766" y="1362" type="curve" smooth="yes"/>
      <point x="711" y="1362"/>
      <point x="627" y="1425"/>
      <point x="503" y="1425" type="curve" smooth="yes"/>
      <point x="300" y="1425"/>
      <point x="121" y="1244"/>
      <point x="121" y="1026" type="curve" smooth="yes"/>
      <point x="121" y="838"/>
      <point x="253" y="733"/>
      <point x="431" y="650" type="curve" smooth="yes"/>
      <point x="788" y="528"/>
      <point x="864" y="445"/>
      <point x="864" y="278" type="curve" smooth="yes"/>
      <point x="864" y="131"/>
      <point x="767" y="39"/>
      <point x="613" y="39" type="curve" smooth="yes"/>
      <point x="441" y="39"/>
      <point x="327" y="112"/>
      <point x="190" y="322" type="curve" smooth="yes"/>
      <point x="185" y="340"/>
      <point x="172" y="353"/>
      <point x="165" y="353" type="curve" smooth="yes"/>
      <point x="163" y="353"/>
      <point x="159" y="341"/>
      <point x="161" y="326" type="curve" smooth="yes"/>
      <point x="218" y="2" type="line" smooth="yes"/>
      <point x="215" y="1"/>
      <point x="211" y="-16"/>
      <point x="214" y="-16" type="curve" smooth="yes"/>
      <point x="242" y="-16"/>
      <point x="253" y="56"/>
      <point x="286" y="56" type="curve" smooth="yes"/>
      <point x="346" y="56"/>
      <point x="441" y="-30"/>
    </contour>
  </outline>
</glyph>
<glyph name="V" format="2">
  <advance width="1213"/>
  <unicode hex="0056"/>
  <outline>
    <contour>
      <point x="799" y="1377" type="curve" smooth="yes"/>
      <point x="799" y="1362"/>
      <point x="815" y="1351"/>
      <point x="836" y="1344" type="curve" smooth="yes"/>
      <point x="995" y="1272" type="line" smooth="yes"/>
      <point x="991" y="1273"/>
      <point x="997" y="1257"/>
      <point x="1010" y="1262" type="curve" smooth="yes"/>
      <point x="562" y="122" type="line"/>
      <point x="634" y="117" type="line"/>
      <point x="210" y="1268" type="line" smooth="yes"/>
      <point x="193" y="1323"/>
      <point x="237" y="1344"/>
      <point x="286" y="1344" type="curve" smooth="yes"/>
      <point x="354" y="1352" type="line" smooth="yes"/>
      <point x="376" y="1351"/>
      <point x="381" y="1356"/>
      <point x="381" y="1377" type="curve" smooth="yes"/>
      <point x="381" y="1392"/>
      <point x="370" y="1400"/>
      <point x="352" y="1400" type="curve" smooth="yes"/>
      <point x="34" y="1400" type="line" smooth="yes"/>
      <point x="8" y="1400"/>
      <point x="-9" y="1393"/>
      <point x="-9" y="1381" type="curve" smooth="yes"/>
      <point x="-9" y="1368"/>
      <point x="1" y="1369"/>
      <point x="31" y="1351" type="curve" smooth="yes"/>
      <point x="61" y="1335"/>
      <point x="105" y="1308"/>
      <point x="129" y="1239" type="curve" smooth="yes"/>
      <point x="530" y="178" type="line" smooth="yes"/>
      <point x="526" y="174"/>
      <point x="536" y="150"/>
      <point x="536" y="118" type="curve" smooth="yes"/>
      <point x="536" y="62" type="line" smooth="yes"/>
      <point x="536" y="32"/>
      <point x="557" y="0"/>
      <point x="583" y="0" type="curve" smooth="yes"/>
      <point x="614" y="0" type="line" smooth="yes"/>
      <point x="645" y="0"/>
      <point x="665" y="22"/>
      <point x="665" y="58" type="curve" smooth="yes"/>
      <point x="665" y="112" type="line" smooth="yes"/>
      <point x="665" y="156"/>
      <point x="671" y="192"/>
      <point x="676" y="212" type="curve" smooth="yes"/>
      <point x="1062" y="1194" type="line" smooth="yes"/>
      <point x="1103" y="1301"/>
      <point x="1123" y="1307"/>
      <point x="1159" y="1330" type="curve" smooth="yes"/>
      <point x="1193" y="1355"/>
      <point x="1218" y="1356"/>
      <point x="1218" y="1385" type="curve" smooth="yes"/>
      <point x="1218" y="1397"/>
      <point x="1216" y="1400"/>
      <point x="1189" y="1400" type="curve" smooth="yes"/>
      <point x="838" y="1400" type="line" smooth="yes"/>
      <point x="813" y="1400"/>
      <point x="799" y="1390"/>
    </contour>
  </outline>
</glyph>
<glyph name="Y" format="2">
  <advance width="1233"/>
  <unicode hex="0059"/>
  <anchor x="701" y="1420" name="center"/>
  <outline>
    <contour>
      <point x="544" y="492" type="line"/>
      <point x="544" y="139" type="line" smooth="yes"/>
      <point x="544" y="87"/>
      <point x="520" y="60"/>
      <point x="473" y="51" type="curve" smooth="yes"/>
      <point x="424" y="39" type="line" smooth="yes"/>
      <point x="389" y="31"/>
      <point x="369" y="30"/>
      <point x="369" y="16" type="curve" smooth="yes"/>
      <point x="369" y="4"/>
      <point x="376" y="0"/>
      <point x="411" y="0" type="curve" smooth="yes"/>
      <point x="777" y="0" type="line" smooth="yes"/>
      <point x="806" y="0"/>
      <point x="818" y="5"/>
      <point x="818" y="16" type="curve" smooth="yes"/>
      <point x="818" y="30"/>
      <point x="799" y="31"/>
      <point x="763" y="39" type="curve" smooth="yes"/>
      <point x="714" y="51" type="line" smooth="yes"/>
      <point x="667" y="60"/>
      <point x="644" y="87"/>
      <point x="644" y="139" type="curve" smooth="yes"/>
      <point x="644" y="492" type="line"/>
    </contour>
    <contour>
      <point x="616" y="410" type="line"/>
      <point x="1018" y="1174" type="line" smooth="yes"/>
      <point x="1071" y="1271"/>
      <point x="1124" y="1298"/>
      <point x="1187" y="1320" type="curve" smooth="yes"/>
      <point x="1224" y="1334"/>
      <point x="1242" y="1347"/>
      <point x="1242" y="1367" type="curve" smooth="yes"/>
      <point x="1242" y="1389"/>
      <point x="1227" y="1400"/>
      <point x="1195" y="1400" type="curve" smooth="yes"/>
      <point x="846" y="1400" type="line" smooth="yes"/>
      <point x="821" y="1400"/>
      <point x="807" y="1390"/>
      <point x="807" y="1377" type="curve" smooth="yes"/>
      <point x="807" y="1359"/>
      <point x="832" y="1352"/>
      <point x="875" y="1336" type="curve" smooth="yes"/>
      <point x="942" y="1310"/>
      <point x="956" y="1282"/>
      <point x="957" y="1252" type="curve" smooth="yes"/>
      <point x="957" y="1230"/>
      <point x="950" y="1202"/>
      <point x="934" y="1170" type="curve" smooth="yes"/>
      <point x="595" y="506" type="line"/>
      <point x="607" y="546" type="line"/>
      <point x="252" y="1216" type="line" smooth="yes"/>
      <point x="222" y="1273"/>
      <point x="250" y="1329"/>
      <point x="311" y="1340" type="curve" smooth="yes"/>
      <point x="352" y="1350" type="line" smooth="yes"/>
      <point x="379" y="1358"/>
      <point x="399" y="1362"/>
      <point x="399" y="1377" type="curve" smooth="yes"/>
      <point x="399" y="1392"/>
      <point x="386" y="1400"/>
      <point x="368" y="1400" type="curve" smooth="yes"/>
      <point x="34" y="1400" type="line" smooth="yes"/>
      <point x="8" y="1400"/>
      <point x="-9" y="1393"/>
      <point x="-9" y="1381" type="curve" smooth="yes"/>
      <point x="-9" y="1365"/>
      <point x="3" y="1360"/>
      <point x="40" y="1344" type="curve" smooth="yes"/>
      <point x="91" y="1326"/>
      <point x="95" y="1297"/>
      <point x="134" y="1224" type="curve" smooth="yes"/>
      <point x="575" y="410" type="line"/>
    </contour>
  </outline>
</glyph>
<glyph name="Z" format="2">
  <advance width="1053"/>
  <unicode hex="005A"/>
  <outline>
    <contour>
      <point x="994" y="1328" type="line" smooth="yes"/>
      <point x="1005" y="1350"/>
      <point x="1012" y="1353"/>
      <point x="1012" y="1374" type="curve" smooth="yes"/>
      <point x="1012" y="1385"/>
      <point x="993" y="1393"/>
      <point x="949" y="1393" type="curve" smooth="yes"/>
      <point x="239" y="1393" type="line" smooth="yes"/>
      <point x="205" y="1393"/>
      <point x="174" y="1439"/>
      <point x="143" y="1439" type="curve" smooth="yes"/>
      <point x="135" y="1439"/>
      <point x="138" y="1422"/>
      <point x="129" y="1393" type="curve" smooth="yes"/>
      <point x="80" y="1197" type="line" smooth="yes"/>
      <point x="78" y="1191"/>
      <point x="73" y="1187"/>
      <point x="73" y="1183" type="curve" smooth="yes"/>
      <point x="73" y="1168"/>
      <point x="89" y="1160"/>
      <point x="94" y="1160" type="curve" smooth="yes"/>
      <point x="118" y="1160"/>
      <point x="122" y="1178"/>
      <point x="141" y="1191" type="curve" smooth="yes"/>
      <point x="220" y="1283" type="line" smooth="yes"/>
      <point x="253" y="1311"/>
      <point x="216" y="1319"/>
      <point x="261" y="1319" type="curve" smooth="yes"/>
      <point x="878" y="1319" type="line"/>
      <point x="857" y="1325" type="line"/>
      <point x="44" y="72" type="line" smooth="yes"/>
      <point x="36" y="53"/>
      <point x="25" y="35"/>
      <point x="25" y="6" type="curve" smooth="yes"/>
      <point x="25" y="-4"/>
      <point x="39" y="-10"/>
      <point x="71" y="-10" type="curve" smooth="yes"/>
      <point x="682" y="-10" type="line" smooth="yes"/>
      <point x="814" y="-10"/>
      <point x="877" y="-60"/>
      <point x="939" y="-60" type="curve" smooth="yes"/>
      <point x="933" y="-60"/>
      <point x="923" y="-47"/>
      <point x="932" y="-17" type="curve" smooth="yes"/>
      <point x="990" y="258" type="line" smooth="yes"/>
      <point x="988" y="250"/>
      <point x="992" y="245"/>
      <point x="992" y="240" type="curve" smooth="yes"/>
      <point x="992" y="263"/>
      <point x="979" y="276"/>
      <point x="964" y="276" type="curve" smooth="yes"/>
      <point x="943" y="276"/>
      <point x="928" y="257"/>
      <point x="911" y="232" type="curve" smooth="yes"/>
      <point x="814" y="95" type="line" smooth="yes"/>
      <point x="802" y="83"/>
      <point x="781" y="64"/>
      <point x="753" y="64" type="curve" smooth="yes"/>
      <point x="249" y="64" type="line"/>
      <point x="169" y="56" type="line"/>
    </contour>
  </outline>
</glyph>
<glyph name="bracketleft" format="2">
  <advance width="603"/>
  <unicode hex="005B"/>
  <outline>
    <contour>
      <point x="316" y="1434" type="line" smooth="yes"/>
      <point x="316" y="1457"/>
      <point x="329" y="1474"/>
      <point x="345" y="1474" type="curve" smooth="yes"/>
      <point x="555" y="1474" type="line" smooth="yes"/>
      <point x="564" y="1474"/>
      <point x="564" y="1479"/>
      <point x="564" y="1490" type="curve" smooth="yes"/>
      <point x="564" y="1500"/>
      <point x="564" y="1512"/>
      <point x="559" y="1512" type="curve" smooth="yes"/>
      <point x="314" y="1512" type="line" smooth="yes"/>
      <point x="288" y="1512"/>
      <point x="270" y="1481"/>
      <point x="270" y="1442" type="curve" smooth="yes"/>
      <point x="270" y="-284" type="line" smooth="yes"/>
      <point x="270" y="-323"/>
      <point x="288" y="-354"/>
      <point x="314" y="-354" type="curve" smooth="yes"/>
      <point x="559" y="-354" type="line" smooth="yes"/>
      <point x="564" y="-354"/>
      <point x="564" y="-344"/>
      <point x="564" y="-332" type="curve" smooth="yes"/>
      <point x="564" y="-321"/>
      <point x="564" y="-316"/>
      <point x="555" y="-316" type="curve" smooth="yes"/>
      <point x="345" y="-316" type="line" smooth="yes"/>
      <point x="329" y="-316"/>
      <point x="316" y="-299"/>
      <point x="316" y="-276" type="curve" smooth="yes"/>
    </contour>
  </outline>
</glyph>
<glyph name="bracketright" format="2">
  <advance width="603"/>
  <unicode hex="005D"/>
  <outline>
    <contour>
      <point x="287" y="-274" type="line" smooth="yes"/>
      <point x="287" y="-297"/>
      <point x="273" y="-314"/>
      <point x="258" y="-314" type="curve" smooth="yes"/>
      <point x="48" y="-314" type="line" smooth="yes"/>
      <point x="39" y="-314"/>
      <point x="38" y="-319"/>
      <point x="38" y="-330" type="curve" smooth="yes"/>
      <point x="38" y="-340"/>
      <point x="39" y="-352"/>
      <point x="44" y="-352" type="curve" smooth="yes"/>
      <point x="289" y="-352" type="line" smooth="yes"/>
      <point x="315" y="-352"/>
      <point x="332" y="-321"/>
      <point x="332" y="-282" type="curve" smooth="yes"/>
      <point x="332" y="1444" type="line" smooth="yes"/>
      <point x="332" y="1483"/>
      <point x="315" y="1514"/>
      <point x="289" y="1514" type="curve" smooth="yes"/>
      <point x="44" y="1514" type="line" smooth="yes"/>
      <point x="39" y="1514"/>
      <point x="38" y="1504"/>
      <point x="38" y="1492" type="curve" smooth="yes"/>
      <point x="38" y="1481"/>
      <point x="39" y="1476"/>
      <point x="48" y="1476" type="curve" smooth="yes"/>
      <point x="258" y="1476" type="line" smooth="yes"/>
      <point x="273" y="1476"/>
      <point x="287" y="1459"/>
      <point x="287" y="1436" type="curve" smooth="yes"/>
    </contour>
  </outline>
</glyph>
<glyph name="b" format="2">
  <advance width="1020"/>
  <unicode hex="0062"/>
  <outline>
    <contour>
      <point x="-19" y="1213" type="curve" smooth="yes"/>
      <point x="70" y="1213" type="line" smooth="yes"/>
      <point x="122" y="1213"/>
      <point x="155" y="1199"/>
      <point x="155" y="1154" type="curve" smooth="yes"/>
      <point x="155" y="21" type="line" smooth="yes"/>
      <point x="155" y="-5"/>
      <point x="164" y="-17"/>
      <point x="178" y="-17" type="curve" smooth="yes"/>
      <point x="187" y="-17"/>
      <point x="191" y="-11"/>
      <point x="188" y="1" type="curve" smooth="yes"/>
      <point x="229" y="51" type="line" smooth="yes"/>
      <point x="229" y="1347" type="line" smooth="yes"/>
      <point x="229" y="1370"/>
      <point x="226" y="1388"/>
      <point x="217" y="1388" type="curve" smooth="yes"/>
      <point x="182" y="1388"/>
      <point x="152" y="1373"/>
      <point x="116" y="1346" type="curve" smooth="yes"/>
      <point x="23" y="1270" type="line" smooth="yes"/>
      <point x="-24" y="1237"/>
      <point x="-24" y="1226"/>
      <point x="-24" y="1223" type="curve" smooth="yes"/>
      <point x="-24" y="1217"/>
      <point x="-24" y="1213"/>
    </contour>
    <contour>
      <point x="209" y="700" type="line"/>
      <point x="320" y="799"/>
      <point x="390" y="830"/>
      <point x="465" y="830" type="curve" smooth="yes"/>
      <point x="685" y="830"/>
      <point x="865" y="684"/>
      <point x="865" y="418" type="curve" smooth="yes"/>
      <point x="865" y="162"/>
      <point x="711" y="22"/>
      <point x="533" y="22" type="curve" smooth="yes"/>
      <point x="385" y="22"/>
      <point x="293" y="75"/>
      <point x="224" y="179" type="curve"/>
      <point x="158" y="148" type="line"/>
      <point x="246" y="25"/>
      <point x="327" y="-27"/>
      <point x="482" y="-27" type="curve" smooth="yes"/>
      <point x="711" y="-27"/>
      <point x="940" y="189"/>
      <point x="940" y="487" type="curve" smooth="yes"/>
      <point x="940" y="753"/>
      <point x="771" y="927"/>
      <point x="598" y="927" type="curve" smooth="yes"/>
      <point x="421" y="927"/>
      <point x="332" y="869"/>
      <point x="173" y="703" type="curve"/>
    </contour>
  </outline>
</glyph>
<glyph name="c" format="2">
  <advance width="840"/>
  <unicode hex="0063"/>
  <anchor x="551" y="1033" name="center"/>
  <outline>
    <contour>
      <point x="778" y="764" type="curve" smooth="yes"/>
      <point x="778" y="844"/>
      <point x="660" y="925"/>
      <point x="545" y="925" type="curve" smooth="yes"/>
      <point x="269" y="925"/>
      <point x="78" y="717"/>
      <point x="78" y="415" type="curve" smooth="yes"/>
      <point x="78" y="169"/>
      <point x="240" y="-29"/>
      <point x="461" y="-29" type="curve" smooth="yes"/>
      <point x="656" y="-29"/>
      <point x="783" y="114"/>
      <point x="783" y="169" type="curve" smooth="yes"/>
      <point x="783" y="171"/>
      <point x="784" y="166"/>
      <point x="781" y="166" type="curve" smooth="yes"/>
      <point x="776" y="166"/>
      <point x="761" y="156"/>
      <point x="756" y="150" type="curve" smooth="yes"/>
      <point x="695" y="99"/>
      <point x="623" y="56"/>
      <point x="506" y="56" type="curve" smooth="yes"/>
      <point x="300" y="56"/>
      <point x="141" y="221"/>
      <point x="141" y="508" type="curve" smooth="yes"/>
      <point x="141" y="712"/>
      <point x="293" y="865"/>
      <point x="463" y="865" type="curve" smooth="yes"/>
      <point x="575" y="865"/>
      <point x="647" y="833"/>
      <point x="647" y="797" type="curve" smooth="yes"/>
      <point x="647" y="765" type="line" smooth="yes"/>
      <point x="647" y="711"/>
      <point x="680" y="676"/>
      <point x="710" y="676" type="curve" smooth="yes"/>
      <point x="740" y="676"/>
      <point x="778" y="716"/>
    </contour>
  </outline>
</glyph>
<glyph name="e" format="2">
  <advance width="906"/>
  <unicode hex="0065"/>
  <anchor x="569" y="1033" name="center"/>
  <outline>
    <contour>
      <point x="811" y="613" type="curve" smooth="yes"/>
      <point x="811" y="801"/>
      <point x="684" y="925"/>
      <point x="515" y="925" type="curve" smooth="yes"/>
      <point x="258" y="925"/>
      <point x="80" y="687"/>
      <point x="80" y="420" type="curve" smooth="yes"/>
      <point x="80" y="172"/>
      <point x="236" y="-29"/>
      <point x="478" y="-29" type="curve" smooth="yes"/>
      <point x="655" y="-29"/>
      <point x="808" y="104"/>
      <point x="808" y="204" type="curve" smooth="yes"/>
      <point x="808" y="203"/>
      <point x="807" y="214"/>
      <point x="801" y="214" type="curve" smooth="yes"/>
      <point x="787" y="214"/>
      <point x="784" y="200"/>
      <point x="793" y="186" type="curve" smooth="yes"/>
      <point x="780" y="133"/>
      <point x="655" y="67"/>
      <point x="520" y="67" type="curve" smooth="yes"/>
      <point x="310" y="67"/>
      <point x="161" y="224"/>
      <point x="161" y="478" type="curve" smooth="yes"/>
      <point x="161" y="665"/>
      <point x="257" y="867"/>
      <point x="469" y="867" type="curve" smooth="yes"/>
      <point x="623" y="867"/>
      <point x="719" y="769"/>
      <point x="719" y="636" type="curve" smooth="yes"/>
      <point x="719" y="596"/>
      <point x="686" y="574"/>
      <point x="645" y="574" type="curve" smooth="yes"/>
      <point x="104" y="574" type="line"/>
      <point x="104" y="524" type="line"/>
      <point x="707" y="524" type="line" smooth="yes"/>
      <point x="760" y="524"/>
      <point x="811" y="553"/>
    </contour>
  </outline>
</glyph>
<glyph name="f" format="2">
  <advance width="630"/>
  <unicode hex="0066"/>
  <outline>
    <contour>
      <point x="339" y="157" type="curve" smooth="yes"/>
      <point x="339" y="852" type="line"/>
      <point x="562" y="852" type="line" smooth="yes"/>
      <point x="570" y="852"/>
      <point x="577" y="868"/>
      <point x="577" y="881" type="curve" smooth="yes"/>
      <point x="577" y="894"/>
      <point x="572" y="898"/>
      <point x="571" y="898" type="curve" smooth="yes"/>
      <point x="373" y="898" type="line"/>
      <point x="341" y="963" type="line" smooth="yes"/>
      <point x="341" y="988"/>
      <point x="339" y="1035"/>
      <point x="300" y="1108" type="curve" smooth="yes"/>
      <point x="308" y="1139"/>
      <point x="302" y="1168"/>
      <point x="302" y="1206" type="curve" smooth="yes"/>
      <point x="302" y="1277"/>
      <point x="349" y="1329"/>
      <point x="413" y="1329" type="curve" smooth="yes"/>
      <point x="442" y="1329"/>
      <point x="461" y="1311"/>
      <point x="461" y="1285" type="curve" smooth="yes"/>
      <point x="461" y="1260" type="line" smooth="yes"/>
      <point x="461" y="1204"/>
      <point x="492" y="1166"/>
      <point x="531" y="1166" type="curve" smooth="yes"/>
      <point x="589" y="1166"/>
      <point x="609" y="1207"/>
      <point x="609" y="1257" type="curve" smooth="yes"/>
      <point x="609" y="1354"/>
      <point x="546" y="1401"/>
      <point x="477" y="1401" type="curve" smooth="yes"/>
      <point x="336" y="1401"/>
      <point x="235" y="1282"/>
      <point x="235" y="1121" type="curve" smooth="yes"/>
      <point x="235" y="1035"/>
      <point x="284" y="963"/>
      <point x="284" y="886" type="curve" smooth="yes"/>
      <point x="284" y="858" type="line"/>
      <point x="270" y="898" type="line"/>
      <point x="127" y="898" type="line" smooth="yes"/>
      <point x="111" y="898"/>
      <point x="100" y="890"/>
      <point x="100" y="874" type="curve" smooth="yes"/>
      <point x="100" y="858"/>
      <point x="119" y="842"/>
      <point x="133" y="838" type="curve" smooth="yes"/>
      <point x="230" y="815" type="line" smooth="yes"/>
      <point x="255" y="810"/>
      <point x="272" y="798"/>
      <point x="272" y="757" type="curve" smooth="yes"/>
      <point x="272" y="155" type="line" smooth="yes"/>
      <point x="272" y="104"/>
      <point x="247" y="78"/>
      <point x="216" y="71" type="curve" smooth="yes"/>
      <point x="178" y="61" type="line" smooth="yes"/>
      <point x="145" y="54"/>
      <point x="129" y="46"/>
      <point x="129" y="27" type="curve" smooth="yes"/>
      <point x="129" y="10"/>
      <point x="149" y="0"/>
      <point x="180" y="0" type="curve" smooth="yes"/>
      <point x="450" y="0" type="line" smooth="yes"/>
      <point x="478" y="0"/>
      <point x="491" y="10"/>
      <point x="491" y="27" type="curve" smooth="yes"/>
      <point x="491" y="42"/>
      <point x="487" y="50"/>
      <point x="477" y="53" type="curve" smooth="yes"/>
      <point x="427" y="65" type="line" smooth="yes"/>
      <point x="376" y="78"/>
      <point x="339" y="110"/>
    </contour>
  </outline>
</glyph>
<glyph name="g" format="2">
  <advance width="956"/>
  <unicode hex="0067"/>
  <outline>
    <contour>
      <point x="721" y="13" type="curve" smooth="yes"/>
      <point x="908" y="-51"/>
      <point x="927" y="-129"/>
      <point x="927" y="-210" type="curve" smooth="yes"/>
      <point x="927" y="-366"/>
      <point x="779" y="-480"/>
      <point x="526" y="-480" type="curve" smooth="yes"/>
      <point x="251" y="-480"/>
      <point x="104" y="-374"/>
      <point x="104" y="-241" type="curve" smooth="yes"/>
      <point x="104" y="-129"/>
      <point x="183" y="-24"/>
      <point x="449" y="30" type="curve"/>
      <point x="468" y="-31" type="line"/>
      <point x="277" y="-54"/>
      <point x="184" y="-136"/>
      <point x="184" y="-222" type="curve" smooth="yes"/>
      <point x="184" y="-348"/>
      <point x="293" y="-435"/>
      <point x="556" y="-435" type="curve" smooth="yes"/>
      <point x="754" y="-435"/>
      <point x="855" y="-364"/>
      <point x="855" y="-256" type="curve" smooth="yes"/>
      <point x="855" y="-193"/>
      <point x="811" y="-142"/>
      <point x="630" y="-83" type="curve" smooth="yes"/>
      <point x="370" y="-6"/>
      <point x="298" y="55"/>
      <point x="298" y="123" type="curve" smooth="yes"/>
      <point x="298" y="165"/>
      <point x="343" y="240"/>
      <point x="407" y="277" type="curve"/>
      <point x="405" y="260" type="line"/>
      <point x="370" y="236"/>
      <point x="365" y="206"/>
      <point x="365" y="172" type="curve" smooth="yes"/>
      <point x="365" y="113"/>
      <point x="427" y="78"/>
    </contour>
    <contour>
      <point x="832" y="584" type="curve" smooth="yes"/>
      <point x="832" y="378"/>
      <point x="681" y="221"/>
      <point x="472" y="221" type="curve" smooth="yes"/>
      <point x="243" y="221"/>
      <point x="106" y="374"/>
      <point x="106" y="555" type="curve" smooth="yes"/>
      <point x="106" y="767"/>
      <point x="247" y="927"/>
      <point x="478" y="927" type="curve" smooth="yes"/>
      <point x="711" y="927"/>
      <point x="832" y="761"/>
    </contour>
    <contour>
      <point x="722" y="891" type="line" smooth="yes"/>
      <point x="737" y="910" type="line" smooth="yes"/>
      <point x="763" y="942"/>
      <point x="806" y="957"/>
      <point x="851" y="957" type="curve" smooth="yes"/>
      <point x="881" y="957"/>
      <point x="926" y="924"/>
      <point x="926" y="884" type="curve" smooth="yes"/>
      <point x="926" y="859"/>
      <point x="898" y="826"/>
      <point x="888" y="826" type="curve" smooth="yes"/>
      <point x="857" y="826"/>
      <point x="847" y="840"/>
      <point x="842" y="848" type="curve" smooth="yes"/>
      <point x="814" y="871"/>
      <point x="795" y="879"/>
      <point x="772" y="879" type="curve" smooth="yes"/>
      <point x="755" y="879"/>
      <point x="738" y="859"/>
      <point x="718" y="844" type="curve"/>
    </contour>
    <contour>
      <point x="433" y="859" type="curve" smooth="yes"/>
      <point x="294" y="859"/>
      <point x="190" y="764"/>
      <point x="190" y="627" type="curve" smooth="yes"/>
      <point x="190" y="458"/>
      <point x="319" y="290"/>
      <point x="521" y="290" type="curve" smooth="yes"/>
      <point x="632" y="290"/>
      <point x="751" y="370"/>
      <point x="751" y="505" type="curve" smooth="yes"/>
      <point x="751" y="709"/>
      <point x="617" y="859"/>
    </contour>
  </outline>
</glyph>
<glyph name="i" format="2">
  <advance width="556"/>
  <unicode hex="0069"/>
  <outline>
    <contour>
      <point x="315" y="882" type="line" smooth="yes"/>
      <point x="315" y="905"/>
      <point x="304" y="927"/>
      <point x="283" y="927" type="curve" smooth="yes"/>
      <point x="266" y="927"/>
      <point x="247" y="918"/>
      <point x="222" y="903" type="curve" smooth="yes"/>
      <point x="119" y="839" type="line" smooth="yes"/>
      <point x="106" y="830"/>
      <point x="86" y="819"/>
      <point x="86" y="810" type="curve" smooth="yes"/>
      <point x="86" y="801"/>
      <point x="102" y="793"/>
      <point x="120" y="793" type="curve" smooth="yes"/>
      <point x="189" y="793" type="line" smooth="yes"/>
      <point x="217" y="793"/>
      <point x="248" y="775"/>
      <point x="248" y="726" type="curve" smooth="yes"/>
      <point x="248" y="140" type="line" smooth="yes"/>
      <point x="248" y="97"/>
      <point x="230" y="65"/>
      <point x="166" y="46" type="curve" smooth="yes"/>
      <point x="111" y="29" type="line" smooth="yes"/>
      <point x="100" y="26"/>
      <point x="84" y="25"/>
      <point x="84" y="12" type="curve" smooth="yes"/>
      <point x="84" y="1"/>
      <point x="93" y="0"/>
      <point x="108" y="0" type="curve" smooth="yes"/>
      <point x="441" y="0" type="line" smooth="yes"/>
      <point x="478" y="0"/>
      <point x="475" y="4"/>
      <point x="475" y="11" type="curve" smooth="yes"/>
      <point x="475" y="26"/>
      <point x="466" y="31"/>
      <point x="440" y="37" type="curve" smooth="yes"/>
      <point x="395" y="45" type="line" smooth="yes"/>
      <point x="343" y="57"/>
      <point x="315" y="78"/>
      <point x="315" y="140" type="curve" smooth="yes"/>
    </contour>
    <contour>
      <point x="285" y="1221" type="curve" smooth="yes"/>
      <point x="326" y="1221"/>
      <point x="354" y="1256"/>
      <point x="354" y="1299" type="curve" smooth="yes"/>
      <point x="354" y="1343"/>
      <point x="326" y="1378"/>
      <point x="285" y="1378" type="curve" smooth="yes"/>
      <point x="247" y="1378"/>
      <point x="219" y="1343"/>
      <point x="219" y="1299" type="curve" smooth="yes"/>
      <point x="219" y="1256"/>
      <point x="247" y="1221"/>
    </contour>
  </outline>
</glyph>
<glyph name="j" format="2">
  <advance width="520"/>
  <unicode hex="006A"/>
  <outline>
    <contour>
      <point x="302" y="1221" type="curve" smooth="yes"/>
      <point x="342" y="1221"/>
      <point x="370" y="1256"/>
      <point x="370" y="1299" type="curve" smooth="yes"/>
      <point x="370" y="1343"/>
      <point x="342" y="1378"/>
      <point x="302" y="1378" type="curve" smooth="yes"/>
      <point x="263" y="1378"/>
      <point x="235" y="1343"/>
      <point x="235" y="1299" type="curve" smooth="yes"/>
      <point x="235" y="1256"/>
      <point x="263" y="1221"/>
    </contour>
    <contour>
      <point x="345" y="-16" type="line" smooth="yes"/>
      <point x="345" y="-91"/>
      <point x="372" y="-171"/>
      <point x="372" y="-259" type="curve" smooth="yes"/>
      <point x="372" y="-384"/>
      <point x="275" y="-477"/>
      <point x="154" y="-477" type="curve" smooth="yes"/>
      <point x="75" y="-477"/>
      <point x="-4" y="-415"/>
      <point x="-4" y="-337" type="curve" smooth="yes"/>
      <point x="-4" y="-272"/>
      <point x="25" y="-232"/>
      <point x="76" y="-232" type="curve" smooth="yes"/>
      <point x="123" y="-232"/>
      <point x="154" y="-259"/>
      <point x="154" y="-300" type="curve" smooth="yes"/>
      <point x="154" y="-333" type="line" smooth="yes"/>
      <point x="154" y="-375"/>
      <point x="177" y="-398"/>
      <point x="218" y="-398" type="curve" smooth="yes"/>
      <point x="280" y="-398"/>
      <point x="320" y="-351"/>
      <point x="320" y="-280" type="curve" smooth="yes"/>
      <point x="320" y="-208"/>
      <point x="280" y="-145"/>
      <point x="280" y="-57" type="curve" smooth="yes"/>
      <point x="280" y="720" type="line" smooth="yes"/>
      <point x="280" y="771"/>
      <point x="246" y="793"/>
      <point x="204" y="793" type="curve" smooth="yes"/>
      <point x="142" y="793" type="line" smooth="yes"/>
      <point x="127" y="793"/>
      <point x="120" y="797"/>
      <point x="120" y="801" type="curve" smooth="yes"/>
      <point x="120" y="814"/>
      <point x="131" y="831"/>
      <point x="148" y="841" type="curve" smooth="yes"/>
      <point x="224" y="896" type="line" smooth="yes"/>
      <point x="266" y="916"/>
      <point x="283" y="927"/>
      <point x="307" y="927" type="curve" smooth="yes"/>
      <point x="331" y="927"/>
      <point x="345" y="908"/>
      <point x="345" y="878" type="curve" smooth="yes"/>
    </contour>
  </outline>
</glyph>
<glyph name="k" format="2">
  <advance width="1046"/>
  <unicode hex="006B"/>
  <outline>
    <contour>
      <point x="523" y="587" type="line"/>
      <point x="869" y="144" type="line" smooth="yes"/>
      <point x="919" y="75"/>
      <point x="958" y="53"/>
      <point x="1023" y="46" type="curve" smooth="yes"/>
      <point x="1043" y="47"/>
      <point x="1058" y="47"/>
      <point x="1058" y="28" type="curve" smooth="yes"/>
      <point x="1058" y="11"/>
      <point x="1056" y="0"/>
      <point x="1028" y="0" type="curve" smooth="yes"/>
      <point x="696" y="0" type="line" smooth="yes"/>
      <point x="662" y="0"/>
      <point x="639" y="8"/>
      <point x="639" y="25" type="curve" smooth="yes"/>
      <point x="639" y="49"/>
      <point x="661" y="61"/>
      <point x="699" y="57" type="curve" smooth="yes"/>
      <point x="742" y="59"/>
      <point x="756" y="67"/>
      <point x="756" y="96" type="curve" smooth="yes"/>
      <point x="756" y="118"/>
      <point x="748" y="138"/>
      <point x="731" y="157" type="curve" smooth="yes"/>
      <point x="445" y="529" type="line"/>
    </contour>
    <contour>
      <point x="233" y="415" type="line"/>
      <point x="598" y="720" type="line" smooth="yes"/>
      <point x="655" y="765"/>
      <point x="680" y="784"/>
      <point x="680" y="811" type="curve" smooth="yes"/>
      <point x="680" y="828"/>
      <point x="672" y="839"/>
      <point x="641" y="846" type="curve" smooth="yes"/>
      <point x="613" y="849"/>
      <point x="596" y="855"/>
      <point x="596" y="871" type="curve" smooth="yes"/>
      <point x="596" y="892"/>
      <point x="614" y="901"/>
      <point x="644" y="901" type="curve" smooth="yes"/>
      <point x="875" y="901" type="line" smooth="yes"/>
      <point x="924" y="901"/>
      <point x="934" y="891"/>
      <point x="934" y="877" type="curve" smooth="yes"/>
      <point x="934" y="860"/>
      <point x="922" y="858"/>
      <point x="927" y="857" type="curve" smooth="yes"/>
      <point x="840" y="828"/>
      <point x="777" y="803"/>
      <point x="701" y="743" type="curve" smooth="yes"/>
      <point x="222" y="368" type="line"/>
    </contour>
    <contour>
      <point x="292" y="1340" type="curve" smooth="yes"/>
      <point x="292" y="148" type="line" smooth="yes"/>
      <point x="292" y="88"/>
      <point x="335" y="59"/>
      <point x="383" y="56" type="curve" smooth="yes"/>
      <point x="404" y="54" type="line" smooth="yes"/>
      <point x="449" y="48"/>
      <point x="457" y="38"/>
      <point x="457" y="25" type="curve" smooth="yes"/>
      <point x="457" y="10"/>
      <point x="460" y="0"/>
      <point x="404" y="0" type="curve" smooth="yes"/>
      <point x="97" y="0" type="line" smooth="yes"/>
      <point x="89" y="0"/>
      <point x="66" y="7"/>
      <point x="66" y="26" type="curve" smooth="yes"/>
      <point x="66" y="41"/>
      <point x="85" y="55"/>
      <point x="102" y="56" type="curve" smooth="yes"/>
      <point x="159" y="64" type="line" smooth="yes"/>
      <point x="225" y="67"/>
      <point x="225" y="92"/>
      <point x="225" y="148" type="curve" smooth="yes"/>
      <point x="225" y="1184" type="line" smooth="yes"/>
      <point x="225" y="1233"/>
      <point x="198" y="1251"/>
      <point x="133" y="1251" type="curve" smooth="yes"/>
      <point x="60" y="1251" type="line" smooth="yes"/>
      <point x="54" y="1251"/>
      <point x="51" y="1262"/>
      <point x="51" y="1262" type="curve" smooth="yes"/>
      <point x="51" y="1278"/>
      <point x="71" y="1296"/>
      <point x="85" y="1303" type="curve" smooth="yes"/>
      <point x="207" y="1366" type="line" smooth="yes"/>
      <point x="224" y="1376"/>
      <point x="243" y="1388"/>
      <point x="254" y="1388" type="curve" smooth="yes"/>
      <point x="278" y="1388"/>
      <point x="292" y="1372"/>
    </contour>
  </outline>
</glyph>
<glyph name="n" format="2">
  <advance width="1122"/>
  <unicode hex="006E"/>
  <outline>
    <contour>
      <point x="329" y="874" type="line" smooth="yes"/>
      <point x="329" y="907"/>
      <point x="315" y="927"/>
      <point x="291" y="927" type="curve" smooth="yes"/>
      <point x="278" y="927"/>
      <point x="260" y="920"/>
      <point x="238" y="904" type="curve" smooth="yes"/>
      <point x="124" y="831" type="line" smooth="yes"/>
      <point x="113" y="822"/>
      <point x="93" y="809"/>
      <point x="93" y="795" type="curve" smooth="yes"/>
      <point x="93" y="785"/>
      <point x="102" y="783"/>
      <point x="113" y="783" type="curve" smooth="yes"/>
      <point x="221" y="783" type="line" smooth="yes"/>
      <point x="263" y="783"/>
      <point x="268" y="761"/>
      <point x="268" y="733" type="curve" smooth="yes"/>
      <point x="268" y="129" type="line" smooth="yes"/>
      <point x="268" y="81"/>
      <point x="252" y="73"/>
      <point x="223" y="67" type="curve" smooth="yes"/>
      <point x="143" y="47" type="line" smooth="yes"/>
      <point x="121" y="44"/>
      <point x="105" y="43"/>
      <point x="105" y="28" type="curve" smooth="yes"/>
      <point x="105" y="10"/>
      <point x="118" y="0"/>
      <point x="136" y="0" type="curve" smooth="yes"/>
      <point x="449" y="0" type="line" smooth="yes"/>
      <point x="475" y="0"/>
      <point x="488" y="10"/>
      <point x="488" y="26" type="curve" smooth="yes"/>
      <point x="488" y="40"/>
      <point x="468" y="40"/>
      <point x="435" y="51" type="curve" smooth="yes"/>
      <point x="385" y="66" type="line" smooth="yes"/>
      <point x="354" y="75"/>
      <point x="329" y="96"/>
      <point x="329" y="122" type="curve" smooth="yes"/>
    </contour>
    <contour>
      <point x="301" y="707" type="line" smooth="yes"/>
      <point x="356" y="752" type="line" smooth="yes"/>
      <point x="434" y="817"/>
      <point x="508" y="858"/>
      <point x="597" y="858" type="curve" smooth="yes"/>
      <point x="713" y="858"/>
      <point x="793" y="798"/>
      <point x="812" y="658" type="curve" smooth="yes"/>
      <point x="889" y="127" type="line" smooth="yes"/>
      <point x="893" y="102"/>
      <point x="878" y="76"/>
      <point x="847" y="69" type="curve" smooth="yes"/>
      <point x="738" y="45" type="line" smooth="yes"/>
      <point x="728" y="40"/>
      <point x="721" y="35"/>
      <point x="721" y="24" type="curve" smooth="yes"/>
      <point x="721" y="12"/>
      <point x="743" y="0"/>
      <point x="776" y="0" type="curve" smooth="yes"/>
      <point x="1066" y="0" type="line" smooth="yes"/>
      <point x="1102" y="0"/>
      <point x="1104" y="10"/>
      <point x="1104" y="16" type="curve" smooth="yes"/>
      <point x="1104" y="24"/>
      <point x="1102" y="26"/>
      <point x="1097" y="34" type="curve" smooth="yes"/>
      <point x="1018" y="68" type="line" smooth="yes"/>
      <point x="993" y="82"/>
      <point x="965" y="103"/>
      <point x="963" y="117" type="curve" smooth="yes"/>
      <point x="875" y="668" type="line" smooth="yes"/>
      <point x="848" y="840"/>
      <point x="748" y="927"/>
      <point x="618" y="927" type="curve" smooth="yes"/>
      <point x="528" y="927"/>
      <point x="459" y="889"/>
      <point x="357" y="801" type="curve" smooth="yes"/>
      <point x="290" y="743" type="line"/>
    </contour>
  </outline>
</glyph>
<glyph name="p" format="2">
  <advance width="1098"/>
  <unicode hex="0070"/>
  <outline>
    <contour>
      <point x="260" y="903" type="line" smooth="yes"/>
      <point x="260" y="917"/>
      <point x="249" y="927"/>
      <point x="232" y="927" type="curve" smooth="yes"/>
      <point x="218" y="927"/>
      <point x="203" y="921"/>
      <point x="185" y="907" type="curve" smooth="yes"/>
      <point x="78" y="844" type="line" smooth="yes"/>
      <point x="60" y="833"/>
      <point x="40" y="812"/>
      <point x="40" y="800" type="curve" smooth="yes"/>
      <point x="40" y="798"/>
      <point x="43" y="793"/>
      <point x="51" y="793" type="curve" smooth="yes"/>
      <point x="112" y="793" type="line" smooth="yes"/>
      <point x="162" y="793"/>
      <point x="193" y="777"/>
      <point x="193" y="738" type="curve" smooth="yes"/>
      <point x="193" y="-319" type="line" smooth="yes"/>
      <point x="193" y="-359"/>
      <point x="179" y="-408"/>
      <point x="142" y="-410" type="curve" smooth="yes"/>
      <point x="81" y="-417" type="line" smooth="yes"/>
      <point x="61" y="-417"/>
      <point x="50" y="-427"/>
      <point x="48" y="-447" type="curve" smooth="yes"/>
      <point x="46" y="-468"/>
      <point x="59" y="-480"/>
      <point x="91" y="-480" type="curve" smooth="yes"/>
      <point x="401" y="-480" type="line" smooth="yes"/>
      <point x="421" y="-480"/>
      <point x="432" y="-466"/>
      <point x="432" y="-449" type="curve" smooth="yes"/>
      <point x="432" y="-433"/>
      <point x="421" y="-423"/>
      <point x="403" y="-423" type="curve" smooth="yes"/>
      <point x="342" y="-416" type="line" smooth="yes"/>
      <point x="287" y="-412"/>
      <point x="260" y="-376"/>
      <point x="260" y="-316" type="curve" smooth="yes"/>
    </contour>
    <contour>
      <point x="287" y="700" type="line"/>
      <point x="399" y="799"/>
      <point x="468" y="830"/>
      <point x="542" y="830" type="curve" smooth="yes"/>
      <point x="763" y="830"/>
      <point x="943" y="684"/>
      <point x="943" y="418" type="curve" smooth="yes"/>
      <point x="943" y="162"/>
      <point x="789" y="22"/>
      <point x="612" y="22" type="curve" smooth="yes"/>
      <point x="463" y="22"/>
      <point x="370" y="75"/>
      <point x="303" y="179" type="curve"/>
      <point x="236" y="148" type="line"/>
      <point x="324" y="25"/>
      <point x="406" y="-27"/>
      <point x="561" y="-27" type="curve" smooth="yes"/>
      <point x="790" y="-27"/>
      <point x="1018" y="189"/>
      <point x="1018" y="487" type="curve" smooth="yes"/>
      <point x="1018" y="753"/>
      <point x="849" y="927"/>
      <point x="676" y="927" type="curve" smooth="yes"/>
      <point x="500" y="927"/>
      <point x="411" y="869"/>
      <point x="252" y="703" type="curve"/>
    </contour>
  </outline>
</glyph>
<glyph name="q" format="2">
  <advance width="1068"/>
  <unicode hex="0071"/>
  <outline>
    <contour>
      <point x="894" y="-322" type="curve" smooth="yes"/>
      <point x="894" y="906" type="line" smooth="yes"/>
      <point x="894" y="916"/>
      <point x="890" y="922"/>
      <point x="887" y="922" type="curve" smooth="yes"/>
      <point x="873" y="922"/>
      <point x="865" y="910"/>
      <point x="870" y="901" type="curve" smooth="yes"/>
      <point x="826" y="816" type="line" smooth="yes"/>
      <point x="826" y="-318" type="line" smooth="yes"/>
      <point x="826" y="-377"/>
      <point x="799" y="-412"/>
      <point x="746" y="-416" type="curve" smooth="yes"/>
      <point x="661" y="-426" type="line" smooth="yes"/>
      <point x="635" y="-427"/>
      <point x="626" y="-435"/>
      <point x="626" y="-449" type="curve" smooth="yes"/>
      <point x="626" y="-466"/>
      <point x="633" y="-480"/>
      <point x="660" y="-480" type="curve" smooth="yes"/>
      <point x="983" y="-480" type="line" smooth="yes"/>
      <point x="1021" y="-480"/>
      <point x="1037" y="-468"/>
      <point x="1035" y="-447" type="curve" smooth="yes"/>
      <point x="1033" y="-429"/>
      <point x="1018" y="-425"/>
      <point x="988" y="-418" type="curve" smooth="yes"/>
      <point x="957" y="-411" type="line" smooth="yes"/>
      <point x="915" y="-399"/>
      <point x="894" y="-362"/>
    </contour>
    <contour>
      <point x="845" y="189" type="line"/>
      <point x="732" y="93"/>
      <point x="599" y="57"/>
      <point x="514" y="57" type="curve" smooth="yes"/>
      <point x="296" y="57"/>
      <point x="150" y="193"/>
      <point x="150" y="474" type="curve" smooth="yes"/>
      <point x="150" y="718"/>
      <point x="327" y="884"/>
      <point x="521" y="884" type="curve" smooth="yes"/>
      <point x="659" y="884"/>
      <point x="732" y="844"/>
      <point x="802" y="738" type="curve"/>
      <point x="846" y="731" type="line"/>
      <point x="755" y="860"/>
      <point x="672" y="927"/>
      <point x="538" y="927" type="curve" smooth="yes"/>
      <point x="289" y="927"/>
      <point x="80" y="705"/>
      <point x="80" y="413" type="curve" smooth="yes"/>
      <point x="80" y="154"/>
      <point x="240" y="-27"/>
      <point x="444" y="-27" type="curve" smooth="yes"/>
      <point x="614" y="-27"/>
      <point x="728" y="46"/>
      <point x="864" y="193" type="curve"/>
    </contour>
  </outline>
</glyph>
<glyph name="r" format="2">
  <advance width="736"/>
  <unicode hex="0072"/>
  <outline>
    <contour>
      <point x="245" y="515" type="line"/>
      <point x="262" y="786"/>
      <point x="438" y="929"/>
      <point x="552" y="929" type="curve" smooth="yes"/>
      <point x="651" y="929"/>
      <point x="726" y="850"/>
      <point x="726" y="785" type="curve" smooth="yes"/>
      <point x="726" y="761"/>
      <point x="711" y="736"/>
      <point x="681" y="736" type="curve" smooth="yes"/>
      <point x="653" y="736"/>
      <point x="612" y="751"/>
      <point x="612" y="817" type="curve" smooth="yes"/>
      <point x="616" y="873"/>
      <point x="588" y="882"/>
      <point x="561" y="882" type="curve" smooth="yes"/>
      <point x="448" y="882"/>
      <point x="315" y="748"/>
      <point x="315" y="504" type="curve"/>
    </contour>
    <contour>
      <point x="315" y="879" type="curve" smooth="yes"/>
      <point x="315" y="147" type="line" smooth="yes"/>
      <point x="315" y="92"/>
      <point x="353" y="64"/>
      <point x="398" y="53" type="curve" smooth="yes"/>
      <point x="417" y="51" type="line" smooth="yes"/>
      <point x="423" y="48"/>
      <point x="436" y="45"/>
      <point x="436" y="34" type="curve" smooth="yes"/>
      <point x="436" y="12"/>
      <point x="430" y="0"/>
      <point x="388" y="0" type="curve" smooth="yes"/>
      <point x="138" y="0" type="line" smooth="yes"/>
      <point x="117" y="0"/>
      <point x="99" y="7"/>
      <point x="99" y="28" type="curve" smooth="yes"/>
      <point x="99" y="52"/>
      <point x="123" y="66"/>
      <point x="163" y="73" type="curve" smooth="yes"/>
      <point x="193" y="72" type="line" smooth="yes"/>
      <point x="222" y="75"/>
      <point x="248" y="94"/>
      <point x="248" y="148" type="curve" smooth="yes"/>
      <point x="248" y="726" type="line" smooth="yes"/>
      <point x="248" y="775"/>
      <point x="198" y="793"/>
      <point x="156" y="793" type="curve" smooth="yes"/>
      <point x="101" y="793" type="line" smooth="yes"/>
      <point x="91" y="793"/>
      <point x="86" y="805"/>
      <point x="86" y="810" type="curve" smooth="yes"/>
      <point x="86" y="819"/>
      <point x="106" y="830"/>
      <point x="123" y="839" type="curve" smooth="yes"/>
      <point x="222" y="903" type="line" smooth="yes"/>
      <point x="247" y="918"/>
      <point x="262" y="927"/>
      <point x="276" y="927" type="curve" smooth="yes"/>
      <point x="297" y="927"/>
      <point x="315" y="908"/>
    </contour>
  </outline>
</glyph>
<glyph name="s" format="2">
  <advance width="819"/>
  <unicode hex="0073"/>
  <outline>
    <contour>
      <point x="439" y="27" type="curve" smooth="yes"/>
      <point x="338" y="27"/>
      <point x="258" y="78"/>
      <point x="172" y="209" type="curve" smooth="yes"/>
      <point x="158" y="236"/>
      <point x="149" y="247"/>
      <point x="132" y="247" type="curve" smooth="yes"/>
      <point x="126" y="247"/>
      <point x="122" y="247"/>
      <point x="122" y="243" type="curve" smooth="yes"/>
      <point x="122" y="222"/>
      <point x="129" y="209"/>
      <point x="139" y="188" type="curve" smooth="yes"/>
      <point x="226" y="-26" type="line" smooth="yes"/>
      <point x="228" y="-29"/>
      <point x="221" y="-29"/>
      <point x="214" y="-29" type="curve" smooth="yes"/>
      <point x="235" y="-29"/>
      <point x="251" y="10"/>
      <point x="276" y="10" type="curve" smooth="yes"/>
      <point x="312" y="10"/>
      <point x="374" y="-29"/>
      <point x="417" y="-29" type="curve" smooth="yes"/>
      <point x="604" y="-29"/>
      <point x="691" y="85"/>
      <point x="691" y="229" type="curve" smooth="yes"/>
      <point x="691" y="346"/>
      <point x="612" y="442"/>
      <point x="441" y="495" type="curve" smooth="yes"/>
      <point x="250" y="547"/>
      <point x="166" y="612"/>
      <point x="166" y="714" type="curve" smooth="yes"/>
      <point x="166" y="804"/>
      <point x="242" y="874"/>
      <point x="374" y="874" type="curve" smooth="yes"/>
      <point x="450" y="874"/>
      <point x="553" y="825"/>
      <point x="659" y="701" type="curve" smooth="yes"/>
      <point x="680" y="677"/>
      <point x="688" y="662"/>
      <point x="711" y="662" type="curve" smooth="yes"/>
      <point x="720" y="662"/>
      <point x="723" y="664"/>
      <point x="723" y="681" type="curve" smooth="yes"/>
      <point x="723" y="678"/>
      <point x="716" y="687"/>
      <point x="723" y="677" type="curve" smooth="yes"/>
      <point x="604" y="918" type="line" smooth="yes"/>
      <point x="603" y="923"/>
      <point x="596" y="927"/>
      <point x="588" y="927" type="curve" smooth="yes"/>
      <point x="574" y="927"/>
      <point x="564" y="892"/>
      <point x="540" y="892" type="curve" smooth="yes"/>
      <point x="513" y="892"/>
      <point x="463" y="925"/>
      <point x="389" y="925" type="curve" smooth="yes"/>
      <point x="245" y="925"/>
      <point x="107" y="802"/>
      <point x="107" y="659" type="curve" smooth="yes"/>
      <point x="107" y="532"/>
      <point x="189" y="448"/>
      <point x="347" y="407" type="curve" smooth="yes"/>
      <point x="568" y="355"/>
      <point x="636" y="288"/>
      <point x="636" y="189" type="curve" smooth="yes"/>
      <point x="636" y="95"/>
      <point x="562" y="27"/>
    </contour>
  </outline>
</glyph>
<glyph name="t" format="2">
  <advance width="552"/>
  <unicode hex="0074"/>
  <outline>
    <contour>
      <point x="96" y="841" type="line" smooth="yes"/>
      <point x="152" y="828"/>
      <point x="172" y="802"/>
      <point x="172" y="774" type="curve" smooth="yes"/>
      <point x="172" y="139" type="line" smooth="yes"/>
      <point x="172" y="40"/>
      <point x="252" y="-13"/>
      <point x="349" y="-13" type="curve" smooth="yes"/>
      <point x="393" y="-13"/>
      <point x="471" y="30"/>
      <point x="489" y="61" type="curve" smooth="yes"/>
      <point x="499" y="82"/>
      <point x="492" y="91"/>
      <point x="481" y="91" type="curve" smooth="yes"/>
      <point x="468" y="91"/>
      <point x="463" y="85"/>
      <point x="442" y="77" type="curve" smooth="yes"/>
      <point x="417" y="71"/>
      <point x="406" y="67"/>
      <point x="387" y="67" type="curve" smooth="yes"/>
      <point x="302" y="67"/>
      <point x="243" y="106"/>
      <point x="243" y="181" type="curve" smooth="yes"/>
      <point x="243" y="1043" type="line" smooth="yes"/>
      <point x="243" y="1065"/>
      <point x="236" y="1079"/>
      <point x="230" y="1079" type="curve" smooth="yes"/>
      <point x="220" y="1079"/>
      <point x="212" y="1072"/>
      <point x="196" y="1045" type="curve" smooth="yes"/>
      <point x="125" y="929" type="line" smooth="yes"/>
      <point x="112" y="908"/>
      <point x="99" y="898"/>
      <point x="66" y="898" type="curve" smooth="yes"/>
      <point x="27" y="898" type="line" smooth="yes"/>
      <point x="15" y="898"/>
      <point x="10" y="885"/>
      <point x="10" y="878" type="curve" smooth="yes"/>
      <point x="10" y="862"/>
      <point x="24" y="855"/>
      <point x="52" y="851" type="curve" smooth="yes"/>
    </contour>
    <contour>
      <point x="104" y="860" type="line"/>
      <point x="104" y="860"/>
      <point x="406" y="860"/>
      <point x="460" y="860" type="curve" smooth="yes"/>
      <point x="473" y="860"/>
      <point x="487" y="867"/>
      <point x="487" y="877" type="curve" smooth="yes"/>
      <point x="487" y="892"/>
      <point x="483" y="898"/>
      <point x="474" y="898" type="curve" smooth="yes"/>
      <point x="432" y="898"/>
      <point x="118" y="898"/>
      <point x="118" y="898" type="curve"/>
    </contour>
  </outline>
</glyph>
<glyph name="v" format="2">
  <advance width="875"/>
  <unicode hex="0076"/>
  <outline>
    <contour>
      <point x="468" y="-20" type="curve" smooth="yes"/>
      <point x="423" y="-20" type="line" smooth="yes"/>
      <point x="448" y="-20"/>
      <point x="463" y="-10"/>
      <point x="481" y="35" type="curve" smooth="yes"/>
      <point x="767" y="698" type="line" smooth="yes"/>
      <point x="795" y="762"/>
      <point x="843" y="795"/>
      <point x="869" y="810" type="curve" smooth="yes"/>
      <point x="883" y="819"/>
      <point x="888" y="839"/>
      <point x="888" y="861" type="curve" smooth="yes"/>
      <point x="888" y="883"/>
      <point x="875" y="898"/>
      <point x="856" y="898" type="curve" smooth="yes"/>
      <point x="585" y="898" type="line" smooth="yes"/>
      <point x="564" y="898"/>
      <point x="554" y="892"/>
      <point x="554" y="875" type="curve" smooth="yes"/>
      <point x="554" y="858"/>
      <point x="565" y="845"/>
      <point x="583" y="842" type="curve" smooth="yes"/>
      <point x="663" y="818" type="line" smooth="yes"/>
      <point x="695" y="808"/>
      <point x="707" y="789"/>
      <point x="707" y="766" type="curve" smooth="yes"/>
      <point x="707" y="735"/>
      <point x="699" y="708"/>
      <point x="673" y="655" type="curve" smooth="yes"/>
      <point x="455" y="128" type="line" smooth="yes"/>
      <point x="448" y="123" type="line"/>
      <point x="190" y="727" type="line" smooth="yes"/>
      <point x="180" y="753"/>
      <point x="169" y="770"/>
      <point x="169" y="793" type="curve" smooth="yes"/>
      <point x="169" y="816"/>
      <point x="186" y="830"/>
      <point x="223" y="836" type="curve" smooth="yes"/>
      <point x="288" y="848" type="line" smooth="yes"/>
      <point x="306" y="849"/>
      <point x="315" y="862"/>
      <point x="315" y="879" type="curve" smooth="yes"/>
      <point x="315" y="891"/>
      <point x="304" y="898"/>
      <point x="286" y="898" type="curve" smooth="yes"/>
      <point x="16" y="898" type="line" smooth="yes"/>
      <point x="-2" y="898"/>
      <point x="-13" y="889"/>
      <point x="-13" y="869" type="curve" smooth="yes"/>
      <point x="-13" y="848"/>
      <point x="-6" y="831"/>
      <point x="6" y="822" type="curve" smooth="yes"/>
      <point x="46" y="798"/>
      <point x="74" y="784"/>
      <point x="94" y="745" type="curve" smooth="yes"/>
      <point x="409" y="26" type="line" smooth="yes"/>
      <point x="424" y="-11"/>
      <point x="453" y="-20"/>
    </contour>
  </outline>
</glyph>
<glyph name="w" format="2">
  <advance width="1446"/>
  <unicode hex="0077"/>
  <outline>
    <contour>
      <point x="424" y="-20" type="curve" smooth="yes"/>
      <point x="400" y="-20" type="line" smooth="yes"/>
      <point x="405" y="-20"/>
      <point x="429" y="-2"/>
      <point x="443" y="39" type="curve" smooth="yes"/>
      <point x="701" y="659" type="line"/>
      <point x="691" y="771" type="line"/>
      <point x="436" y="128" type="line" smooth="yes"/>
      <point x="431" y="123" type="line"/>
      <point x="219" y="727" type="line" smooth="yes"/>
      <point x="209" y="752"/>
      <point x="201" y="769"/>
      <point x="201" y="793" type="curve" smooth="yes"/>
      <point x="201" y="816"/>
      <point x="217" y="824"/>
      <point x="254" y="834" type="curve" smooth="yes"/>
      <point x="299" y="846" type="line" smooth="yes"/>
      <point x="321" y="851"/>
      <point x="338" y="860"/>
      <point x="338" y="879" type="curve" smooth="yes"/>
      <point x="338" y="894"/>
      <point x="319" y="898"/>
      <point x="287" y="898" type="curve" smooth="yes"/>
      <point x="71" y="898" type="line" smooth="yes"/>
      <point x="25" y="898"/>
      <point x="6" y="887"/>
      <point x="6" y="867" type="curve" smooth="yes"/>
      <point x="6" y="850"/>
      <point x="33" y="843"/>
      <point x="61" y="822" type="curve" smooth="yes"/>
      <point x="80" y="809"/>
      <point x="100" y="791"/>
      <point x="111" y="758" type="curve" smooth="yes"/>
      <point x="370" y="35" type="line" smooth="yes"/>
      <point x="377" y="4"/>
      <point x="400" y="-20"/>
    </contour>
    <contour>
      <point x="1023" y="-20" type="line" smooth="yes"/>
      <point x="1036" y="-20"/>
      <point x="1060" y="-8"/>
      <point x="1076" y="35" type="curve" smooth="yes"/>
      <point x="1311" y="698" type="line" smooth="yes"/>
      <point x="1331" y="754"/>
      <point x="1360" y="780"/>
      <point x="1397" y="812" type="curve" smooth="yes"/>
      <point x="1416" y="830"/>
      <point x="1441" y="844"/>
      <point x="1441" y="869" type="curve" smooth="yes"/>
      <point x="1441" y="887"/>
      <point x="1428" y="898"/>
      <point x="1398" y="898" type="curve" smooth="yes"/>
      <point x="1151" y="898" type="line" smooth="yes"/>
      <point x="1134" y="898"/>
      <point x="1125" y="892"/>
      <point x="1125" y="875" type="curve" smooth="yes"/>
      <point x="1125" y="863"/>
      <point x="1128" y="847"/>
      <point x="1141" y="849" type="curve" smooth="yes"/>
      <point x="1223" y="830" type="line" smooth="yes"/>
      <point x="1273" y="819"/>
      <point x="1277" y="808"/>
      <point x="1277" y="793" type="curve" smooth="yes"/>
      <point x="1277" y="752"/>
      <point x="1271" y="744"/>
      <point x="1252" y="691" type="curve" smooth="yes"/>
      <point x="1068" y="128" type="line" smooth="yes"/>
      <point x="1029" y="123" type="line"/>
      <point x="783" y="752" type="line" smooth="yes"/>
      <point x="783" y="757"/>
      <point x="778" y="777"/>
      <point x="778" y="801" type="curve" smooth="yes"/>
      <point x="778" y="820"/>
      <point x="779" y="813"/>
      <point x="809" y="828" type="curve" smooth="yes"/>
      <point x="858" y="848" type="line" smooth="yes"/>
      <point x="878" y="859"/>
      <point x="895" y="862"/>
      <point x="895" y="879" type="curve" smooth="yes"/>
      <point x="895" y="894"/>
      <point x="883" y="898"/>
      <point x="861" y="898" type="curve" smooth="yes"/>
      <point x="550" y="898" type="line" smooth="yes"/>
      <point x="538" y="898"/>
      <point x="532" y="891"/>
      <point x="532" y="879" type="curve" smooth="yes"/>
      <point x="532" y="865"/>
      <point x="553" y="858"/>
      <point x="587" y="840" type="curve" smooth="yes"/>
      <point x="627" y="821"/>
      <point x="669" y="792"/>
      <point x="683" y="758" type="curve" smooth="yes"/>
      <point x="973" y="34" type="line" smooth="yes"/>
      <point x="985" y="-1"/>
      <point x="1014" y="-20"/>
      <point x="1035" y="-20" type="curve" smooth="yes"/>
    </contour>
  </outline>
</glyph>
<glyph name="x" format="2">
  <advance width="878"/>
  <unicode hex="0078"/>
  <outline>
    <contour>
      <point x="466" y="431" type="line"/>
      <point x="248" y="167" type="line" smooth="yes"/>
      <point x="178" y="82"/>
      <point x="151" y="66"/>
      <point x="73" y="37" type="curve" smooth="yes"/>
      <point x="39" y="28"/>
      <point x="5" y="36"/>
      <point x="5" y="6" type="curve" smooth="yes"/>
      <point x="5" y="5"/>
      <point x="4" y="0"/>
      <point x="33" y="0" type="curve" smooth="yes"/>
      <point x="333" y="0" type="line" smooth="yes"/>
      <point x="356" y="0"/>
      <point x="370" y="10"/>
      <point x="370" y="26" type="curve" smooth="yes"/>
      <point x="370" y="28"/>
      <point x="371" y="29"/>
      <point x="365" y="28" type="curve" smooth="yes"/>
      <point x="299" y="58" type="line" smooth="yes"/>
      <point x="263" y="72"/>
      <point x="249" y="77"/>
      <point x="249" y="94" type="curve" smooth="yes"/>
      <point x="249" y="116"/>
      <point x="270" y="132"/>
      <point x="303" y="172" type="curve" smooth="yes"/>
      <point x="501" y="414" type="line"/>
    </contour>
    <contour>
      <point x="232" y="739" type="line" smooth="yes"/>
      <point x="216" y="760"/>
      <point x="210" y="776"/>
      <point x="210" y="793" type="curve" smooth="yes"/>
      <point x="210" y="816"/>
      <point x="223" y="828"/>
      <point x="237" y="836" type="curve" smooth="yes"/>
      <point x="256" y="848" type="line" smooth="yes"/>
      <point x="277" y="859"/>
      <point x="299" y="862"/>
      <point x="299" y="879" type="curve" smooth="yes"/>
      <point x="299" y="894"/>
      <point x="284" y="899"/>
      <point x="267" y="899" type="curve" smooth="yes"/>
      <point x="44" y="899" type="line" smooth="yes"/>
      <point x="10" y="899"/>
      <point x="9" y="889"/>
      <point x="9" y="879" type="curve" smooth="yes"/>
      <point x="9" y="861"/>
      <point x="15" y="852"/>
      <point x="39" y="847" type="curve" smooth="yes"/>
      <point x="74" y="835"/>
      <point x="90" y="805"/>
      <point x="128" y="755" type="curve" smooth="yes"/>
      <point x="641" y="120" type="line" smooth="yes"/>
      <point x="633" y="117"/>
      <point x="662" y="109"/>
      <point x="662" y="90" type="curve" smooth="yes"/>
      <point x="662" y="83"/>
      <point x="670" y="78"/>
      <point x="654" y="73" type="curve" smooth="yes"/>
      <point x="603" y="54" type="line" smooth="yes"/>
      <point x="575" y="46"/>
      <point x="560" y="41"/>
      <point x="560" y="21" type="curve" smooth="yes"/>
      <point x="560" y="8"/>
      <point x="579" y="0"/>
      <point x="606" y="0" type="curve" smooth="yes"/>
      <point x="849" y="0" type="line" smooth="yes"/>
      <point x="875" y="0"/>
      <point x="886" y="12"/>
      <point x="886" y="26" type="curve" smooth="yes"/>
      <point x="886" y="37"/>
      <point x="871" y="50"/>
      <point x="829" y="64" type="curve" smooth="yes"/>
      <point x="807" y="68"/>
      <point x="756" y="82"/>
      <point x="714" y="134" type="curve" smooth="yes"/>
    </contour>
    <contour>
      <point x="417" y="447" type="line"/>
      <point x="739" y="796" type="line" smooth="yes"/>
      <point x="780" y="844"/>
      <point x="808" y="860"/>
      <point x="846" y="880" type="curve" smooth="yes"/>
      <point x="859" y="895"/>
      <point x="881" y="890"/>
      <point x="881" y="898" type="curve" smooth="yes"/>
      <point x="881" y="898"/>
      <point x="879" y="899"/>
      <point x="853" y="899" type="curve" smooth="yes"/>
      <point x="560" y="899" type="line" smooth="yes"/>
      <point x="541" y="899"/>
      <point x="528" y="894"/>
      <point x="528" y="881" type="curve" smooth="yes"/>
      <point x="528" y="874"/>
      <point x="547" y="871"/>
      <point x="555" y="867" type="curve" smooth="yes"/>
      <point x="631" y="831" type="line" smooth="yes"/>
      <point x="654" y="820"/>
      <point x="652" y="806"/>
      <point x="652" y="784" type="curve" smooth="yes"/>
      <point x="652" y="753"/>
      <point x="632" y="735"/>
      <point x="613" y="714" type="curve" smooth="yes"/>
      <point x="399" y="482" type="line"/>
    </contour>
  </outline>
</glyph>
<glyph name="y" format="2">
  <advance width="883"/>
  <unicode hex="0079"/>
  <anchor x="463" y="1000" name="center"/>
  <outline>
    <contour>
      <point x="439" y="89" type="line"/>
      <point x="137" y="796" type="line" smooth="yes"/>
      <point x="141" y="796"/>
      <point x="137" y="809"/>
      <point x="137" y="832" type="curve" smooth="yes"/>
      <point x="137" y="845"/>
      <point x="144" y="849"/>
      <point x="185" y="850" type="curve" smooth="yes"/>
      <point x="266" y="860" type="line" smooth="yes"/>
      <point x="299" y="862"/>
      <point x="317" y="872"/>
      <point x="317" y="885" type="curve" smooth="yes"/>
      <point x="317" y="895"/>
      <point x="304" y="898"/>
      <point x="281" y="898" type="curve" smooth="yes"/>
      <point x="70" y="898" type="line" smooth="yes"/>
      <point x="28" y="898"/>
      <point x="7" y="888"/>
      <point x="7" y="873" type="curve" smooth="yes"/>
      <point x="7" y="856"/>
      <point x="20" y="842"/>
      <point x="31" y="834" type="curve" smooth="yes"/>
      <point x="69" y="816"/>
      <point x="89" y="797"/>
      <point x="104" y="760" type="curve" smooth="yes"/>
      <point x="416" y="-46" type="line"/>
    </contour>
    <contour>
      <point x="234" y="-354" type="line" smooth="yes"/>
      <point x="237" y="-364"/>
      <point x="217" y="-377"/>
      <point x="179" y="-377" type="curve" smooth="yes"/>
      <point x="154" y="-377"/>
      <point x="137" y="-361"/>
      <point x="107" y="-319" type="curve" smooth="yes"/>
      <point x="98" y="-313" type="line" smooth="yes"/>
      <point x="74" y="-286"/>
      <point x="61" y="-283"/>
      <point x="49" y="-283" type="curve" smooth="yes"/>
      <point x="9" y="-283"/>
      <point x="-12" y="-310"/>
      <point x="-12" y="-340" type="curve" smooth="yes"/>
      <point x="-12" y="-421"/>
      <point x="42" y="-480"/>
      <point x="136" y="-480" type="curve" smooth="yes"/>
      <point x="199" y="-480"/>
      <point x="261" y="-449"/>
      <point x="303" y="-342" type="curve" smooth="yes"/>
      <point x="780" y="745" type="line" smooth="yes"/>
      <point x="819" y="839"/>
      <point x="818" y="837"/>
      <point x="856" y="848" type="curve" smooth="yes"/>
      <point x="872" y="849"/>
      <point x="883" y="852"/>
      <point x="883" y="883" type="curve" smooth="yes"/>
      <point x="883" y="886"/>
      <point x="880" y="898"/>
      <point x="849" y="898" type="curve" smooth="yes"/>
      <point x="562" y="898" type="line" smooth="yes"/>
      <point x="554" y="898"/>
      <point x="539" y="900"/>
      <point x="539" y="885" type="curve" smooth="yes"/>
      <point x="539" y="875"/>
      <point x="549" y="861"/>
      <point x="579" y="862" type="curve" smooth="yes"/>
      <point x="651" y="845" type="line" smooth="yes"/>
      <point x="692" y="844"/>
      <point x="711" y="817"/>
      <point x="711" y="788" type="curve" smooth="yes"/>
      <point x="711" y="760"/>
      <point x="697" y="739"/>
      <point x="705" y="744" type="curve" smooth="yes"/>
    </contour>
  </outline>
</glyph>
<glyph name="braceleft" format="2">
  <advance width="749"/>
  <unicode hex="007B"/>
  <outline>
    <contour>
      <point x="354" y="578" type="curve" smooth="yes"/>
      <point x="354" y="584"/>
      <point x="358" y="589"/>
      <point x="362" y="589" type="curve" smooth="yes"/>
      <point x="433" y="589"/>
      <point x="480" y="647"/>
      <point x="480" y="729" type="curve" smooth="yes"/>
      <point x="480" y="896"/>
      <point x="349" y="1043"/>
      <point x="349" y="1196" type="curve" smooth="yes"/>
      <point x="349" y="1352"/>
      <point x="446" y="1475"/>
      <point x="559" y="1475" type="curve" smooth="yes"/>
      <point x="710" y="1475" type="line" smooth="yes"/>
      <point x="715" y="1475"/>
      <point x="719" y="1482"/>
      <point x="719" y="1494" type="curve" smooth="yes"/>
      <point x="719" y="1502"/>
      <point x="716" y="1510"/>
      <point x="713" y="1510" type="curve" smooth="yes"/>
      <point x="647" y="1510" type="line" smooth="yes"/>
      <point x="429" y="1510"/>
      <point x="274" y="1384"/>
      <point x="274" y="1200" type="curve" smooth="yes"/>
      <point x="274" y="990"/>
      <point x="412" y="856"/>
      <point x="412" y="683" type="curve" smooth="yes"/>
      <point x="412" y="642"/>
      <point x="377" y="620"/>
      <point x="322" y="621" type="curve" smooth="yes"/>
      <point x="305" y="621"/>
      <point x="222" y="637"/>
      <point x="203" y="637" type="curve" smooth="yes"/>
      <point x="168" y="637"/>
      <point x="134" y="602"/>
      <point x="134" y="580" type="curve" smooth="yes"/>
      <point x="134" y="555"/>
      <point x="166" y="523"/>
      <point x="210" y="523" type="curve" smooth="yes"/>
      <point x="221" y="523"/>
      <point x="291" y="539"/>
      <point x="319" y="539" type="curve" smooth="yes"/>
      <point x="379" y="540"/>
      <point x="412" y="515"/>
      <point x="412" y="467" type="curve" smooth="yes"/>
      <point x="412" y="306"/>
      <point x="274" y="167"/>
      <point x="274" y="-60" type="curve" smooth="yes"/>
      <point x="274" y="-240"/>
      <point x="429" y="-370"/>
      <point x="647" y="-370" type="curve" smooth="yes"/>
      <point x="713" y="-370" type="line" smooth="yes"/>
      <point x="716" y="-370"/>
      <point x="719" y="-361"/>
      <point x="719" y="-354" type="curve" smooth="yes"/>
      <point x="719" y="-340"/>
      <point x="715" y="-335"/>
      <point x="710" y="-335" type="curve" smooth="yes"/>
      <point x="559" y="-335" type="line" smooth="yes"/>
      <point x="446" y="-335"/>
      <point x="349" y="-207"/>
      <point x="349" y="-56" type="curve" smooth="yes"/>
      <point x="349" y="107"/>
      <point x="480" y="262"/>
      <point x="480" y="423" type="curve" smooth="yes"/>
      <point x="480" y="505"/>
      <point x="439" y="571"/>
      <point x="362" y="571" type="curve" smooth="yes"/>
      <point x="358" y="571"/>
      <point x="354" y="572"/>
    </contour>
  </outline>
</glyph>
<glyph name="bar" format="2">
  <advance width="700"/>
  <unicode hex="007C"/>
  <outline>
    <contour>
      <point x="304" y="530" type="curve" smooth="yes"/>
      <point x="304" y="314"/>
      <point x="327" y="-160"/>
      <point x="327" y="-462" type="curve" smooth="yes"/>
      <point x="327" y="-487"/>
      <point x="334" y="-500"/>
      <point x="349" y="-500" type="curve" smooth="yes"/>
      <point x="359" y="-500"/>
      <point x="365" y="-487"/>
      <point x="365" y="-468" type="curve" smooth="yes"/>
      <point x="365" y="-245"/>
      <point x="392" y="293"/>
      <point x="392" y="526" type="curve" smooth="yes"/>
      <point x="392" y="703"/>
      <point x="357" y="1208"/>
      <point x="357" y="1496" type="curve" smooth="yes"/>
      <point x="357" y="1514"/>
      <point x="352" y="1530"/>
      <point x="343" y="1530" type="curve" smooth="yes"/>
      <point x="335" y="1530"/>
      <point x="329" y="1515"/>
      <point x="329" y="1492" type="curve" smooth="yes"/>
      <point x="329" y="1168"/>
      <point x="304" y="733"/>
    </contour>
  </outline>
</glyph>
<glyph name="asciitilde" format="2">
  <advance width="806"/>
  <unicode hex="007E"/>
  <outline>
    <contour>
      <point x="153" y="447" type="curve" smooth="yes"/>
      <point x="153" y="546"/>
      <point x="212" y="618"/>
      <point x="321" y="618" type="curve" smooth="yes"/>
      <point x="333" y="618"/>
      <point x="392" y="596"/>
      <point x="463" y="519" type="curve" smooth="yes"/>
      <point x="518" y="452"/>
      <point x="549" y="435"/>
      <point x="584" y="435" type="curve" smooth="yes"/>
      <point x="607" y="435"/>
      <point x="621" y="479"/>
      <point x="621" y="572" type="curve" smooth="yes"/>
      <point x="621" y="601"/>
      <point x="629" y="618"/>
      <point x="644" y="618" type="curve" smooth="yes"/>
      <point x="655" y="618"/>
      <point x="663" y="604"/>
      <point x="663" y="550" type="curve" smooth="yes"/>
      <point x="663" y="424"/>
      <point x="619" y="362"/>
      <point x="539" y="366" type="curve" smooth="yes"/>
      <point x="449" y="370"/>
      <point x="378" y="411"/>
      <point x="343" y="465" type="curve" smooth="yes"/>
      <point x="295" y="532"/>
      <point x="266" y="548"/>
      <point x="240" y="548" type="curve" smooth="yes"/>
      <point x="212" y="548"/>
      <point x="196" y="500"/>
      <point x="196" y="392" type="curve" smooth="yes"/>
      <point x="196" y="368"/>
      <point x="184" y="354"/>
      <point x="172" y="354" type="curve" smooth="yes"/>
      <point x="165" y="354"/>
      <point x="153" y="373"/>
    </contour>
  </outline>
</glyph>
<glyph name="exclamdown" format="2">
  <advance width="515"/>
  <unicode hex="00A1"/>
  <outline>
    <contour>
      <point x="263" y="-497" type="curve" smooth="yes"/>
      <point x="233" y="-497"/>
      <point x="209" y="-464"/>
      <point x="209" y="-421" type="curve" smooth="yes"/>
      <point x="209" y="-428"/>
      <point x="209" y="-437"/>
      <point x="204" y="-448" type="curve" smooth="yes"/>
      <point x="247" y="518" type="line" smooth="yes"/>
      <point x="248" y="543"/>
      <point x="254" y="556"/>
      <point x="264" y="556" type="curve" smooth="yes"/>
      <point x="273" y="556"/>
      <point x="282" y="542"/>
      <point x="281" y="514" type="curve" smooth="yes"/>
      <point x="325" y="-420" type="line" smooth="yes"/>
      <point x="321" y="-414"/>
      <point x="319" y="-419"/>
      <point x="319" y="-417" type="curve" smooth="yes"/>
      <point x="319" y="-478"/>
      <point x="314" y="-497"/>
    </contour>
    <contour>
      <point x="263" y="958" type="curve" smooth="yes"/>
      <point x="226" y="958"/>
      <point x="196" y="921"/>
      <point x="196" y="875" type="curve" smooth="yes"/>
      <point x="196" y="829"/>
      <point x="226" y="794"/>
      <point x="263" y="794" type="curve" smooth="yes"/>
      <point x="302" y="794"/>
      <point x="332" y="829"/>
      <point x="332" y="875" type="curve" smooth="yes"/>
      <point x="332" y="921"/>
      <point x="302" y="958"/>
    </contour>
  </outline>
</glyph>
<glyph name="cent" format="2">
  <advance width="792"/>
  <unicode hex="00A2"/>
  <outline>
    <contour>
      <point x="398" y="22" type="curve" smooth="yes"/>
      <point x="398" y="-12"/>
      <point x="417" y="-35"/>
      <point x="429" y="-35" type="curve" smooth="yes"/>
      <point x="457" y="-35"/>
      <point x="469" y="-17"/>
      <point x="473" y="22" type="curve" smooth="yes"/>
      <point x="477" y="98"/>
      <point x="454" y="187"/>
      <point x="454" y="656" type="curve" smooth="yes"/>
      <point x="454" y="1073"/>
      <point x="457" y="1145"/>
      <point x="457" y="1221" type="curve" smooth="yes"/>
      <point x="457" y="1253"/>
      <point x="440" y="1279"/>
      <point x="420" y="1279" type="curve" smooth="yes"/>
      <point x="403" y="1279"/>
      <point x="383" y="1255"/>
      <point x="383" y="1225" type="curve" smooth="yes"/>
      <point x="383" y="1159"/>
      <point x="389" y="1081"/>
      <point x="389" y="656" type="curve" smooth="yes"/>
      <point x="389" y="191"/>
      <point x="398" y="98"/>
    </contour>
    <contour>
      <point x="696" y="889" type="curve" smooth="yes"/>
      <point x="696" y="969"/>
      <point x="599" y="1050"/>
      <point x="497" y="1050" type="curve" smooth="yes"/>
      <point x="291" y="1050"/>
      <point x="96" y="850"/>
      <point x="96" y="602" type="curve" smooth="yes"/>
      <point x="96" y="395"/>
      <point x="244" y="210"/>
      <point x="425" y="210" type="curve" smooth="yes"/>
      <point x="593" y="210"/>
      <point x="707" y="338"/>
      <point x="707" y="383" type="curve" smooth="yes"/>
      <point x="707" y="385"/>
      <point x="710" y="381"/>
      <point x="701" y="381" type="curve" smooth="yes"/>
      <point x="692" y="381"/>
      <point x="689" y="374"/>
      <point x="676" y="369" type="curve" smooth="yes"/>
      <point x="640" y="332"/>
      <point x="602" y="302"/>
      <point x="523" y="302" type="curve" smooth="yes"/>
      <point x="305" y="302"/>
      <point x="118" y="458"/>
      <point x="118" y="679" type="curve" smooth="yes"/>
      <point x="118" y="853"/>
      <point x="262" y="978"/>
      <point x="429" y="978" type="curve" smooth="yes"/>
      <point x="526" y="978"/>
      <point x="586" y="947"/>
      <point x="586" y="906" type="curve" smooth="yes"/>
      <point x="586" y="880" type="line" smooth="yes"/>
      <point x="586" y="847"/>
      <point x="614" y="832"/>
      <point x="640" y="832" type="curve" smooth="yes"/>
      <point x="665" y="832"/>
      <point x="696" y="858"/>
    </contour>
  </outline>
</glyph>
<glyph name="sterling" format="2">
  <advance width="968"/>
  <unicode hex="00A3"/>
  <outline>
    <contour>
      <point x="135" y="614" type="curve" smooth="yes"/>
      <point x="135" y="596"/>
      <point x="142" y="586"/>
      <point x="155" y="586" type="curve" smooth="yes"/>
      <point x="584" y="586" type="line" smooth="yes"/>
      <point x="597" y="586"/>
      <point x="608" y="596"/>
      <point x="608" y="614" type="curve" smooth="yes"/>
      <point x="608" y="628"/>
      <point x="597" y="640"/>
      <point x="584" y="640" type="curve" smooth="yes"/>
      <point x="157" y="640" type="line" smooth="yes"/>
      <point x="146" y="640"/>
      <point x="135" y="628"/>
    </contour>
    <contour>
      <point x="267" y="217" type="curve" smooth="yes"/>
      <point x="415" y="217"/>
      <point x="541" y="-30"/>
      <point x="699" y="-30" type="curve" smooth="yes"/>
      <point x="814" y="-30"/>
      <point x="883" y="35"/>
      <point x="883" y="166" type="curve" smooth="yes"/>
      <point x="883" y="182"/>
      <point x="876" y="190"/>
      <point x="862" y="190" type="curve" smooth="yes"/>
      <point x="841" y="190"/>
      <point x="843" y="176"/>
      <point x="842" y="163" type="curve" smooth="yes"/>
      <point x="833" y="112"/>
      <point x="817" y="82"/>
      <point x="745" y="82" type="curve" smooth="yes"/>
      <point x="605" y="82"/>
      <point x="430" y="280"/>
      <point x="248" y="280" type="curve" smooth="yes"/>
      <point x="142" y="280"/>
      <point x="67" y="207"/>
      <point x="67" y="111" type="curve" smooth="yes"/>
      <point x="67" y="28"/>
      <point x="127" y="-30"/>
      <point x="222" y="-30" type="curve" smooth="yes"/>
      <point x="318" y="-30"/>
      <point x="398" y="49"/>
      <point x="398" y="176" type="curve" smooth="yes"/>
      <point x="398" y="389"/>
      <point x="337" y="692"/>
      <point x="337" y="980" type="curve" smooth="yes"/>
      <point x="337" y="1140"/>
      <point x="400" y="1211"/>
      <point x="507" y="1211" type="curve" smooth="yes"/>
      <point x="582" y="1211"/>
      <point x="638" y="1180"/>
      <point x="638" y="1118" type="curve" smooth="yes"/>
      <point x="638" y="1070" type="line" smooth="yes"/>
      <point x="638" y="1020"/>
      <point x="670" y="986"/>
      <point x="706" y="986" type="curve" smooth="yes"/>
      <point x="750" y="986"/>
      <point x="778" y="1020"/>
      <point x="778" y="1077" type="curve" smooth="yes"/>
      <point x="778" y="1194"/>
      <point x="710" y="1284"/>
      <point x="560" y="1284" type="curve" smooth="yes"/>
      <point x="384" y="1284"/>
      <point x="241" y="1144"/>
      <point x="241" y="909" type="curve" smooth="yes"/>
      <point x="241" y="626"/>
      <point x="347" y="361"/>
      <point x="347" y="174" type="curve" smooth="yes"/>
      <point x="347" y="100"/>
      <point x="304" y="34"/>
      <point x="242" y="34" type="curve" smooth="yes"/>
      <point x="161" y="34"/>
      <point x="128" y="81"/>
      <point x="128" y="131" type="curve" smooth="yes"/>
      <point x="128" y="177"/>
      <point x="166" y="217"/>
    </contour>
  </outline>
</glyph>
<glyph name="yen" format="2">
  <advance width="1198"/>
  <unicode hex="00A5"/>
  <outline>
    <contour>
      <point x="1094" y="370" type="curve" smooth="yes"/>
      <point x="1143" y="370"/>
      <point x="1164" y="396"/>
      <point x="1164" y="424" type="curve" smooth="yes"/>
      <point x="1164" y="462"/>
      <point x="1141" y="488"/>
      <point x="1094" y="490" type="curve" smooth="yes"/>
      <point x="1033" y="492"/>
      <point x="960" y="460"/>
      <point x="586" y="460" type="curve" smooth="yes"/>
      <point x="233" y="460"/>
      <point x="171" y="484"/>
      <point x="110" y="484" type="curve" smooth="yes"/>
      <point x="63" y="484"/>
      <point x="39" y="450"/>
      <point x="39" y="416" type="curve" smooth="yes"/>
      <point x="39" y="388"/>
      <point x="61" y="362"/>
      <point x="106" y="362" type="curve" smooth="yes"/>
      <point x="159" y="362"/>
      <point x="227" y="386"/>
      <point x="586" y="386" type="curve" smooth="yes"/>
      <point x="958" y="386"/>
      <point x="1033" y="370"/>
    </contour>
    <contour>
      <point x="456" y="699" type="line"/>
      <point x="218" y="702"/>
      <point x="163" y="720"/>
      <point x="110" y="720" type="curve" smooth="yes"/>
      <point x="63" y="720"/>
      <point x="39" y="686"/>
      <point x="39" y="652" type="curve" smooth="yes"/>
      <point x="39" y="624"/>
      <point x="61" y="598"/>
      <point x="106" y="598" type="curve" smooth="yes"/>
      <point x="155" y="598"/>
      <point x="216" y="618"/>
      <point x="500" y="622" type="curve"/>
    </contour>
    <contour>
      <point x="1094" y="606" type="curve" smooth="yes"/>
      <point x="1143" y="606"/>
      <point x="1164" y="632"/>
      <point x="1164" y="660" type="curve" smooth="yes"/>
      <point x="1164" y="698"/>
      <point x="1141" y="724"/>
      <point x="1094" y="726" type="curve" smooth="yes"/>
      <point x="1036" y="728"/>
      <point x="972" y="703"/>
      <point x="682" y="695" type="curve"/>
      <point x="656" y="623" type="line"/>
      <point x="967" y="619"/>
      <point x="1036" y="606"/>
    </contour>
    <contour>
      <point x="516" y="449" type="line"/>
      <point x="516" y="127" type="line" smooth="yes"/>
      <point x="516" y="80"/>
      <point x="495" y="55"/>
      <point x="452" y="47" type="curve" smooth="yes"/>
      <point x="408" y="36" type="line" smooth="yes"/>
      <point x="375" y="29"/>
      <point x="357" y="27"/>
      <point x="357" y="14" type="curve" smooth="yes"/>
      <point x="357" y="3"/>
      <point x="364" y="0"/>
      <point x="395" y="0" type="curve" smooth="yes"/>
      <point x="729" y="0" type="line" smooth="yes"/>
      <point x="756" y="0"/>
      <point x="767" y="5"/>
      <point x="767" y="14" type="curve" smooth="yes"/>
      <point x="767" y="27"/>
      <point x="750" y="29"/>
      <point x="717" y="36" type="curve" smooth="yes"/>
      <point x="672" y="47" type="line" smooth="yes"/>
      <point x="629" y="55"/>
      <point x="608" y="80"/>
      <point x="608" y="127" type="curve" smooth="yes"/>
      <point x="608" y="449" type="line"/>
    </contour>
    <contour>
      <point x="583" y="375" type="line"/>
      <point x="950" y="1072" type="line" smooth="yes"/>
      <point x="998" y="1161"/>
      <point x="1047" y="1186"/>
      <point x="1103" y="1206" type="curve" smooth="yes"/>
      <point x="1138" y="1219"/>
      <point x="1153" y="1231"/>
      <point x="1153" y="1249" type="curve" smooth="yes"/>
      <point x="1153" y="1269"/>
      <point x="1141" y="1279"/>
      <point x="1111" y="1279" type="curve" smooth="yes"/>
      <point x="792" y="1279" type="line" smooth="yes"/>
      <point x="770" y="1279"/>
      <point x="757" y="1270"/>
      <point x="757" y="1258" type="curve" smooth="yes"/>
      <point x="757" y="1242"/>
      <point x="779" y="1235"/>
      <point x="819" y="1220" type="curve" smooth="yes"/>
      <point x="880" y="1197"/>
      <point x="893" y="1171"/>
      <point x="895" y="1144" type="curve" smooth="yes"/>
      <point x="895" y="1124"/>
      <point x="887" y="1098"/>
      <point x="873" y="1069" type="curve" smooth="yes"/>
      <point x="564" y="462" type="line"/>
      <point x="573" y="499" type="line"/>
      <point x="250" y="1111" type="line" smooth="yes"/>
      <point x="222" y="1163"/>
      <point x="248" y="1214"/>
      <point x="304" y="1224" type="curve" smooth="yes"/>
      <point x="341" y="1233" type="line" smooth="yes"/>
      <point x="367" y="1241"/>
      <point x="384" y="1244"/>
      <point x="384" y="1258" type="curve" smooth="yes"/>
      <point x="384" y="1272"/>
      <point x="372" y="1279"/>
      <point x="356" y="1279" type="curve" smooth="yes"/>
      <point x="51" y="1279" type="line" smooth="yes"/>
      <point x="26" y="1279"/>
      <point x="12" y="1273"/>
      <point x="12" y="1262" type="curve" smooth="yes"/>
      <point x="12" y="1247"/>
      <point x="23" y="1242"/>
      <point x="56" y="1228" type="curve" smooth="yes"/>
      <point x="103" y="1211"/>
      <point x="107" y="1184"/>
      <point x="142" y="1118" type="curve" smooth="yes"/>
      <point x="545" y="375" type="line"/>
    </contour>
  </outline>
</glyph>
<glyph name="brokenbar" format="2">
  <advance width="719"/>
  <unicode hex="00A6"/>
  <outline>
    <contour>
      <point x="308" y="-432" type="curve" smooth="yes"/>
      <point x="308" y="-473"/>
      <point x="322" y="-490"/>
      <point x="339" y="-490" type="curve" smooth="yes"/>
      <point x="356" y="-490"/>
      <point x="370" y="-473"/>
      <point x="370" y="-432" type="curve" smooth="yes"/>
      <point x="370" y="-324"/>
      <point x="343" y="-200"/>
      <point x="343" y="386" type="curve" smooth="yes"/>
      <point x="343" y="406"/>
      <point x="342" y="414"/>
      <point x="339" y="414" type="curve" smooth="yes"/>
      <point x="336" y="414"/>
      <point x="335" y="406"/>
      <point x="335" y="386" type="curve" smooth="yes"/>
      <point x="335" y="-200"/>
      <point x="308" y="-324"/>
    </contour>
    <contour>
      <point x="308" y="1474" type="curve" smooth="yes"/>
      <point x="308" y="1366"/>
      <point x="335" y="1241"/>
      <point x="335" y="656" type="curve" smooth="yes"/>
      <point x="335" y="635"/>
      <point x="336" y="628"/>
      <point x="339" y="628" type="curve" smooth="yes"/>
      <point x="342" y="628"/>
      <point x="343" y="635"/>
      <point x="343" y="656" type="curve" smooth="yes"/>
      <point x="343" y="1241"/>
      <point x="370" y="1366"/>
      <point x="370" y="1474" type="curve" smooth="yes"/>
      <point x="370" y="1515"/>
      <point x="358" y="1532"/>
      <point x="339" y="1532" type="curve" smooth="yes"/>
      <point x="320" y="1532"/>
      <point x="308" y="1515"/>
    </contour>
  </outline>
</glyph>
<glyph name="copyright" format="2">
  <advance width="1449"/>
  <unicode hex="00A9"/>
  <outline>
    <contour>
      <point x="723" y="-30" type="curve" smooth="yes"/>
      <point x="354" y="-30"/>
      <point x="93" y="248"/>
      <point x="93" y="623" type="curve" smooth="yes"/>
      <point x="93" y="993"/>
      <point x="360" y="1256"/>
      <point x="723" y="1256" type="curve" smooth="yes"/>
      <point x="1090" y="1256"/>
      <point x="1356" y="995"/>
      <point x="1356" y="623" type="curve" smooth="yes"/>
      <point x="1356" y="249"/>
      <point x="1092" y="-30"/>
    </contour>
    <contour>
      <point x="723" y="36" type="curve" smooth="yes"/>
      <point x="1058" y="36"/>
      <point x="1296" y="285"/>
      <point x="1296" y="623" type="curve" smooth="yes"/>
      <point x="1296" y="955"/>
      <point x="1053" y="1194"/>
      <point x="723" y="1194" type="curve" smooth="yes"/>
      <point x="396" y="1194"/>
      <point x="154" y="954"/>
      <point x="154" y="623" type="curve" smooth="yes"/>
      <point x="154" y="286"/>
      <point x="390" y="36"/>
    </contour>
    <contour>
      <point x="1018" y="403" type="curve" smooth="yes"/>
      <point x="1018" y="402"/>
      <point x="1016" y="405"/>
      <point x="1013" y="405" type="curve" smooth="yes"/>
      <point x="1007" y="405"/>
      <point x="1002" y="394"/>
      <point x="997" y="393" type="curve" smooth="yes"/>
      <point x="944" y="351"/>
      <point x="867" y="317"/>
      <point x="778" y="317" type="curve" smooth="yes"/>
      <point x="591" y="317"/>
      <point x="458" y="455"/>
      <point x="458" y="649" type="curve" smooth="yes"/>
      <point x="458" y="844"/>
      <point x="581" y="956"/>
      <point x="751" y="956" type="curve" smooth="yes"/>
      <point x="831" y="956"/>
      <point x="871" y="921"/>
      <point x="962" y="821" type="curve" smooth="yes"/>
      <point x="976" y="807"/>
      <point x="987" y="797"/>
      <point x="998" y="797" type="curve" smooth="yes"/>
      <point x="1001" y="797"/>
      <point x="1006" y="803"/>
      <point x="1006" y="811" type="curve" smooth="yes"/>
      <point x="1006" y="818"/>
      <point x="1002" y="821"/>
      <point x="999" y="835" type="curve" smooth="yes"/>
      <point x="947" y="1008" type="line" smooth="yes"/>
      <point x="946" y="1014"/>
      <point x="940" y="1019"/>
      <point x="937" y="1019" type="curve" smooth="yes"/>
      <point x="927" y="1019"/>
      <point x="923" y="985"/>
      <point x="914" y="985" type="curve" smooth="yes"/>
      <point x="880" y="985"/>
      <point x="833" y="1018"/>
      <point x="740" y="1018" type="curve" smooth="yes"/>
      <point x="538" y="1018"/>
      <point x="380" y="844"/>
      <point x="380" y="607" type="curve" smooth="yes"/>
      <point x="380" y="384"/>
      <point x="528" y="224"/>
      <point x="743" y="224" type="curve" smooth="yes"/>
      <point x="902" y="224"/>
      <point x="1018" y="317"/>
    </contour>
  </outline>
</glyph>
<glyph name="ordfeminine" format="2">
  <advance width="779"/>
  <unicode hex="00AA"/>
  <outline>
    <contour>
      <point x="142" y="1212" type="curve" smooth="yes"/>
      <point x="142" y="1177"/>
      <point x="160" y="1149"/>
      <point x="185" y="1149" type="curve" smooth="yes"/>
      <point x="210" y="1149"/>
      <point x="233" y="1172"/>
      <point x="233" y="1217" type="curve" smooth="yes"/>
      <point x="233" y="1278" type="line" smooth="yes"/>
      <point x="233" y="1339"/>
      <point x="280" y="1372"/>
      <point x="385" y="1372" type="curve" smooth="yes"/>
      <point x="513" y="1372"/>
      <point x="582" y="1302"/>
      <point x="582" y="1169" type="curve" smooth="yes"/>
      <point x="582" y="719" type="line" smooth="yes"/>
      <point x="582" y="643"/>
      <point x="623" y="611"/>
      <point x="668" y="611" type="curve" smooth="yes"/>
      <point x="687" y="611"/>
      <point x="720" y="645"/>
      <point x="720" y="674" type="curve" smooth="yes"/>
      <point x="720" y="674"/>
      <point x="724" y="673"/>
      <point x="730" y="673" type="curve" smooth="yes"/>
      <point x="720" y="673"/>
      <point x="711" y="657"/>
      <point x="682" y="657" type="curve" smooth="yes"/>
      <point x="662" y="657"/>
      <point x="637" y="673"/>
      <point x="637" y="713" type="curve" smooth="yes"/>
      <point x="637" y="1214" type="line" smooth="yes"/>
      <point x="637" y="1336"/>
      <point x="566" y="1411"/>
      <point x="426" y="1411" type="curve" smooth="yes"/>
      <point x="252" y="1411"/>
      <point x="142" y="1302"/>
    </contour>
    <contour>
      <point x="611" y="940" type="curve"/>
      <point x="612" y="971" type="line"/>
      <point x="538" y="988"/>
      <point x="458" y="1010"/>
      <point x="366" y="1010" type="curve" smooth="yes"/>
      <point x="198" y="1010"/>
      <point x="104" y="908"/>
      <point x="104" y="806" type="curve" smooth="yes"/>
      <point x="104" y="691"/>
      <point x="194" y="611"/>
      <point x="321" y="611" type="curve" smooth="yes"/>
      <point x="433" y="611"/>
      <point x="533" y="661"/>
      <point x="600" y="744" type="curve"/>
      <point x="578" y="775" type="line"/>
      <point x="515" y="705"/>
      <point x="431" y="667"/>
      <point x="344" y="667" type="curve" smooth="yes"/>
      <point x="248" y="667"/>
      <point x="180" y="734"/>
      <point x="180" y="824" type="curve" smooth="yes"/>
      <point x="180" y="901"/>
      <point x="241" y="968"/>
      <point x="382" y="968" type="curve" smooth="yes"/>
      <point x="469" y="968"/>
      <point x="540" y="953"/>
    </contour>
  </outline>
</glyph>
<glyph name="logicalnot" format="2">
  <advance width="925"/>
  <unicode hex="00AC"/>
  <outline>
    <contour>
      <point x="766" y="434" type="curve" smooth="yes"/>
      <point x="780" y="434"/>
      <point x="788" y="446"/>
      <point x="788" y="465" type="curve" smooth="yes"/>
      <point x="788" y="820" type="line" smooth="yes"/>
      <point x="788" y="834"/>
      <point x="784" y="842"/>
      <point x="778" y="842" type="curve" smooth="yes"/>
      <point x="759" y="842"/>
      <point x="745" y="833"/>
      <point x="745" y="820" type="curve" smooth="yes"/>
      <point x="745" y="467" type="line" smooth="yes"/>
      <point x="745" y="448"/>
      <point x="754" y="434"/>
    </contour>
    <contour>
      <point x="78" y="818" type="curve" smooth="yes"/>
      <point x="78" y="797"/>
      <point x="95" y="782"/>
      <point x="114" y="782" type="curve" smooth="yes"/>
      <point x="225" y="782"/>
      <point x="357" y="800"/>
      <point x="439" y="800" type="curve" smooth="yes"/>
      <point x="523" y="800"/>
      <point x="649" y="782"/>
      <point x="753" y="782" type="curve" smooth="yes"/>
      <point x="774" y="782"/>
      <point x="788" y="797"/>
      <point x="788" y="818" type="curve" smooth="yes"/>
      <point x="788" y="841"/>
      <point x="773" y="857"/>
      <point x="753" y="857" type="curve" smooth="yes"/>
      <point x="649" y="857"/>
      <point x="523" y="840"/>
      <point x="439" y="840" type="curve" smooth="yes"/>
      <point x="343" y="840"/>
      <point x="225" y="857"/>
      <point x="116" y="857" type="curve" smooth="yes"/>
      <point x="98" y="857"/>
      <point x="78" y="841"/>
    </contour>
  </outline>
</glyph>
<glyph name="registered" format="2">
  <advance width="879"/>
  <unicode hex="00AE"/>
  <outline>
    <contour>
      <point x="439" y="466" type="curve" smooth="yes"/>
      <point x="215" y="466"/>
      <point x="58" y="641"/>
      <point x="58" y="872" type="curve" smooth="yes"/>
      <point x="58" y="1101"/>
      <point x="219" y="1263"/>
      <point x="439" y="1263" type="curve" smooth="yes"/>
      <point x="659" y="1263"/>
      <point x="821" y="1101"/>
      <point x="821" y="872" type="curve" smooth="yes"/>
      <point x="821" y="641"/>
      <point x="662" y="466"/>
    </contour>
    <contour>
      <point x="439" y="512" type="curve" smooth="yes"/>
      <point x="640" y="512"/>
      <point x="780" y="665"/>
      <point x="780" y="872" type="curve" smooth="yes"/>
      <point x="780" y="1073"/>
      <point x="634" y="1218"/>
      <point x="439" y="1218" type="curve" smooth="yes"/>
      <point x="241" y="1218"/>
      <point x="99" y="1075"/>
      <point x="99" y="872" type="curve" smooth="yes"/>
      <point x="99" y="665"/>
      <point x="237" y="512"/>
    </contour>
    <contour>
      <point x="598" y="950" type="curve" smooth="yes"/>
      <point x="598" y="1040"/>
      <point x="521" y="1099"/>
      <point x="417" y="1099" type="curve" smooth="yes"/>
      <point x="286" y="1099" type="line" smooth="yes"/>
      <point x="275" y="1099"/>
      <point x="270" y="1100"/>
      <point x="270" y="1099" type="curve" smooth="yes"/>
      <point x="270" y="1097"/>
      <point x="277" y="1094"/>
      <point x="284" y="1093" type="curve" smooth="yes"/>
      <point x="302" y="1089" type="line" smooth="yes"/>
      <point x="314" y="1085"/>
      <point x="323" y="1074"/>
      <point x="323" y="1060" type="curve" smooth="yes"/>
      <point x="323" y="692" type="line" smooth="yes"/>
      <point x="323" y="681"/>
      <point x="314" y="667"/>
      <point x="302" y="665" type="curve" smooth="yes"/>
      <point x="284" y="662" type="line" smooth="yes"/>
      <point x="277" y="663"/>
      <point x="270" y="658"/>
      <point x="270" y="656" type="curve" smooth="yes"/>
      <point x="270" y="652"/>
      <point x="275" y="652"/>
      <point x="286" y="652" type="curve" smooth="yes"/>
      <point x="409" y="652" type="line" smooth="yes"/>
      <point x="418" y="652"/>
      <point x="422" y="652"/>
      <point x="422" y="656" type="curve" smooth="yes"/>
      <point x="422" y="660"/>
      <point x="418" y="656"/>
      <point x="409" y="660" type="curve" smooth="yes"/>
      <point x="395" y="665" type="line" smooth="yes"/>
      <point x="383" y="669"/>
      <point x="375" y="675"/>
      <point x="375" y="692" type="curve" smooth="yes"/>
      <point x="375" y="1065" type="line"/>
      <point x="413" y="1065" type="line" smooth="yes"/>
      <point x="495" y="1065"/>
      <point x="554" y="1029"/>
      <point x="554" y="971" type="curve" smooth="yes"/>
      <point x="554" y="891"/>
      <point x="502" y="842"/>
      <point x="433" y="842" type="curve" smooth="yes"/>
      <point x="376" y="842"/>
      <point x="346" y="847"/>
      <point x="313" y="866" type="curve"/>
      <point x="305" y="840" type="line"/>
      <point x="338" y="819"/>
      <point x="364" y="812"/>
      <point x="412" y="812" type="curve" smooth="yes"/>
      <point x="524" y="812"/>
      <point x="598" y="869"/>
    </contour>
    <contour>
      <point x="446" y="825" type="line"/>
      <point x="539" y="697" type="line" smooth="yes"/>
      <point x="545" y="689"/>
      <point x="549" y="683"/>
      <point x="549" y="676" type="curve" smooth="yes"/>
      <point x="549" y="670"/>
      <point x="543" y="664"/>
      <point x="533" y="660" type="curve" smooth="yes"/>
      <point x="533" y="656"/>
      <point x="530" y="656"/>
      <point x="530" y="654" type="curve" smooth="yes"/>
      <point x="530" y="652"/>
      <point x="537" y="652"/>
      <point x="545" y="652" type="curve" smooth="yes"/>
      <point x="651" y="652" type="line" smooth="yes"/>
      <point x="664" y="652"/>
      <point x="668" y="655"/>
      <point x="668" y="656" type="curve" smooth="yes"/>
      <point x="668" y="660"/>
      <point x="664" y="658"/>
      <point x="659" y="660" type="curve" smooth="yes"/>
      <point x="635" y="665"/>
      <point x="627" y="678"/>
      <point x="612" y="693" type="curve" smooth="yes"/>
      <point x="492" y="833" type="line"/>
    </contour>
  </outline>
</glyph>
<glyph name="degree" format="2">
  <advance width="713"/>
  <unicode hex="00B0"/>
  <outline>
    <contour>
      <point x="361" y="1266" type="curve" smooth="yes"/>
      <point x="215" y="1266"/>
      <point x="116" y="1162"/>
      <point x="116" y="1034" type="curve" smooth="yes"/>
      <point x="116" y="901"/>
      <point x="215" y="805"/>
      <point x="349" y="805" type="curve" smooth="yes"/>
      <point x="489" y="805"/>
      <point x="598" y="903"/>
      <point x="598" y="1047" type="curve" smooth="yes"/>
      <point x="598" y="1176"/>
      <point x="499" y="1266"/>
    </contour>
    <contour>
      <point x="529" y="1006" type="curve" smooth="yes"/>
      <point x="529" y="915"/>
      <point x="466" y="858"/>
      <point x="372" y="858" type="curve" smooth="yes"/>
      <point x="263" y="858"/>
      <point x="180" y="948"/>
      <point x="180" y="1063" type="curve" smooth="yes"/>
      <point x="180" y="1152"/>
      <point x="247" y="1215"/>
      <point x="341" y="1215" type="curve" smooth="yes"/>
      <point x="455" y="1215"/>
      <point x="529" y="1123"/>
    </contour>
  </outline>
</glyph>
<glyph name="plusminus" format="2">
  <advance width="976"/>
  <unicode hex="00B1"/>
  <outline>
    <contour>
      <point x="133" y="721" type="curve" smooth="yes"/>
      <point x="133" y="700"/>
      <point x="151" y="685"/>
      <point x="169" y="685" type="curve" smooth="yes"/>
      <point x="280" y="685"/>
      <point x="412" y="713"/>
      <point x="494" y="713" type="curve" smooth="yes"/>
      <point x="578" y="713"/>
      <point x="704" y="685"/>
      <point x="808" y="685" type="curve" smooth="yes"/>
      <point x="829" y="685"/>
      <point x="843" y="700"/>
      <point x="843" y="721" type="curve" smooth="yes"/>
      <point x="843" y="743"/>
      <point x="827" y="760"/>
      <point x="808" y="760" type="curve" smooth="yes"/>
      <point x="704" y="760"/>
      <point x="578" y="733"/>
      <point x="494" y="733" type="curve" smooth="yes"/>
      <point x="398" y="733"/>
      <point x="280" y="760"/>
      <point x="171" y="760" type="curve" smooth="yes"/>
      <point x="153" y="760"/>
      <point x="133" y="743"/>
    </contour>
    <contour>
      <point x="496" y="352" type="curve" smooth="yes"/>
      <point x="512" y="352"/>
      <point x="523" y="373"/>
      <point x="523" y="396" type="curve" smooth="yes"/>
      <point x="523" y="509"/>
      <point x="496" y="642"/>
      <point x="496" y="725" type="curve" smooth="yes"/>
      <point x="496" y="810"/>
      <point x="523" y="937"/>
      <point x="523" y="1041" type="curve" smooth="yes"/>
      <point x="523" y="1068"/>
      <point x="512" y="1085"/>
      <point x="496" y="1085" type="curve" smooth="yes"/>
      <point x="478" y="1085"/>
      <point x="465" y="1066"/>
      <point x="465" y="1041" type="curve" smooth="yes"/>
      <point x="465" y="937"/>
      <point x="492" y="810"/>
      <point x="492" y="725" type="curve" smooth="yes"/>
      <point x="492" y="628"/>
      <point x="465" y="509"/>
      <point x="465" y="398" type="curve" smooth="yes"/>
      <point x="465" y="376"/>
      <point x="478" y="352"/>
    </contour>
    <contour>
      <point x="133" y="210" type="curve" smooth="yes"/>
      <point x="133" y="189"/>
      <point x="150" y="174"/>
      <point x="169" y="174" type="curve" smooth="yes"/>
      <point x="280" y="174"/>
      <point x="412" y="192"/>
      <point x="494" y="192" type="curve" smooth="yes"/>
      <point x="578" y="192"/>
      <point x="704" y="174"/>
      <point x="808" y="174" type="curve" smooth="yes"/>
      <point x="829" y="174"/>
      <point x="843" y="189"/>
      <point x="843" y="210" type="curve" smooth="yes"/>
      <point x="843" y="233"/>
      <point x="828" y="249"/>
      <point x="808" y="249" type="curve" smooth="yes"/>
      <point x="704" y="249"/>
      <point x="578" y="232"/>
      <point x="494" y="232" type="curve" smooth="yes"/>
      <point x="398" y="232"/>
      <point x="280" y="249"/>
      <point x="171" y="249" type="curve" smooth="yes"/>
      <point x="153" y="249"/>
      <point x="133" y="233"/>
    </contour>
  </outline>
</glyph>
<glyph name="threesuperior" format="2">
  <advance width="662"/>
  <unicode hex="00B3"/>
  <outline>
    <contour>
      <point x="272" y="948" type="line"/>
      <point x="568" y="1244" type="line" smooth="yes"/>
      <point x="568" y="1250"/>
      <point x="560" y="1249"/>
      <point x="560" y="1251" type="curve" smooth="yes"/>
      <point x="560" y="1261"/>
      <point x="560" y="1269"/>
      <point x="555" y="1269" type="curve" smooth="yes"/>
      <point x="148" y="1269" type="line" smooth="yes"/>
      <point x="145" y="1269"/>
      <point x="146" y="1253"/>
      <point x="145" y="1232" type="curve" smooth="yes"/>
      <point x="133" y="1158" type="line" smooth="yes"/>
      <point x="131" y="1145"/>
      <point x="134" y="1143"/>
      <point x="134" y="1143" type="curve" smooth="yes"/>
      <point x="142" y="1143"/>
      <point x="151" y="1147"/>
      <point x="154" y="1154" type="curve" smooth="yes"/>
      <point x="174" y="1198" type="line" smooth="yes"/>
      <point x="186" y="1217"/>
      <point x="194" y="1223"/>
      <point x="211" y="1223" type="curve" smooth="yes"/>
      <point x="470" y="1223" type="line"/>
      <point x="470" y="1212" type="line"/>
      <point x="244" y="986" type="line" smooth="yes"/>
      <point x="234" y="977"/>
      <point x="229" y="964"/>
      <point x="229" y="956" type="curve" smooth="yes"/>
      <point x="229" y="941"/>
      <point x="240" y="932"/>
      <point x="256" y="932" type="curve" smooth="yes"/>
      <point x="305" y="932" type="line" smooth="yes"/>
      <point x="406" y="932"/>
      <point x="474" y="882"/>
      <point x="474" y="792" type="curve" smooth="yes"/>
      <point x="474" y="700"/>
      <point x="417" y="640"/>
      <point x="329" y="640" type="curve" smooth="yes"/>
      <point x="261" y="640"/>
      <point x="211" y="679"/>
      <point x="211" y="725" type="curve" smooth="yes"/>
      <point x="211" y="731" type="line" smooth="yes"/>
      <point x="211" y="767"/>
      <point x="189" y="792"/>
      <point x="160" y="792" type="curve" smooth="yes"/>
      <point x="147" y="792"/>
      <point x="131" y="770"/>
      <point x="131" y="739" type="curve" smooth="yes"/>
      <point x="131" y="651"/>
      <point x="203" y="584"/>
      <point x="325" y="584" type="curve" smooth="yes"/>
      <point x="440" y="584"/>
      <point x="529" y="672"/>
      <point x="529" y="812" type="curve" smooth="yes"/>
      <point x="529" y="931"/>
      <point x="451" y="984"/>
      <point x="324" y="984" type="curve" smooth="yes"/>
      <point x="324" y="984"/>
      <point x="299" y="984"/>
      <point x="293" y="984" type="curve"/>
    </contour>
  </outline>
</glyph>
<glyph name="cedilla" format="2">
  <advance width="600"/>
  <unicode hex="00B8"/>
  <outline>
    <contour>
      <point x="298" y="16" type="line"/>
      <point x="195" y="-222" type="line" smooth="yes"/>
      <point x="206" y="-216"/>
      <point x="228" y="-207"/>
      <point x="216" y="-207" type="curve" smooth="yes"/>
      <point x="231" y="-207"/>
      <point x="245" y="-196"/>
      <point x="271" y="-196" type="curve" smooth="yes"/>
      <point x="325" y="-196"/>
      <point x="359" y="-232"/>
      <point x="359" y="-311" type="curve" smooth="yes"/>
      <point x="359" y="-384"/>
      <point x="320" y="-426"/>
      <point x="264" y="-426" type="curve" smooth="yes"/>
      <point x="214" y="-426"/>
      <point x="185" y="-415"/>
      <point x="185" y="-402" type="curve" smooth="yes"/>
      <point x="185" y="-395" type="line" smooth="yes"/>
      <point x="185" y="-340"/>
      <point x="171" y="-304"/>
      <point x="156" y="-304" type="curve" smooth="yes"/>
      <point x="144" y="-304"/>
      <point x="127" y="-324"/>
      <point x="127" y="-352" type="curve" smooth="yes"/>
      <point x="127" y="-429"/>
      <point x="186" y="-485"/>
      <point x="239" y="-485" type="curve" smooth="yes"/>
      <point x="328" y="-485"/>
      <point x="401" y="-422"/>
      <point x="401" y="-325" type="curve" smooth="yes"/>
      <point x="401" y="-230"/>
      <point x="334" y="-176"/>
      <point x="235" y="-176" type="curve" smooth="yes"/>
      <point x="236" y="-176"/>
      <point x="235" y="-171"/>
      <point x="216" y="-202" type="curve"/>
      <point x="215" y="-178" type="line"/>
      <point x="311" y="18" type="line"/>
    </contour>
  </outline>
</glyph>
<glyph name="onesuperior" format="2">
  <advance width="589"/>
  <unicode hex="00B9"/>
  <outline>
    <contour>
      <point x="151" y="1158" type="line" smooth="yes"/>
      <point x="142" y="1158"/>
      <point x="137" y="1168"/>
      <point x="137" y="1179" type="curve" smooth="yes"/>
      <point x="137" y="1193"/>
      <point x="144" y="1203"/>
      <point x="155" y="1203" type="curve" smooth="yes"/>
      <point x="158" y="1203" type="line" smooth="yes"/>
      <point x="206" y="1203"/>
      <point x="240" y="1212"/>
      <point x="290" y="1256" type="curve" smooth="yes"/>
      <point x="296" y="1265"/>
      <point x="303" y="1269"/>
      <point x="316" y="1269" type="curve" smooth="yes"/>
      <point x="322" y="1269"/>
      <point x="327" y="1264"/>
      <point x="327" y="1250" type="curve" smooth="yes"/>
      <point x="327" y="705" type="line" smooth="yes"/>
      <point x="327" y="676"/>
      <point x="349" y="651"/>
      <point x="376" y="650" type="curve" smooth="yes"/>
      <point x="449" y="646" type="line" smooth="yes"/>
      <point x="456" y="646"/>
      <point x="459" y="639"/>
      <point x="459" y="627" type="curve" smooth="yes"/>
      <point x="459" y="610"/>
      <point x="455" y="604"/>
      <point x="449" y="604" type="curve" smooth="yes"/>
      <point x="145" y="604" type="line" smooth="yes"/>
      <point x="134" y="604"/>
      <point x="129" y="610"/>
      <point x="129" y="627" type="curve" smooth="yes"/>
      <point x="129" y="641"/>
      <point x="134" y="650"/>
      <point x="145" y="650" type="curve" smooth="yes"/>
      <point x="214" y="654" type="line" smooth="yes"/>
      <point x="246" y="655"/>
      <point x="275" y="676"/>
      <point x="275" y="705" type="curve" smooth="yes"/>
      <point x="275" y="1096" type="line" smooth="yes"/>
      <point x="275" y="1140"/>
      <point x="254" y="1158"/>
      <point x="217" y="1158" type="curve" smooth="yes"/>
    </contour>
  </outline>
</glyph>
<glyph name="ordmasculine" format="2">
  <advance width="865"/>
  <unicode hex="00BA"/>
  <outline>
    <contour>
      <point x="452" y="1415" type="curve" smooth="yes"/>
      <point x="198" y="1415"/>
      <point x="41" y="1246"/>
      <point x="41" y="1023" type="curve" smooth="yes"/>
      <point x="41" y="791"/>
      <point x="203" y="614"/>
      <point x="411" y="614" type="curve" smooth="yes"/>
      <point x="645" y="614"/>
      <point x="825" y="779"/>
      <point x="825" y="1023" type="curve" smooth="yes"/>
      <point x="825" y="1249"/>
      <point x="664" y="1415"/>
    </contour>
    <contour>
      <point x="757" y="976" type="curve" smooth="yes"/>
      <point x="757" y="792"/>
      <point x="636" y="661"/>
      <point x="464" y="661" type="curve" smooth="yes"/>
      <point x="250" y="661"/>
      <point x="104" y="840"/>
      <point x="104" y="1049" type="curve" smooth="yes"/>
      <point x="104" y="1233"/>
      <point x="229" y="1370"/>
      <point x="403" y="1370" type="curve" smooth="yes"/>
      <point x="624" y="1370"/>
      <point x="757" y="1202"/>
    </contour>
  </outline>
</glyph>
<glyph name="onequarter" format="2">
  <advance width="1417"/>
  <unicode hex="00BC"/>
  <outline>
    <contour>
      <point x="1193" y="1175" type="curve" smooth="yes"/>
      <point x="1209" y="1197"/>
      <point x="1209" y="1213"/>
      <point x="1209" y="1229" type="curve" smooth="yes"/>
      <point x="1209" y="1245"/>
      <point x="1197" y="1266"/>
      <point x="1180" y="1266" type="curve" smooth="yes"/>
      <point x="1165" y="1266"/>
      <point x="1155" y="1256"/>
      <point x="1149" y="1238" type="curve" smooth="yes"/>
      <point x="1009" y="1051"/>
      <point x="859" y="881"/>
      <point x="715" y="692" type="curve" smooth="yes"/>
      <point x="542" y="465"/>
      <point x="425" y="269"/>
      <point x="172" y="12" type="curve" smooth="yes"/>
      <point x="179" y="12"/>
      <point x="190" y="3"/>
      <point x="190" y="9" type="curve" smooth="yes"/>
      <point x="190" y="2"/>
      <point x="193" y="-33"/>
      <point x="225" y="-33" type="curve" smooth="yes"/>
      <point x="220" y="-33"/>
      <point x="223" y="-44"/>
      <point x="226" y="-29" type="curve" smooth="yes"/>
      <point x="408" y="214"/>
      <point x="556" y="384"/>
      <point x="761" y="645" type="curve" smooth="yes"/>
      <point x="913" y="838"/>
      <point x="1036" y="1009"/>
    </contour>
    <contour>
      <point x="151" y="1158" type="line" smooth="yes"/>
      <point x="142" y="1158"/>
      <point x="137" y="1168"/>
      <point x="137" y="1179" type="curve" smooth="yes"/>
      <point x="137" y="1193"/>
      <point x="144" y="1203"/>
      <point x="155" y="1203" type="curve" smooth="yes"/>
      <point x="158" y="1203" type="line" smooth="yes"/>
      <point x="206" y="1203"/>
      <point x="240" y="1212"/>
      <point x="290" y="1256" type="curve" smooth="yes"/>
      <point x="296" y="1265"/>
      <point x="303" y="1269"/>
      <point x="316" y="1269" type="curve" smooth="yes"/>
      <point x="322" y="1269"/>
      <point x="327" y="1264"/>
      <point x="327" y="1250" type="curve" smooth="yes"/>
      <point x="327" y="705" type="line" smooth="yes"/>
      <point x="327" y="676"/>
      <point x="349" y="651"/>
      <point x="376" y="650" type="curve" smooth="yes"/>
      <point x="449" y="646" type="line" smooth="yes"/>
      <point x="456" y="646"/>
      <point x="459" y="639"/>
      <point x="459" y="627" type="curve" smooth="yes"/>
      <point x="459" y="610"/>
      <point x="455" y="604"/>
      <point x="449" y="604" type="curve" smooth="yes"/>
      <point x="145" y="604" type="line" smooth="yes"/>
      <point x="134" y="604"/>
      <point x="129" y="610"/>
      <point x="129" y="627" type="curve" smooth="yes"/>
      <point x="129" y="641"/>
      <point x="134" y="650"/>
      <point x="145" y="650" type="curve" smooth="yes"/>
      <point x="214" y="654" type="line" smooth="yes"/>
      <point x="246" y="655"/>
      <point x="275" y="676"/>
      <point x="275" y="705" type="curve" smooth="yes"/>
      <point x="275" y="1096" type="line" smooth="yes"/>
      <point x="275" y="1140"/>
      <point x="254" y="1158"/>
      <point x="217" y="1158" type="curve" smooth="yes"/>
    </contour>
    <contour>
      <point x="1090" y="321" type="curve" smooth="yes"/>
      <point x="1090" y="116" type="line" smooth="yes"/>
      <point x="1090" y="71"/>
      <point x="1063" y="49"/>
      <point x="1002" y="41" type="curve" smooth="yes"/>
      <point x="979" y="39"/>
      <point x="968" y="31"/>
      <point x="968" y="19" type="curve" smooth="yes"/>
      <point x="968" y="7"/>
      <point x="977" y="0"/>
      <point x="998" y="0" type="curve" smooth="yes"/>
      <point x="1223" y="0" type="line" smooth="yes"/>
      <point x="1242" y="0"/>
      <point x="1250" y="6"/>
      <point x="1250" y="19" type="curve" smooth="yes"/>
      <point x="1250" y="31"/>
      <point x="1242" y="35"/>
      <point x="1227" y="39" type="curve" smooth="yes"/>
      <point x="1169" y="50"/>
      <point x="1145" y="69"/>
      <point x="1145" y="114" type="curve" smooth="yes"/>
      <point x="1145" y="370" type="line" smooth="yes"/>
      <point x="1145" y="389"/>
      <point x="1144" y="396"/>
      <point x="1128" y="396" type="curve" smooth="yes"/>
      <point x="1114" y="396"/>
      <point x="1109" y="389"/>
      <point x="1089" y="366" type="curve" smooth="yes"/>
      <point x="1098" y="354" type="line" smooth="yes"/>
      <point x="1096" y="346"/>
      <point x="1090" y="335"/>
    </contour>
    <contour>
      <point x="1012" y="504" type="curve" smooth="yes"/>
      <point x="811" y="299" type="line" smooth="yes"/>
      <point x="788" y="273"/>
      <point x="768" y="250"/>
      <point x="768" y="224" type="curve" smooth="yes"/>
      <point x="768" y="191"/>
      <point x="788" y="174"/>
      <point x="821" y="174" type="curve" smooth="yes"/>
      <point x="1245" y="174" type="line" smooth="yes"/>
      <point x="1261" y="174"/>
      <point x="1270" y="183"/>
      <point x="1270" y="204" type="curve" smooth="yes"/>
      <point x="1270" y="227"/>
      <point x="1260" y="236"/>
      <point x="1245" y="236" type="curve" smooth="yes"/>
      <point x="815" y="236" type="line"/>
      <point x="828" y="216" type="line"/>
      <point x="1067" y="487" type="line" smooth="yes"/>
      <point x="1102" y="524"/>
      <point x="1115" y="559"/>
      <point x="1115" y="597" type="curve" smooth="yes"/>
      <point x="1115" y="635"/>
      <point x="1092" y="662"/>
      <point x="1055" y="662" type="curve" smooth="yes"/>
      <point x="1031" y="662"/>
      <point x="999" y="633"/>
      <point x="999" y="613" type="curve" smooth="yes"/>
      <point x="999" y="580"/>
      <point x="1020" y="562"/>
      <point x="1020" y="536" type="curve" smooth="yes"/>
      <point x="1020" y="521"/>
      <point x="1020" y="515"/>
    </contour>
  </outline>
</glyph>
